<?xml version="1.0" encoding="UTF-8" standalone="no"?>
<svg width="42px" height="45px" viewBox="0 0 42 45" version="1.1" xmlns="http://www.w3.org/2000/svg" xmlns:xlink="http://www.w3.org/1999/xlink" xmlns:sketch="http://www.bohemiancoding.com/sketch/ns">
    <!-- Generator: Sketch 3.3.2 (12043) - http://www.bohemiancoding.com/sketch -->
    <title>Parking marker</title>
    <desc>Created with Sketch.</desc>
    <defs></defs>
    <g id="Page-1" stroke="none" stroke-width="1" fill="none" fill-rule="evenodd" sketch:type="MSPage">
        <g id="Map-menu" sketch:type="MSArtboardGroup" transform="translate(-166.000000, -197.000000)">
            <g id="Pending-Payments" sketch:type="MSLayerGroup" transform="translate(166.000000, 93.000000)">
                <g id="Parking-marker" transform="translate(0.000000, 104.000000)">
                    <g id="_x37_7_Essential_Icons_11_" fill="#2BAA5E" sketch:type="MSShapeGroup">
                        <path d="M40.6057698,0.0587791453 L1.20356881,0.0587791453 C0.565090235,0.0587791453 0.0366941711,0.587791453 0.0366941711,1.22701466 L0.0366941711,27.4792504 C0.0366941711,28.1184736 0.565090235,28.6474859 1.20356881,28.6474859 L9.85605436,28.6474859 C9.89274853,28.6474859 9.92210387,28.6768755 9.92210387,28.7136125 L9.92210387,35.245445 C9.92210387,36.2373431 11.0743008,36.7296184 11.7861678,36.0169213 L19.2350845,28.6695281 C19.2497622,28.6548333 19.2644398,28.6474859 19.2864563,28.6474859 L40.6057698,28.6474859 C41.2442483,28.6474859 41.7726444,28.1184736 41.7726444,27.4792504 L41.7726444,1.22701466 C41.7726444,0.58044406 41.2442483,0.0587791453 40.6057698,0.0587791453 L40.6057698,0.0587791453 Z M39.578333,26.3771414 C39.578333,26.4138784 39.5489776,26.443268 39.5122835,26.443268 L18.8167709,26.443268 C18.5452341,26.443268 18.2663584,26.5534789 18.0461934,26.7739007 L12.2338367,32.4901726 C12.1898036,32.5342569 12.1164153,32.5048673 12.1164153,32.4387408 L12.1164153,27.6115035 C12.1164153,26.9722803 11.5880192,26.443268 10.9495407,26.443268 L2.30439395,26.443268 C2.26769977,26.443268 2.23834444,26.4138784 2.23834444,26.3771414 L2.23834444,3.02712598 C2.23834444,2.99038902 2.26769977,2.96099944 2.30439395,2.96099944 L39.5122835,2.26299709 C39.5489776,2.26299709 39.578333,2.29238667 39.578333,2.32912363 L39.578333,26.3771414 L39.578333,26.3771414 Z" id="Message"></path>
                    </g>
                    <path d="M2.2310056,3.02712598 L2.30439395,26.443268 L10.9495407,26.443268 L12.2338367,32.4901726 L18.8167709,26.443268 L39.578333,26.3771414 L39.578333,2.32177624 L2.2310056,2.32177624 L2.2310056,3.02712598 Z" id="Shape" fill="#1B1B1C" sketch:type="MSShapeGroup"></path>
                    <g id="Group" transform="translate(0.000000, 30.932525)" fill="#2BAA5E" sketch:type="MSShapeGroup">
                        <path d="M2.56859198,3.53409611 C2.64198032,3.5414435 2.73738517,3.5487909 2.84746768,3.5487909 C3.33183074,3.5487909 3.74280545,3.43123261 4.02168115,3.16672645 C4.23450735,2.96099944 4.35192869,2.65975632 4.35192869,2.30708145 C4.35192869,1.95440658 4.19781318,1.65316346 3.96297048,1.46947863 C3.72078895,1.27844641 3.36118607,1.1829303 2.86214535,1.1829303 C2.36310462,1.1829303 2.01084058,1.21231987 1.76132021,1.25640423 L1.76132021,4.81988991 L2.56859198,4.81988991 L2.56859198,3.53409611 L2.56859198,3.53409611 Z M2.56859198,1.8295009 C2.62730265,1.81480611 2.73738517,1.80011132 2.90617835,1.80011132 C3.30981423,1.80011132 3.54465693,1.99849094 3.54465693,2.32912363 C3.54465693,2.69649329 3.2804589,2.91691508 2.84012884,2.91691508 C2.7227075,2.91691508 2.63464149,2.90956769 2.56859198,2.8948729 L2.56859198,1.8295009 L2.56859198,1.8295009 Z" id="Shape"></path>
                        <path d="M1.04211446,5.94404107 L5.07113445,5.94404107 C5.57751401,5.94404107 5.99582756,5.53258705 5.99582756,5.01826953 L5.99582756,0.984550683 C5.99582756,0.477580555 5.58485284,0.0587791453 5.07113445,0.0587791453 L1.04211446,0.0587791453 C0.535734898,0.0587791453 0.117421348,0.470233162 0.117421348,0.984550683 L0.117421348,5.01826953 C0.117421348,5.53258705 0.535734898,5.94404107 1.04211446,5.94404107 L1.04211446,5.94404107 Z M0.85130477,1.04332983 C0.85130477,0.903729359 0.961387283,0.793518461 1.10082513,0.793518461 L5.01976261,0.793518461 C5.15920046,0.793518461 5.26928297,0.903729359 5.26928297,1.04332983 L5.26928297,4.96683778 C5.26928297,5.10643825 5.15920046,5.21664914 5.01976261,5.21664914 L1.10082513,5.21664914 C0.961387283,5.21664914 0.85130477,5.10643825 0.85130477,4.96683778 L0.85130477,1.04332983 L0.85130477,1.04332983 Z" id="Shape"></path>
                        <path d="M3.85288797,10.7712784 C2.96488903,10.7712784 2.24568327,11.4913229 2.24568327,12.3803575 C2.24568327,13.269392 2.96488903,13.996784 3.85288797,13.996784 C4.74088691,13.996784 5.46009266,13.2767394 5.46009266,12.3803575 C5.4674315,11.4913229 4.74088691,10.7712784 3.85288797,10.7712784 L3.85288797,10.7712784 Z M3.85288797,12.8652854 C3.58868994,12.8652854 3.36852491,12.6448636 3.36852491,12.3803575 C3.36852491,12.1085039 3.58868994,11.8954295 3.85288797,11.8954295 C4.117086,11.8954295 4.33725103,12.1158513 4.33725103,12.3803575 C4.33725103,12.652211 4.12442483,12.8652854 3.85288797,12.8652854 L3.85288797,12.8652854 Z" id="Shape"></path>
                        <path d="M15.5803451,11.0578267 L15.316147,8.9123879 C15.2647752,8.50093389 14.9051723,8.19969077 14.4941976,8.22173295 L13.9144297,8.25112252 L12.1237541,6.63469602 C11.9549609,6.48040077 11.7274571,6.39223205 11.4926144,6.39223205 L7.85255262,6.39223205 C7.03794202,6.39223205 6.24534792,6.67143299 5.60686935,7.18575051 L3.57401227,8.81687179 L0.843965936,9.50017936 C0.491701893,9.58834807 0.249520364,9.90428598 0.249520364,10.2643082 L0.249520364,11.0504793 C0.132099016,11.0504793 0.0366941711,11.1459954 0.0366941711,11.2635537 L0.0366941711,12.3068835 C0.0366941711,12.4538314 0.154115519,12.5787371 0.308231037,12.5787371 L1.84938622,12.5787371 C1.84204739,12.5126106 1.82736972,12.446484 1.82736972,12.3803575 C1.82736972,11.2562063 2.73738517,10.352477 3.85288797,10.352477 C4.96839077,10.352477 5.87840621,11.2635537 5.87840621,12.3803575 C5.87840621,12.446484 5.86372854,12.5126106 5.85638971,12.5787371 L10.1275912,12.5787371 C10.1202524,12.5126106 10.1055747,12.446484 10.1055747,12.3803575 C10.1055747,11.2562063 11.0155902,10.352477 12.131093,10.352477 C13.2539346,10.352477 14.1566112,11.2635537 14.1566112,12.3803575 C14.1566112,12.446484 14.1419335,12.5126106 14.1345947,12.5787371 L15.5730062,12.5787371 C15.7197829,12.5787371 15.8445431,12.4611788 15.8445431,12.3068835 L15.8445431,11.3223329 C15.8518819,11.1827324 15.7271217,11.0578267 15.5803451,11.0578267 L15.5803451,11.0578267 Z M10.1789631,8.42011256 L5.10048979,8.67727132 L6.0692159,7.89110025 C6.59761197,7.46495145 7.25076821,7.23718226 7.9332798,7.23718226 L10.1789631,7.23718226 L10.1789631,8.42011256 L10.1789631,8.42011256 Z M11.022929,8.3760282 L11.022929,7.23718226 L11.3531765,7.23718226 C11.4705979,7.23718226 11.5806804,7.28126662 11.6614076,7.35474055 L12.6961832,8.28785948 L11.022929,8.3760282 L11.022929,8.3760282 Z" id="Shape"></path>
                        <path d="M12.1384318,10.7712784 C11.2504329,10.7712784 10.5312271,11.4913229 10.5312271,12.3803575 C10.5312271,13.269392 11.2504329,13.996784 12.1384318,13.996784 C13.0264307,13.996784 13.7456365,13.2767394 13.7456365,12.3803575 C13.7456365,11.4913229 13.0264307,10.7712784 12.1384318,10.7712784 L12.1384318,10.7712784 Z M12.1384318,12.8652854 C11.8742338,12.8652854 11.6540687,12.6448636 11.6540687,12.3803575 C11.6540687,12.1085039 11.8742338,11.8954295 12.1384318,11.8954295 C12.4026298,11.8954295 12.6227949,12.1158513 12.6227949,12.3803575 C12.6227949,12.652211 12.4026298,12.8652854 12.1384318,12.8652854 L12.1384318,12.8652854 Z" id="Shape"></path>
                    </g>
                    <text id="$5/hr" sketch:type="MSTextLayer" font-family=".Helvetica Neue DeskInterface" font-size="10" font-weight="normal" fill="#FFFFFF">
                        <tspan x="7" y="17">$5/hr</tspan>
                    </text>
                </g>
            </g>
        </g>
    </g>
</svg>