<?xml version="1.0" encoding="utf-8"?>
<!-- Generator: Adobe Illustrator 18.1.1, SVG Export Plug-In . SVG Version: 6.00 Build 0)  -->
<svg version="1.1" id="Layer_1" xmlns="http://www.w3.org/2000/svg" xmlns:xlink="http://www.w3.org/1999/xlink" x="0px" y="0px"
	 viewBox="0 0 1000 1008" enable-background="new 0 0 1000 1008" xml:space="preserve">
<g id="_x37_7_Essential_Icons_11_">
	<path id="Message" fill="#2BAA5E" d="M950.3,61.8H413.4c-8.7,0-15.9,7.2-15.9,15.9V435c0,8.7,7.2,15.9,15.9,15.9h117.9
		c0.5,0,0.9,0.4,0.9,0.9v88.9c0,13.5,15.7,20.2,25.4,10.5l101.5-100c0.2-0.2,0.4-0.3,0.7-0.3h290.5c8.7,0,15.9-7.2,15.9-15.9V77.7
		C966.2,68.9,959,61.8,950.3,61.8z M936.3,420c0,0.5-0.4,0.9-0.9,0.9H653.4c-3.7,0-7.5,1.5-10.5,4.5l-79.2,77.8
		c-0.6,0.6-1.6,0.2-1.6-0.7v-65.7c0-8.7-7.2-15.9-15.9-15.9H428.4c-0.5,0-0.9-0.4-0.9-0.9V102.2c0-0.5,0.4-0.9,0.9-0.9l507-9.5
		c0.5,0,0.9,0.4,0.9,0.9V420z"/>
</g>
<rect x="1397" y="349" fill="#FFFFFF" stroke="#2BAA5E" stroke-miterlimit="10" width="310" height="586"/>
<polygon fill="#1B1B1C" points="427.4,102.2 428.4,420.9 546.2,420.9 563.7,503.2 653.4,420.9 936.3,420 936.3,92.6 427.4,92.6 "/>
<g>
	<g>
		<rect x="454.9" y="568.2" fill="#2BAA5E" width="204.7" height="18.9"/>
		<path fill="#2BAA5E" d="M575.5,600.5c-10.4,5.3-46.7,19-46.7,19l-42.9-2.8c0,0,24.5-7.1,34-9.4c9.5-2.2,5.4-13.5,0.1-13.5
			c-5.3,0-51.2,2-51.2,2l-30.5,11.5l8.1,53.5c0,0,6.3-11.2,12.5-11.2c6.3,0,60.7,1.5,68.1,0c7.4-1.5,52.4-33.8,57.8-37.5
			C590.3,608.3,586,595.2,575.5,600.5z"/>
		<polygon fill="#2BAA5E" points="397.5,613.1 397.5,682.4 444.2,673.2 432.5,606.6 		"/>
	</g>
</g>
</svg>
