<?xml version="1.0" encoding="utf-8"?>
<!-- Generator: Adobe Illustrator 18.1.1, SVG Export Plug-In . SVG Version: 6.00 Build 0)  -->
<svg version="1.1" id="Layer_1" xmlns="http://www.w3.org/2000/svg" xmlns:xlink="http://www.w3.org/1999/xlink" x="0px" y="0px"
	 viewBox="0 0 1000 1008" enable-background="new 0 0 1000 1008" xml:space="preserve">
<g id="_x37_7_Essential_Icons_11_">
	<path id="Message" fill="#010101" d="M950.3,61.8H413.4c-8.7,0-15.9,7.2-15.9,15.9V435c0,8.7,7.2,15.9,15.9,15.9h117.9
		c0.5,0,0.9,0.4,0.9,0.9v88.9c0,13.5,15.7,20.2,25.4,10.5l101.5-100c0.2-0.2,0.4-0.3,0.7-0.3h290.5c8.7,0,15.9-7.2,15.9-15.9V77.7
		C966.2,68.9,959,61.8,950.3,61.8z M936.3,420c0,0.5-0.4,0.9-0.9,0.9H653.4c-3.7,0-7.5,1.5-10.5,4.5l-79.2,77.8
		c-0.6,0.6-1.6,0.2-1.6-0.7v-65.7c0-8.7-7.2-15.9-15.9-15.9H428.4c-0.5,0-0.9-0.4-0.9-0.9V102.2c0-0.5,0.4-0.9,0.9-0.9l507-9.5
		c0.5,0,0.9,0.4,0.9,0.9V420z"/>
</g>
<g>
	<path fill="#040305" d="M480.1,484.6h-74.7c-4.3,0-7.8,3.8-7.8,8.4v171.3h90.4V493C487.9,488.3,484.4,484.6,480.1,484.6z
		 M476.7,548.6h-67.9v-47.7h67.9L476.7,548.6L476.7,548.6z M523.8,667.6c-18.6,0-29.8-13.7-30.9-37.6c-0.4-9.4,1.8-19.8,4.1-30.7
		c1.7-8.2,3.6-16.8,4.4-25.5c0.9-8.8-0.4-11.8-1.3-12.8c-1.6-1.9-6.2-1.9-10.6-1.9h-2.2v-11.6h2.2c6.5,0,13.9,0,18.7,5.7
		c3.8,4.5,5,11.4,4,21.8c-0.9,9.4-2.8,18.3-4.6,26.9c-2.1,10.2-4.2,19.8-3.8,27.6c0.8,17.6,7.5,26.5,20,26.5
		c13.7,0,20.7-9.3,20.7-27.7c0-15.2-4.4-27-7.3-34.8l-1.1-3.1c-3-8.5-3.4-16.2-3.7-27.7c-0.3-11.2-0.2-23.3,2.7-35.1
		c2.9-11.9,8.9-17.8,18.9-27.4l2.4-2.3l7.3,8.6l-2.4,2.4c-9.3,9-13.5,13.1-15.6,21.7c-2.6,10.4-2.6,21.5-2.4,31.8
		c0.3,11.3,0.7,17.4,3,23.9l1.1,3c3,8.1,8.1,21.7,8.1,39.1C555.4,652.9,543.6,667.6,523.8,667.6z M537.8,564.6l-0.3-11.6
		c0,0,8.4-0.2,13.2-0.3c0.1-2.1,0.1-5.3,0.1-8.7v-1.7c0-13.9-2-15.8-4.4-17.9c-0.9-0.8-1.7-1.6-2.5-2.5l8-7.9
		c0.5,0.6,1.1,1.1,1.6,1.5c4.6,4.2,8.2,8.9,8.2,26.8v1.7c0,6.5,0,10.1-0.5,12.9c-0.9,4.7-4,7.4-8.3,7.4
		C549.3,564.3,537.8,564.6,537.8,564.6z"/>
</g>
</svg>
