<?xml version="1.0" encoding="utf-8"?>
<!-- Generator: Adobe Illustrator 18.1.1, SVG Export Plug-In . SVG Version: 6.00 Build 0)  -->
<svg version="1.1" id="Layer_1" xmlns="http://www.w3.org/2000/svg" xmlns:xlink="http://www.w3.org/1999/xlink" x="0px" y="0px"
	 viewBox="0 0 1000 1008" enable-background="new 0 0 1000 1008" xml:space="preserve">
<g id="_x37_7_Essential_Icons_11_">
	<path id="Message" fill="#2BAA5E" d="M950.3,61.8H413.4c-8.7,0-15.9,7.2-15.9,15.9V435c0,8.7,7.2,15.9,15.9,15.9h117.9
		c0.5,0,0.9,0.4,0.9,0.9v88.9c0,13.5,15.7,20.2,25.4,10.5l101.5-100c0.2-0.2,0.4-0.3,0.7-0.3h290.5c8.7,0,15.9-7.2,15.9-15.9V77.7
		C966.2,68.9,959,61.8,950.3,61.8z M936.3,420c0,0.5-0.4,0.9-0.9,0.9H653.4c-3.7,0-7.5,1.5-10.5,4.5l-79.2,77.8
		c-0.6,0.6-1.6,0.2-1.6-0.7v-65.7c0-8.7-7.2-15.9-15.9-15.9H428.4c-0.5,0-0.9-0.4-0.9-0.9V102.2c0-0.5,0.4-0.9,0.9-0.9l507-9.5
		c0.5,0,0.9,0.4,0.9,0.9V420z"/>
</g>
<rect x="1397" y="349" fill="#FFFFFF" stroke="#2BAA5E" stroke-miterlimit="10" width="310" height="586"/>
<polygon fill="#1B1B1C" points="427.4,102.2 428.4,420.9 546.2,420.9 563.7,503.2 653.4,420.9 936.3,420 936.3,92.6 427.4,92.6 "/>
<g>
	<g>
		<path fill="#2BAA5E" d="M432,530.1c1,0.1,2.3,0.2,3.8,0.2c6.6,0,12.2-1.6,16-5.2c2.9-2.8,4.5-6.9,4.5-11.7c0-4.8-2.1-8.9-5.3-11.4
			c-3.3-2.6-8.2-3.9-15-3.9c-6.8,0-11.6,0.4-15,1v48.5h11V530.1z M432,506.9c0.8-0.2,2.3-0.4,4.6-0.4c5.5,0,8.7,2.7,8.7,7.2
			c0,5-3.6,8-9.6,8c-1.6,0-2.8-0.1-3.7-0.3L432,506.9L432,506.9z"/>
		<path fill="#2BAA5E" d="M411.2,562.9h54.9c6.9,0,12.6-5.6,12.6-12.6v-54.9c0-6.9-5.6-12.6-12.6-12.6h-54.9
			c-6.9,0-12.6,5.6-12.6,12.6v54.9C398.6,557.3,404.3,562.9,411.2,562.9z M408.6,496.2c0-1.9,1.5-3.4,3.4-3.4h53.4
			c1.9,0,3.4,1.5,3.4,3.4v53.4c0,1.9-1.5,3.4-3.4,3.4H412c-1.9,0-3.4-1.5-3.4-3.4V496.2z"/>
		<path fill="#2BAA5E" d="M449.5,628.6c-12.1,0-21.9,9.8-21.9,21.9c0,12.1,9.8,22,21.9,22c12.1,0,21.9-9.8,21.9-22
			C471.5,638.4,461.6,628.6,449.5,628.6z M449.5,657.1c-3.6,0-6.6-3-6.6-6.6c0-3.7,3-6.6,6.6-6.6c3.6,0,6.6,3,6.6,6.6
			C456.1,654.2,453.2,657.1,449.5,657.1z"/>
		<path fill="#2BAA5E" d="M609.3,632.5l-3.6-29.2c-0.7-5.6-5.6-9.7-11.2-9.4l-7.9,0.4l-24.4-22c-2.3-2.1-5.4-3.3-8.6-3.3l-49.6,0
			c-11.1,0-21.9,3.8-30.6,10.8l-27.7,22.2l-37.2,9.3c-4.8,1.2-8.1,5.5-8.1,10.4v10.7c-1.6,0-2.9,1.3-2.9,2.9v14.2
			c0,2,1.6,3.7,3.7,3.7h21c-0.1-0.9-0.3-1.8-0.3-2.7c0-15.3,12.4-27.6,27.6-27.6s27.6,12.4,27.6,27.6c0,0.9-0.2,1.8-0.3,2.7H535
			c-0.1-0.9-0.3-1.8-0.3-2.7c0-15.3,12.4-27.6,27.6-27.6c15.3,0,27.6,12.4,27.6,27.6c0,0.9-0.2,1.8-0.3,2.7h19.6
			c2,0,3.7-1.6,3.7-3.7v-13.4C613,634.2,611.3,632.5,609.3,632.5z M535.7,596.6l-69.2,3.5l13.2-10.7c7.2-5.8,16.1-8.9,25.4-8.9h30.6
			V596.6z M547.2,596v-15.5h4.5c1.6,0,3.1,0.6,4.2,1.6l14.1,12.7L547.2,596z"/>
		<path fill="#2BAA5E" d="M562.4,628.6c-12.1,0-21.9,9.8-21.9,21.9c0,12.1,9.8,22,21.9,22c12.1,0,21.9-9.8,21.9-22
			C584.3,638.4,574.5,628.6,562.4,628.6z M562.4,657.1c-3.6,0-6.6-3-6.6-6.6c0-3.7,3-6.6,6.6-6.6c3.6,0,6.6,3,6.6,6.6
			C569,654.2,566,657.1,562.4,657.1z"/>
	</g>
</g>
</svg>
