<?xml version="1.0" encoding="UTF-8" standalone="no"?>
<svg width="50px" height="20px" viewBox="0 0 50 20" version="1.1" xmlns="http://www.w3.org/2000/svg" xmlns:xlink="http://www.w3.org/1999/xlink" xmlns:sketch="http://www.bohemiancoding.com/sketch/ns">
    <!-- Generator: Sketch 3.3.2 (12043) - http://www.bohemiancoding.com/sketch -->
    <title>Battery</title>
    <desc>Created with Sketch.</desc>
    <defs></defs>
    <g id="Page-1" stroke="none" stroke-width="1" fill="none" fill-rule="evenodd" sketch:type="MSPage">
        <g id="Benz-Cash-Home" sketch:type="MSArtboardGroup" transform="translate(-968.000000, -13.000000)" fill="#FFFFFF">
            <g id="Top-bar" sketch:type="MSLayerGroup" transform="translate(423.000000, 9.000000)">
                <path d="M548.235391,4.22460938 L587.235391,4.22460938 C588.891391,4.22460938 590.235391,5.56660937 590.235391,7.22460938 L590.235391,20.2246094 C590.235391,21.8816094 588.891391,23.2246094 587.235391,23.2246094 L548.235391,23.2246094 C546.578391,23.2246094 545.235391,21.8816094 545.235391,20.2246094 L545.235391,7.22460938 C545.234391,5.56660937 546.577391,4.22460938 548.235391,4.22460938 Z M548.235391,5.22360938 L587.235391,5.22360938 C588.339391,5.22360938 589.235391,6.11960937 589.235391,7.22360938 L589.235391,20.2236094 C589.235391,21.3276094 588.339391,22.2236094 587.235391,22.2236094 L548.235391,22.2236094 C547.131391,22.2236094 546.235391,21.3276094 546.235391,20.2236094 L546.235391,7.22360938 C546.234391,6.11960937 547.130391,5.22360938 548.235391,5.22360938 Z M548.235391,6.22460938 L587.235391,6.22460938 C587.787391,6.22460938 588.235391,6.67160938 588.235391,7.22460938 L588.235391,20.2246094 C588.235391,20.7766094 587.787391,21.2246094 587.235391,21.2246094 L548.235391,21.2246094 C547.682391,21.2246094 547.235391,20.7776094 547.235391,20.2246094 L547.235391,7.22460938 C547.234391,6.67160938 547.682391,6.22460938 548.235391,6.22460938 Z M591.234391,10.2236094 C592.891391,10.2236094 594.234391,11.5676094 594.234391,13.2246094 L594.234391,14.2246094 C594.234391,15.8816094 592.891391,17.2246094 591.234391,17.2246094 L591.234391,10.2236094 Z" id="Battery" sketch:type="MSShapeGroup"></path>
            </g>
        </g>
    </g>
</svg>