<?xml version="1.0" encoding="UTF-8" standalone="no"?>
<svg width="19px" height="19px" viewBox="0 0 19 19" version="1.1" xmlns="http://www.w3.org/2000/svg" xmlns:xlink="http://www.w3.org/1999/xlink" xmlns:sketch="http://www.bohemiancoding.com/sketch/ns">
    <!-- Generator: Sketch 3.3.2 (12043) - http://www.bohemiancoding.com/sketch -->
    <title>bitcoin38 white</title>
    <desc>Created with Sketch.</desc>
    <defs></defs>
    <g id="Page-1" stroke="none" stroke-width="1" fill="none" fill-rule="evenodd" sketch:type="MSPage">
        <g id="Benz-Cash-Home" sketch:type="MSArtboardGroup" transform="translate(-939.000000, -13.000000)" fill="#FCFCFC">
            <g id="Top-bar" sketch:type="MSLayerGroup" transform="translate(423.000000, 9.000000)">
                <g id="bitcoin38-white" transform="translate(525.500000, 13.500000) rotate(-34.000000) translate(-525.500000, -13.500000) translate(516.000000, 4.000000)" sketch:type="MSShapeGroup">
                    <path d="M1.805,9.7375 C1.6625,9.7375 1.5675,9.6425 1.5675,9.5 L1.5675,9.5 C1.5675,8.6925 1.71,7.8375 1.9475,7.0775 C1.995,6.935 2.1375,6.8875 2.2325,6.935 C2.375,6.9825 2.4225,7.125 2.375,7.22 C2.1375,7.9325 1.995,8.74 1.995,9.5 C2.0425,9.6425 1.9475,9.7375 1.805,9.7375 L1.805,9.7375 Z M11.8275,16.5775 C11.0675,16.815 10.3075,16.9575 9.5475,16.9575 C9.405,16.9575 9.31,17.0525 9.31,17.195 C9.31,17.3375 9.405,17.4325 9.5475,17.4325 L9.5475,17.4325 C10.4025,17.4325 11.21,17.29 11.97,17.0525 C12.1125,17.005 12.16,16.8625 12.1125,16.7675 C12.065,16.625 11.9225,16.53 11.8275,16.5775 L11.8275,16.5775 Z M2.4225,11.8275 C2.375,11.685 2.2325,11.6375 2.1375,11.685 C1.995,11.7325 1.9475,11.875 1.995,11.97 C2.2325,12.7775 2.6125,13.49 3.135,14.155 C3.1825,14.2025 3.23,14.25 3.325,14.25 C3.3725,14.25 3.42,14.25 3.4675,14.2025 C3.5625,14.1075 3.61,13.965 3.515,13.87 C3.04,13.2525 2.66,12.54 2.4225,11.8275 L2.4225,11.8275 Z M11.78,2.4225 C12.54,2.66 13.205,2.9925 13.87,3.4675 C13.9175,3.515 13.965,3.515 14.0125,3.515 C14.1075,3.515 14.155,3.4675 14.2025,3.42 C14.2975,3.325 14.25,3.1825 14.155,3.0875 C13.49,2.6125 12.73,2.2325 11.97,1.9475 C11.8275,1.9 11.7325,1.995 11.685,2.09 C11.59,2.2325 11.6375,2.375 11.78,2.4225 L11.78,2.4225 Z M3.2775,5.225 C3.3725,5.225 3.42,5.1775 3.4675,5.13 C3.9425,4.5125 4.465,3.9425 5.13,3.4675 C5.225,3.3725 5.2725,3.23 5.1775,3.135 C5.0825,3.04 4.94,2.9925 4.845,3.0875 C4.18,3.5625 3.61,4.18 3.0875,4.845 C2.9925,4.94 3.04,5.0825 3.135,5.1775 C3.1825,5.225 3.23,5.225 3.2775,5.225 L3.2775,5.225 Z M7.125,2.4225 L7.22,2.4225 C7.98,2.185 8.74,2.0425 9.5,2.0425 C9.6425,2.0425 9.7375,1.9475 9.7375,1.805 C9.7375,1.6625 9.6425,1.5675 9.5,1.5675 L9.5,1.5675 C8.645,1.5675 7.8375,1.71 7.0775,1.9475 C6.935,1.995 6.8875,2.1375 6.935,2.2325 C6.935,2.375 7.03,2.4225 7.125,2.4225 L7.125,2.4225 Z M7.22,16.5775 C6.46,16.34 5.795,15.96 5.13,15.5325 C5.035,15.4375 4.8925,15.485 4.7975,15.58 C4.7025,15.675 4.75,15.8175 4.845,15.9125 C5.51,16.3875 6.27,16.7675 7.03,17.0525 L7.125,17.0525 C7.22,17.0525 7.315,17.005 7.3625,16.91 C7.41,16.7675 7.315,16.625 7.22,16.5775 L7.22,16.5775 Z M15.5325,13.87 C15.0575,14.4875 14.535,15.0575 13.87,15.5325 C13.775,15.6275 13.7275,15.77 13.8225,15.865 C13.87,15.9125 13.9175,15.96 14.0125,15.96 C14.06,15.96 14.1075,15.96 14.155,15.9125 C14.82,15.4375 15.4375,14.82 15.9125,14.155 C16.0075,14.06 15.96,13.9175 15.865,13.8225 C15.7225,13.7275 15.58,13.775 15.5325,13.87 L15.5325,13.87 Z M17.195,9.2625 C17.0525,9.2625 16.9575,9.405 16.9575,9.5 C16.9575,10.3075 16.815,11.0675 16.5775,11.78 C16.53,11.9225 16.625,12.0175 16.72,12.065 L16.815,12.065 C16.91,12.065 17.005,12.0175 17.0525,11.9225 C17.29,11.115 17.4325,10.3075 17.4325,9.5 L17.4325,9.4525 C17.4325,9.3575 17.29,9.2625 17.195,9.2625 L17.195,9.2625 Z M16.5775,7.1725 C16.625,7.2675 16.72,7.315 16.815,7.315 L16.91,7.315 C17.0525,7.2675 17.1,7.125 17.0525,7.03 C16.815,6.2225 16.3875,5.51 15.9125,4.845 C15.8175,4.75 15.675,4.7025 15.58,4.7975 C15.485,4.8925 15.4375,5.035 15.5325,5.13 C15.96,5.7475 16.34,6.4125 16.5775,7.1725 L16.5775,7.1725 Z M19,9.5 C19,14.725 14.725,19 9.5,19 C4.275,19 0,14.725 0,9.5 C0,4.275 4.275,0 9.5,0 C14.725,0 19,4.275 19,9.5 L19,9.5 Z M18.05,9.5 C18.05,4.7975 14.2025,0.95 9.5,0.95 C4.7975,0.95 0.95,4.7975 0.95,9.5 C0.95,14.2025 4.7975,18.05 9.5,18.05 C14.2025,18.05 18.05,14.2025 18.05,9.5 L18.05,9.5 Z M10.3075,9.88 C10.165,9.8325 9.9275,9.785 9.595,9.785 L8.835,9.785 L8.835,11.02 L8.835,11.305 C8.835,11.3525 8.8825,11.3525 8.8825,11.4 L9.12,11.4 L9.5475,11.4 C9.785,11.4 9.975,11.4 10.165,11.3525 C10.3075,11.305 10.45,11.21 10.5925,11.0675 C10.6875,10.925 10.7825,10.735 10.7825,10.545 C10.7825,10.355 10.735,10.2125 10.6875,10.1175 C10.5925,10.0225 10.45,9.9275 10.3075,9.88 L10.3075,9.88 Z M16.34,9.5 C16.34,13.3 13.2525,16.34 9.5,16.34 C5.7,16.34 2.66,13.2525 2.66,9.5 C2.66,5.7 5.7475,2.66 9.5,2.66 C13.3,2.66 16.34,5.7 16.34,9.5 L16.34,9.5 Z M12.255,10.735 C12.255,10.4975 12.2075,10.26 12.065,10.0225 C11.9225,9.8325 11.78,9.6425 11.59,9.5475 C11.4475,9.4525 11.2575,9.405 10.9725,9.31 C11.21,9.215 11.4475,9.12 11.59,8.9775 C11.7325,8.835 11.875,8.6925 11.9225,8.55 C12.0175,8.36 12.065,8.2175 12.065,8.0275 C12.065,7.79 11.97,7.505 11.8275,7.315 C11.685,7.0775 11.4475,6.935 11.1625,6.7925 C11.0675,6.745 10.925,6.6975 10.7825,6.6975 L10.7825,5.7 L9.8325,5.7 L9.8325,6.65 L9.215,6.65 L9.215,5.7 L8.265,5.7 L8.265,6.65 L6.7925,6.65 L6.7925,7.4575 L7.03,7.4575 C7.1725,7.4575 7.2675,7.4575 7.315,7.505 C7.3625,7.5525 7.41,7.5525 7.41,7.6 C7.41,7.6475 7.4575,7.7425 7.4575,7.9325 L7.4575,11.115 C7.4575,11.305 7.4575,11.4 7.41,11.4475 C7.41,11.495 7.3625,11.5425 7.315,11.5425 C7.2675,11.59 7.1725,11.59 7.03,11.59 L6.7925,11.59 L6.7925,12.3975 L8.265,12.3975 L8.265,13.3475 L9.215,13.3475 L9.215,12.3975 L9.785,12.3975 L9.88,12.3975 L9.88,13.3475 L10.83,13.3475 L10.83,12.3025 C10.9725,12.255 11.115,12.255 11.2575,12.16 C11.59,12.0175 11.8275,11.8275 12.0175,11.59 C12.16,11.305 12.255,11.02 12.255,10.735 L12.255,10.735 Z M10.2125,8.8825 C10.355,8.835 10.4975,8.74 10.545,8.645 C10.64,8.55 10.64,8.4075 10.64,8.265 C10.64,8.1225 10.5925,7.98 10.545,7.885 C10.45,7.79 10.355,7.695 10.2125,7.6475 C10.07,7.6 9.8325,7.6 9.4525,7.6 L8.835,7.6 L8.835,8.9775 L9.4525,8.9775 C9.785,8.9775 10.0225,8.93 10.2125,8.8825 L10.2125,8.8825 Z" id="Shape"></path>
                </g>
            </g>
        </g>
    </g>
</svg>