<?xml version="1.0" encoding="UTF-8" standalone="no"?>
<svg width="65px" height="43px" viewBox="0 0 65 43" version="1.1" xmlns="http://www.w3.org/2000/svg" xmlns:xlink="http://www.w3.org/1999/xlink" xmlns:sketch="http://www.bohemiancoding.com/sketch/ns">
    <!-- Generator: Sketch 3.3.2 (12043) - http://www.bohemiancoding.com/sketch -->
    <title>bitcoin61 - white</title>
    <desc>Created with Sketch.</desc>
    <defs></defs>
    <g id="Page-1" stroke="none" stroke-width="1" fill="none" fill-rule="evenodd" sketch:type="MSPage">
        <g id="Benz-Cash-Home" sketch:type="MSArtboardGroup" transform="translate(-664.000000, -697.000000)" fill="#FCFCFC">
            <g id="Tap-bar" sketch:type="MSLayerGroup" transform="translate(-1.000000, 667.000000)">
                <g id="bitcoin61---white" transform="translate(665.695312, 30.000000)" sketch:type="MSShapeGroup">
                    <path d="M24.5637227,19.0941772 C24.7430199,19.2727089 24.7430199,19.6297722 24.7430199,19.8083038 C24.7430199,20.1653671 24.5637227,20.5224304 24.3844255,20.700962 C24.2051282,20.8794937 24.025831,21.0580253 23.6672365,21.236557 C23.308642,21.236557 23.1293447,21.4150886 22.591453,21.4150886 L21.874264,21.4150886 L21.5156695,21.4150886 C21.5156695,21.4150886 21.3363723,21.4150886 21.3363723,21.236557 L21.3363723,20.700962 L21.3363723,18.5585823 L22.591453,18.5585823 C23.1293447,18.5585823 23.4879392,18.5585823 23.8465337,18.7371139 C24.2051282,18.7371139 24.5637227,18.9156456 24.5637227,19.0941772 L24.5637227,19.0941772 Z M34.4250712,18.0229873 C34.4250712,24.4501266 29.0461538,29.8060759 22.591453,29.8060759 C16.1367521,29.8060759 10.7578348,24.4501266 10.7578348,18.0229873 C10.7578348,11.5958481 16.1367521,6.23989873 22.591453,6.23989873 C29.0461538,6.23989873 34.4250712,11.4173165 34.4250712,18.0229873 L34.4250712,18.0229873 Z M27.4324786,20.1653671 C27.4324786,19.8083038 27.2531814,19.2727089 27.0738841,18.9156456 C26.8945869,18.5585823 26.5359924,18.201519 26.1773979,18.0229873 C25.9981007,17.8444557 25.6395062,17.6659241 25.1016144,17.6659241 C25.4602089,17.4873924 25.8188034,17.3088608 26.1773979,17.1303291 C26.3566952,16.9517975 26.7152896,16.5947342 26.7152896,16.4162025 C26.8945869,16.0591392 26.8945869,15.8806076 26.8945869,15.5235443 C26.8945869,15.166481 26.7152896,14.6308861 26.5359924,14.2738228 C26.3566952,13.9167595 25.8188034,13.5596962 25.4602089,13.3811646 C25.2809117,13.3811646 25.1016144,13.2026329 24.7430199,13.2026329 L24.7430199,11.4173165 L23.1293447,11.4173165 L23.1293447,13.0241013 L22.0535613,13.0241013 L22.0535613,11.4173165 L20.439886,11.4173165 L20.439886,13.0241013 L17.9297246,13.0241013 L17.9297246,14.4523544 L18.2883191,14.4523544 L18.8262108,14.4523544 C19.0055081,14.4523544 19.0055081,14.6308861 19.0055081,14.6308861 L19.0055081,15.166481 L19.0055081,20.700962 L19.0055081,21.236557 L18.8262108,21.4150886 L18.2883191,21.4150886 L17.9297246,21.4150886 L17.9297246,22.8433418 L20.439886,22.8433418 L20.439886,24.4501266 L22.0535613,24.4501266 L22.0535613,22.8433418 L22.9500475,22.8433418 L23.1293447,22.8433418 L23.1293447,24.4501266 L24.7430199,24.4501266 L24.7430199,22.6648101 C25.1016144,22.6648101 25.2809117,22.4862785 25.4602089,22.4862785 C25.9981007,22.3077468 26.5359924,21.9506835 26.7152896,21.4150886 C27.2531814,21.0580253 27.4324786,20.700962 27.4324786,20.1653671 L27.4324786,20.1653671 Z M23.8465337,16.9517975 C24.2051282,16.7732658 24.3844255,16.7732658 24.3844255,16.5947342 C24.5637227,16.4162025 24.5637227,16.2376709 24.5637227,15.8806076 C24.5637227,15.7020759 24.5637227,15.3450127 24.3844255,15.166481 C24.2051282,14.9879494 24.025831,14.8094177 23.8465337,14.8094177 C23.6672365,14.8094177 23.1293447,14.6308861 22.591453,14.6308861 L21.5156695,14.6308861 L21.5156695,16.9517975 L22.591453,16.9517975 C23.1293447,17.1303291 23.4879392,16.9517975 23.8465337,16.9517975 L23.8465337,16.9517975 Z M63.4712251,29.9846076 C63.4712251,36.9473418 57.9130104,42.4818228 50.9204179,42.4818228 L12.5508072,42.4818228 C5.55821462,42.4818228 0,36.9473418 0,29.9846076 C0,26.0569114 1.97226971,22.3077468 5.19962013,19.9868354 C5.19962013,19.2727089 5.02032289,18.7371139 5.02032289,18.0229873 C5.02032289,8.38227848 12.9094017,0.526886076 22.591453,0.526886076 C29.9426401,0.526886076 36.5766382,5.16870886 39.0867996,11.7743797 C40.5211776,11.2387848 41.9555556,10.8817215 43.5692308,10.8817215 C48.4102564,10.8817215 52.8926876,13.7382278 54.8649573,18.0229873 C59.8852802,19.8083038 63.4712251,24.6286582 63.4712251,29.9846076 L63.4712251,29.9846076 Z M59.8852802,29.9846076 C59.8852802,25.8783797 57.1958215,22.3077468 53.2512821,21.4150886 C52.7133903,21.236557 52.1754986,20.8794937 51.9962013,20.3438987 C50.7411206,16.9517975 47.3344729,14.6308861 43.5692308,14.6308861 C41.9555556,14.6308861 40.3418803,14.9879494 38.9075024,15.8806076 C38.3696106,16.2376709 37.8317189,16.2376709 37.2938272,16.0591392 C36.7559354,15.8806076 36.3973409,15.3450127 36.2180437,14.8094177 C34.6043685,8.56081013 29.0461538,4.09751899 22.591453,4.09751899 C14.8816714,4.09751899 8.60626781,10.3461266 8.60626781,18.0229873 C8.60626781,18.7371139 8.60626781,19.6297722 8.78556505,20.5224304 C8.9648623,21.236557 8.60626781,21.9506835 7.88907882,22.3077468 C5.19962013,23.9145316 3.58594492,26.771038 3.58594492,29.9846076 C3.58594492,34.9834937 7.53048433,38.9111899 12.5508072,38.9111899 L50.9204179,38.9111899 C55.7614435,38.9111899 59.8852802,34.9834937 59.8852802,29.9846076 L59.8852802,29.9846076 Z M58.0923077,29.0919494 C57.554416,29.0919494 57.1958215,29.4490127 57.1958215,29.9846076 C57.1958215,33.3767089 54.3270655,36.2332152 50.9204179,36.2332152 L45.5415005,36.2332152 C45.0036087,36.2332152 44.6450142,36.5902785 44.6450142,37.1258734 C44.6450142,37.6614684 45.0036087,38.0185316 45.5415005,38.0185316 L50.9204179,38.0185316 C55.402849,38.0185316 58.9887939,34.4478987 58.9887939,29.9846076 C58.9887939,29.4490127 58.4509022,29.0919494 58.0923077,29.0919494 L58.0923077,29.0919494 Z M49.3067426,21.236557 L50.0239316,23.0218734 C50.2032289,23.3789367 50.3825261,23.5574684 50.5618234,23.5574684 L52.3547958,24.0930633 C53.2512821,24.2715949 54.1477683,24.8071899 54.8649573,25.3427848 C55.0442545,25.5213165 55.2235518,25.5213165 55.402849,25.5213165 C55.5821462,25.5213165 55.9407407,25.3427848 56.120038,25.1642532 C56.4786325,24.8071899 56.4786325,24.2715949 55.9407407,23.9145316 C55.0442545,23.2004051 53.968471,22.4862785 52.7133903,22.3077468 L51.4583096,21.9506835 L50.9204179,20.700962 C49.6653371,17.6659241 46.617284,15.5235443 43.3899335,15.5235443 C41.9555556,15.5235443 40.5211776,15.8806076 39.2660969,16.5947342 C38.9075024,16.7732658 38.7282051,17.3088608 38.9075024,17.8444557 C39.0867996,18.201519 39.6246914,18.3800506 40.1625831,18.201519 C41.0590693,17.6659241 42.31415,17.3088608 43.3899335,17.3088608 C46.0793922,17.1303291 48.4102564,18.7371139 49.3067426,21.236557 L49.3067426,21.236557 Z" id="Shape"></path>
                </g>
            </g>
        </g>
    </g>
</svg>