<?xml version="1.0" encoding="UTF-8" standalone="no"?>
<svg width="65px" height="43px" viewBox="0 0 65 43" version="1.1" xmlns="http://www.w3.org/2000/svg" xmlns:xlink="http://www.w3.org/1999/xlink" xmlns:sketch="http://www.bohemiancoding.com/sketch/ns">
    <!-- Generator: Sketch 3.3.2 (12043) - http://www.bohemiancoding.com/sketch -->
    <title>Shape</title>
    <desc>Created with Sketch.</desc>
    <defs></defs>
    <g id="Page-1" stroke="none" stroke-width="1" fill="none" fill-rule="evenodd" sketch:type="MSPage">
        <g id="Payment-Settings-Disbabled" sketch:type="MSArtboardGroup" transform="translate(-665.000000, -697.000000)" fill="#D0021B">
            <g id="Tap-bar" sketch:type="MSLayerGroup" transform="translate(-2.000000, 669.000000)">
                <g id="Tap-Bar-1-Copy" sketch:type="MSShapeGroup">
                    <g id="Icons-(Red)" transform="translate(50.843994, 28.346535)">
                        <path d="M641.415041,18.7476426 C641.594339,18.9261742 641.594339,19.2832375 641.594339,19.4617691 C641.594339,19.8188324 641.415041,20.1758957 641.235744,20.3544274 C641.056447,20.532959 640.87715,20.7114907 640.518555,20.8900223 C640.159961,20.8900223 639.980663,21.068554 639.442772,21.068554 L638.725583,21.068554 L638.366988,21.068554 C638.366988,21.068554 638.187691,21.068554 638.187691,20.8900223 L638.187691,20.3544274 L638.187691,18.2120476 L639.442772,18.2120476 C639.980663,18.2120476 640.339258,18.2120476 640.697852,18.3905793 C641.056447,18.3905793 641.415041,18.5691109 641.415041,18.7476426 L641.415041,18.7476426 Z M651.27639,17.6764527 C651.27639,24.1035919 645.897473,29.4595413 639.442772,29.4595413 C632.988071,29.4595413 627.609153,24.1035919 627.609153,17.6764527 C627.609153,11.2493134 632.988071,5.89336408 639.442772,5.89336408 C645.897473,5.89336408 651.27639,11.0707818 651.27639,17.6764527 L651.27639,17.6764527 Z M644.283797,19.8188324 C644.283797,19.4617691 644.1045,18.9261742 643.925203,18.5691109 C643.745906,18.2120476 643.387311,17.8549843 643.028717,17.6764527 C642.849419,17.497921 642.490825,17.3193894 641.952933,17.3193894 C642.311528,17.1408578 642.670122,16.9623261 643.028717,16.7837945 C643.208014,16.6052628 643.566608,16.2481995 643.566608,16.0696679 C643.745906,15.7126046 643.745906,15.5340729 643.745906,15.1770097 C643.745906,14.8199464 643.566608,14.2843514 643.387311,13.9272881 C643.208014,13.5702248 642.670122,13.2131615 642.311528,13.0346299 C642.13223,13.0346299 641.952933,12.8560983 641.594339,12.8560983 L641.594339,11.0707818 L639.980663,11.0707818 L639.980663,12.6775666 L638.90488,12.6775666 L638.90488,11.0707818 L637.291205,11.0707818 L637.291205,12.6775666 L634.781043,12.6775666 L634.781043,14.1058198 L635.139638,14.1058198 L635.67753,14.1058198 C635.856827,14.1058198 635.856827,14.2843514 635.856827,14.2843514 L635.856827,14.8199464 L635.856827,20.3544274 L635.856827,20.8900223 L635.67753,21.068554 L635.139638,21.068554 L634.781043,21.068554 L634.781043,22.4968071 L637.291205,22.4968071 L637.291205,24.1035919 L638.90488,24.1035919 L638.90488,22.4968071 L639.801366,22.4968071 L639.980663,22.4968071 L639.980663,24.1035919 L641.594339,24.1035919 L641.594339,22.3182755 C641.952933,22.3182755 642.13223,22.1397438 642.311528,22.1397438 C642.849419,21.9612122 643.387311,21.6041489 643.566608,21.068554 C644.1045,20.7114907 644.283797,20.3544274 644.283797,19.8188324 L644.283797,19.8188324 Z M640.697852,16.6052628 C641.056447,16.4267312 641.235744,16.4267312 641.235744,16.2481995 C641.415041,16.0696679 641.415041,15.8911362 641.415041,15.5340729 C641.415041,15.3555413 641.415041,14.998478 641.235744,14.8199464 C641.056447,14.6414147 640.87715,14.4628831 640.697852,14.4628831 C640.518555,14.4628831 639.980663,14.2843514 639.442772,14.2843514 L638.366988,14.2843514 L638.366988,16.6052628 L639.442772,16.6052628 C639.980663,16.7837945 640.339258,16.6052628 640.697852,16.6052628 L640.697852,16.6052628 Z M680.322544,29.6380729 C680.322544,36.6008071 674.764329,42.1352881 667.771737,42.1352881 L629.402126,42.1352881 C622.409533,42.1352881 616.851319,36.6008071 616.851319,29.6380729 C616.851319,25.7103767 618.823588,21.9612122 622.050939,19.6403008 C622.050939,18.9261742 621.871642,18.3905793 621.871642,17.6764527 C621.871642,8.03574383 629.76072,0.180351422 639.442772,0.180351422 C646.793959,0.180351422 653.427957,4.82217421 655.938118,11.4278451 C657.372496,10.8922502 658.806874,10.5351869 660.42055,10.5351869 C665.261575,10.5351869 669.744006,13.3916932 671.716276,17.6764527 C676.736599,19.4617691 680.322544,24.2821236 680.322544,29.6380729 L680.322544,29.6380729 Z M676.736599,29.6380729 C676.736599,25.5318451 674.04714,21.9612122 670.102601,21.068554 C669.564709,20.8900223 669.026817,20.532959 668.84752,19.9973641 C667.592439,16.6052628 664.185792,14.2843514 660.42055,14.2843514 C658.806874,14.2843514 657.193199,14.6414147 655.758821,15.5340729 C655.220929,15.8911362 654.683038,15.8911362 654.145146,15.7126046 C653.607254,15.5340729 653.24866,14.998478 653.069362,14.4628831 C651.455687,8.21427547 645.897473,3.75098433 639.442772,3.75098433 C631.73299,3.75098433 625.457587,9.99959193 625.457587,17.6764527 C625.457587,18.3905793 625.457587,19.2832375 625.636884,20.1758957 C625.816181,20.8900223 625.457587,21.6041489 624.740398,21.9612122 C622.050939,23.567997 620.437264,26.4245033 620.437264,29.6380729 C620.437264,34.636959 624.381803,38.5646552 629.402126,38.5646552 L667.771737,38.5646552 C672.612762,38.5646552 676.736599,34.636959 676.736599,29.6380729 L676.736599,29.6380729 Z M674.943626,28.7454147 C674.405735,28.7454147 674.04714,29.102478 674.04714,29.6380729 C674.04714,33.0301742 671.178384,35.8866805 667.771737,35.8866805 L662.392819,35.8866805 C661.854927,35.8866805 661.496333,36.2437438 661.496333,36.7793388 C661.496333,37.3149337 661.854927,37.671997 662.392819,37.671997 L667.771737,37.671997 C672.254168,37.671997 675.840113,34.1013641 675.840113,29.6380729 C675.840113,29.102478 675.302221,28.7454147 674.943626,28.7454147 L674.943626,28.7454147 Z M666.158061,20.8900223 L666.87525,22.6753388 C667.054548,23.0324021 667.233845,23.2109337 667.413142,23.2109337 L669.206115,23.7465286 C670.102601,23.9250603 670.999087,24.4606552 671.716276,24.9962502 C671.895573,25.1747818 672.07487,25.1747818 672.254168,25.1747818 C672.433465,25.1747818 672.792059,24.9962502 672.971357,24.8177185 C673.329951,24.4606552 673.329951,23.9250603 672.792059,23.567997 C671.895573,22.8538704 670.81979,22.1397438 669.564709,21.9612122 L668.309628,21.6041489 L667.771737,20.3544274 C666.516656,17.3193894 663.468603,15.1770097 660.241252,15.1770097 C658.806874,15.1770097 657.372496,15.5340729 656.117416,16.2481995 C655.758821,16.4267312 655.579524,16.9623261 655.758821,17.497921 C655.938118,17.8549843 656.47601,18.033516 657.013902,17.8549843 C657.910388,17.3193894 659.165469,16.9623261 660.241252,16.9623261 C662.930711,16.7837945 665.261575,18.3905793 666.158061,20.8900223 L666.158061,20.8900223 Z" id="Shape"></path>
                    </g>
                </g>
            </g>
        </g>
    </g>
</svg>