<?xml version="1.0" encoding="UTF-8" standalone="no"?>
<svg width="28px" height="28px" viewBox="0 0 28 28" version="1.1" xmlns="http://www.w3.org/2000/svg" xmlns:xlink="http://www.w3.org/1999/xlink" xmlns:sketch="http://www.bohemiancoding.com/sketch/ns">
    <!-- Generator: Sketch 3.3.2 (12043) - http://www.bohemiancoding.com/sketch -->
    <title>Flag Copy</title>
    <desc>Created with Sketch.</desc>
    <defs></defs>
    <g id="Page-1" stroke="none" stroke-width="1" fill="none" fill-rule="evenodd" sketch:type="MSPage">
        <g id="Payment-Settings-Disbabled" sketch:type="MSArtboardGroup" transform="translate(-305.000000, -705.000000)" fill="#D0021B">
            <g id="Tap-bar" sketch:type="MSLayerGroup" transform="translate(-2.000000, 669.000000)">
                <g id="Tap-Bar-1-Copy" sketch:type="MSShapeGroup">
                    <g id="Icons-(Red)" transform="translate(50.843994, 28.346535)">
                        <path d="M283.991139,22.310099 L280.70642,11.9503861 C280.539941,11.4357822 280.043495,11.0593861 279.457329,11.0593861 C279.251972,11.0593861 279.060571,11.103495 278.890105,11.1848515 C276.596284,12.1356436 273.532872,11.3397228 270.749583,9.6920099 C267.784863,7.93647525 264.114351,7.27582178 261.41181,8.67064356 C261.336047,8.70985149 261.266265,8.74807921 261.198477,8.78728713 C260.655178,9.12545545 260.296301,9.71651485 260.296301,10.3869703 C260.296301,10.5281188 260.312251,10.6653465 260.343154,10.7966931 L260.436861,11.0956535 L263.873106,21.9327228 L263.939897,22.1375842 C264.131298,22.6041584 264.602822,22.933505 265.1531,22.933505 C265.351479,22.933505 265.538892,22.8913564 265.706368,22.8139208 C265.766181,22.7805941 265.824,22.7482475 265.88481,22.7168812 C268.591339,21.2808911 272.014624,21.7905941 275.202646,23.7304059 C277.576217,25.176198 280.596763,25.5986634 282.871643,24.6890396 C283.611328,24.379297 284.097805,23.7068812 284.097805,22.9256634 C284.095811,22.7511881 284.071886,22.5825941 284.02603,22.4218416 L283.991139,22.310099 Z M258.867772,9.82041584 C258.644471,9.11957426 257.880861,8.72749505 257.158123,8.94215842 C256.437379,9.15780198 256.031649,9.89981188 256.25495,10.6006535 L263.818278,34.4331881 C264.036594,35.1222673 264.783257,35.5143465 265.49503,35.3192871 L265.561821,35.2996832 C266.26163,35.0703168 266.650413,34.3400693 266.43409,33.6519703 L258.867772,9.82041584 Z" id="Flag-Copy"></path>
                    </g>
                </g>
            </g>
        </g>
    </g>
</svg>