<?xml version="1.0" encoding="UTF-8" standalone="no"?>
<svg width="31px" height="30px" viewBox="0 0 31 30" version="1.1" xmlns="http://www.w3.org/2000/svg" xmlns:xlink="http://www.w3.org/1999/xlink" xmlns:sketch="http://www.bohemiancoding.com/sketch/ns">
    <!-- Generator: Sketch 3.3.2 (12043) - http://www.bohemiancoding.com/sketch -->
    <title>Home Copy</title>
    <desc>Created with Sketch.</desc>
    <defs></defs>
    <g id="Page-1" stroke="none" stroke-width="1" fill="none" fill-rule="evenodd" sketch:type="MSPage">
        <g id="Payment-Settings-Disbabled" sketch:type="MSArtboardGroup" transform="translate(-48.000000, -704.000000)" fill="#D0021B">
            <g id="Tap-bar" sketch:type="MSLayerGroup" transform="translate(-2.000000, 669.000000)">
                <g id="Tap-Bar-1-Copy" sketch:type="MSShapeGroup">
                    <g id="Icons-(Red)" transform="translate(50.843994, 28.346535)">
                        <path d="M16.306961,7.33463366 C15.9381154,7.09056436 15.4655944,6.94549505 14.9502075,6.94549505 C14.4388081,6.94549505 13.9642933,7.09056436 13.5974415,7.33463366 C13.5974415,7.33463366 1.00485491,16.9190099 0.765603744,17.0944653 C0.301057722,17.4777228 0.00996879875,18.0501584 0.00996879875,18.6882673 L0.00996879875,19.2930495 L0.00996879875,31.4935743 L0.00996879875,34.2763564 C0.00996879875,35.4271089 0.96198908,36.3612376 2.13830733,36.3612376 L7.8464415,36.3612376 C9.02375663,36.3612376 9.97876755,35.4280891 9.97876755,34.2763564 L9.97876755,26.6651188 C9.97876755,25.5124059 10.9327816,24.5802376 12.1090998,24.5802376 L17.7943058,24.5802376 C18.9716209,24.5802376 19.9266318,25.5133861 19.9266318,26.6651188 L19.9266318,34.2763564 C19.9266318,35.4290693 20.879649,36.3612376 22.0569641,36.3612376 L27.7650983,36.3612376 C28.9424134,36.3612376 29.8954306,35.4261287 29.8954306,34.2763564 L29.8954306,31.4935743 L29.8954306,19.2930495 L29.8954306,18.8176535 L29.8954306,18.5324158 C29.8605398,18.0129109 29.6302605,17.5453564 29.2763682,17.1993465 L16.306961,7.33463366 Z" id="Home-Copy"></path>
                    </g>
                </g>
            </g>
        </g>
    </g>
</svg>