<?xml version="1.0" encoding="UTF-8" standalone="no"?>
<svg width="36px" height="26px" viewBox="0 0 36 26" version="1.1" xmlns="http://www.w3.org/2000/svg" xmlns:xlink="http://www.w3.org/1999/xlink" xmlns:sketch="http://www.bohemiancoding.com/sketch/ns">
    <!-- Generator: Sketch 3.3.2 (12043) - http://www.bohemiancoding.com/sketch -->
    <title>transport122 white</title>
    <desc>Created with Sketch.</desc>
    <defs></defs>
    <g id="Page-1" stroke="none" stroke-width="1" fill="none" fill-rule="evenodd" sketch:type="MSPage">
        <g id="Benz-Cash-Home" sketch:type="MSArtboardGroup" transform="translate(-814.000000, -706.000000)" fill="#FCFCFC">
            <g id="Tap-bar" sketch:type="MSLayerGroup" transform="translate(-1.000000, 668.000000)">
                <g id="transport122-white" transform="translate(815.000000, 38.000000)" sketch:type="MSShapeGroup">
                    <path d="M25.5312,10.6077135 C25.416,10.6077135 25.2972,10.6256198 25.1784,10.6578512 L23.832,11.0267218 L22.4352,7.64600551 C22.0392,6.68980716 20.8728,5.90909091 19.8324,5.90909091 L6.7752,5.90909091 C5.7348,5.90909091 4.5648,6.68980716 4.1724,7.64600551 L2.7792,11.0231405 L1.4508,10.6578512 C1.332,10.6256198 1.2132,10.6077135 1.098,10.6077135 C0.4644,10.6077135 0.0036,11.0911846 0.0036,11.753719 L0.0036,12.5415978 C0.0036,13.3187328 0.6372,13.9490358 1.4184,13.9490358 L1.5696,13.9490358 L1.3428,14.4933884 C0.9756,15.3815427 0.6768,16.8892562 0.6768,17.8526171 L0.6768,24.5710744 C0.6768,25.3482094 1.3104,25.9785124 2.0916,25.9785124 L3.9384,25.9785124 C4.7196,25.9785124 5.3532,25.3482094 5.3532,24.5710744 L5.3532,22.8950413 L21.2508,22.8950413 L21.2508,24.5710744 C21.2508,25.3482094 21.8844,25.9785124 22.6656,25.9785124 L24.516,25.9785124 C25.2972,25.9785124 25.9308,25.3482094 25.9308,24.5710744 L25.9308,17.8561983 C25.9308,16.8928375 25.632,15.3887052 25.2648,14.4969697 L25.038,13.9526171 L25.2072,13.9526171 C25.9884,13.9526171 26.622,13.322314 26.622,12.5451791 L26.622,11.7573003 C26.6256,11.0911846 26.1648,10.6077135 25.5312,10.6077135 L25.5312,10.6077135 Z M3.7908,13.1862259 L5.9004,8.07217631 C6.138,7.49917355 6.84,7.03002755 7.4628,7.03002755 L19.1412,7.03002755 C19.764,7.03002755 20.466,7.49917355 20.7036,8.07217631 L22.8132,13.1862259 C23.0508,13.7592287 22.734,14.2283747 22.1112,14.2283747 L4.4928,14.2283747 C3.87,14.2283747 3.5532,13.7592287 3.7908,13.1862259 L3.7908,13.1862259 Z M8.5032,19.6539945 C8.5032,19.9619835 8.2476,20.2162534 7.938,20.2162534 L3.9276,20.2162534 C3.618,20.2162534 3.3624,19.9619835 3.3624,19.6539945 L3.3624,17.7415978 C3.3624,17.4336088 3.618,17.1793388 3.9276,17.1793388 L7.938,17.1793388 C8.2476,17.1793388 8.5032,17.4336088 8.5032,17.7415978 L8.5032,19.6539945 L8.5032,19.6539945 Z M23.2092,19.6539945 C23.2092,19.9619835 22.9536,20.2162534 22.644,20.2162534 L18.6336,20.2162534 C18.324,20.2162534 18.0684,19.9619835 18.0684,19.6539945 L18.0684,17.7415978 C18.0684,17.4336088 18.324,17.1793388 18.6336,17.1793388 L22.644,17.1793388 C22.9536,17.1793388 23.2092,17.4336088 23.2092,17.7415978 L23.2092,19.6539945 L23.2092,19.6539945 Z" id="Shape"></path>
                    <g id="Group" transform="translate(25.740000, 0.000000)">
                        <path d="M8.4888,0.0214876033 L1.7892,0.0214876033 C0.8136,0.0214876033 0.018,0.812947658 0.018,1.78347107 L0.018,8.45179063 C0.018,9.42231405 0.8136,10.2137741 1.7892,10.2137741 L4.4784,10.2137741 L4.4784,25.1763085 C4.4784,25.5380165 4.7736,25.8316804 5.1372,25.8316804 C5.5008,25.8316804 5.796,25.5380165 5.796,25.1763085 L5.796,10.2101928 L8.4852,10.2101928 C9.4608,10.2101928 10.2564,9.41873278 10.2564,8.44820937 L10.2564,1.77988981 C10.26,0.809366391 9.4644,0.0214876033 8.4888,0.0214876033 L8.4888,0.0214876033 Z M6.9732,5.54738292 C6.588,5.89118457 6.0192,6.06666667 5.2848,6.06666667 L4.3128,6.06666667 C4.1976,6.06666667 4.1004,6.15977961 4.1004,6.27796143 L4.1004,7.90743802 C4.1004,8.08292011 3.9564,8.22975207 3.7764,8.22975207 L3.042,8.22975207 C2.8656,8.22975207 2.718,8.08650138 2.718,7.90743802 L2.718,2.32066116 C2.718,2.14517906 2.862,1.99834711 3.042,1.99834711 L4.896,1.99834711 C6.1236,1.99834711 6.5808,2.18099174 6.9552,2.49972452 C7.3512,2.83636364 7.5528,3.34848485 7.5528,4.02534435 C7.5564,4.68787879 7.3584,5.2 6.9732,5.54738292 L6.9732,5.54738292 Z" id="Shape"></path>
                        <path d="M5.922,3.34848485 C5.742,3.21239669 5.4252,3.14435262 4.9788,3.14435262 L4.3128,3.14435262 C4.1976,3.14435262 4.1004,3.23746556 4.1004,3.35564738 L4.1004,4.69504132 C4.1004,4.80964187 4.194,4.90633609 4.3128,4.90633609 L4.7124,4.90633609 C4.86,4.90633609 5.094,4.89559229 5.2416,4.88126722 C5.382,4.86694215 5.778,4.81322314 5.922,4.70220386 C6.0948,4.56969697 6.1848,4.34407713 6.1848,4.02892562 C6.1848,3.71019284 6.0948,3.48099174 5.922,3.34848485 L5.922,3.34848485 Z" id="Shape"></path>
                    </g>
                </g>
            </g>
        </g>
    </g>
</svg>