<?xml version="1.0" encoding="UTF-8" standalone="no"?>
<svg width="36px" height="26px" viewBox="0 0 36 26" version="1.1" xmlns="http://www.w3.org/2000/svg" xmlns:xlink="http://www.w3.org/1999/xlink" xmlns:sketch="http://www.bohemiancoding.com/sketch/ns">
    <!-- Generator: Sketch 3.3.2 (12043) - http://www.bohemiancoding.com/sketch -->
    <title>Parking</title>
    <desc>Created with Sketch.</desc>
    <defs></defs>
    <g id="Page-1" stroke="none" stroke-width="1" fill="none" fill-rule="evenodd" sketch:type="MSPage">
        <g id="Payment-Settings-Disbabled" sketch:type="MSArtboardGroup" transform="translate(-815.000000, -706.000000)" fill="#D0021B">
            <g id="Tap-bar" sketch:type="MSLayerGroup" transform="translate(-2.000000, 669.000000)">
                <g id="Tap-Bar-1-Copy" sketch:type="MSShapeGroup">
                    <g id="Icons-(Red)" transform="translate(50.843994, 28.346535)">
                        <g id="Parking" transform="translate(765.896006, 8.653465)">
                            <path d="M34.4888,0.0214876033 L27.7892,0.0214876033 C26.8136,0.0214876033 26.018,0.812947658 26.018,1.78347107 L26.018,8.45179063 C26.018,9.42231405 26.8136,10.2137741 27.7892,10.2137741 L30.4784,10.2137741 L30.4784,25.1763085 C30.4784,25.5380165 30.7736,25.8316804 31.1372,25.8316804 C31.5008,25.8316804 31.796,25.5380165 31.796,25.1763085 L31.796,10.2101928 L34.4852,10.2101928 C35.4608,10.2101928 36.2564,9.41873278 36.2564,8.44820937 L36.2564,1.77988981 C36.26,0.809366391 35.4644,0.0214876033 34.4888,0.0214876033 L34.4888,0.0214876033 Z M32.9732,5.54738292 C32.588,5.89118457 32.0192,6.06666667 31.2848,6.06666667 L30.3128,6.06666667 C30.1976,6.06666667 30.1004,6.15977961 30.1004,6.27796143 L30.1004,7.90743802 C30.1004,8.08292011 29.9564,8.22975207 29.7764,8.22975207 L29.042,8.22975207 C28.8656,8.22975207 28.718,8.08650138 28.718,7.90743802 L28.718,2.32066116 C28.718,2.14517906 28.862,1.99834711 29.042,1.99834711 L30.896,1.99834711 C32.1236,1.99834711 32.5808,2.18099174 32.9552,2.49972452 C33.3512,2.83636364 33.5528,3.34848485 33.5528,4.02534435 C33.5564,4.68787879 33.3584,5.2 32.9732,5.54738292 L32.9732,5.54738292 Z" id="Shape"></path>
                            <path d="M31.922,3.34848485 C31.742,3.21239669 31.4252,3.14435262 30.9788,3.14435262 L30.3128,3.14435262 C30.1976,3.14435262 30.1004,3.23746556 30.1004,3.35564738 L30.1004,4.69504132 C30.1004,4.80964187 30.194,4.90633609 30.3128,4.90633609 L30.7124,4.90633609 C30.86,4.90633609 31.094,4.89559229 31.2416,4.88126722 C31.382,4.86694215 31.778,4.81322314 31.922,4.70220386 C32.0948,4.56969697 32.1848,4.34407713 32.1848,4.02892562 C32.1848,3.71019284 32.0948,3.48099174 31.922,3.34848485 L31.922,3.34848485 Z" id="Shape"></path>
                            <path d="M25.7912,10.6077135 C25.676,10.6077135 25.5572,10.6256198 25.4384,10.6578512 L24.092,11.0267218 L22.6952,7.64600551 C22.2992,6.68980716 21.1328,5.90909091 20.0924,5.90909091 L7.0352,5.90909091 C5.9948,5.90909091 4.8248,6.68980716 4.4324,7.64600551 L3.0392,11.0231405 L1.7108,10.6578512 C1.592,10.6256198 1.4732,10.6077135 1.358,10.6077135 C0.7244,10.6077135 0.2636,11.0911846 0.2636,11.753719 L0.2636,12.5415978 C0.2636,13.3187328 0.8972,13.9490358 1.6784,13.9490358 L1.8296,13.9490358 L1.6028,14.4933884 C1.2356,15.3815427 0.9368,16.8892562 0.9368,17.8526171 L0.9368,24.5710744 C0.9368,25.3482094 1.5704,25.9785124 2.3516,25.9785124 L4.1984,25.9785124 C4.9796,25.9785124 5.6132,25.3482094 5.6132,24.5710744 L5.6132,22.8950413 L21.5108,22.8950413 L21.5108,24.5710744 C21.5108,25.3482094 22.1444,25.9785124 22.9256,25.9785124 L24.776,25.9785124 C25.5572,25.9785124 26.1908,25.3482094 26.1908,24.5710744 L26.1908,17.8561983 C26.1908,16.8928375 25.892,15.3887052 25.5248,14.4969697 L25.298,13.9526171 L25.4672,13.9526171 C26.2484,13.9526171 26.882,13.322314 26.882,12.5451791 L26.882,11.7573003 C26.8856,11.0911846 26.4248,10.6077135 25.7912,10.6077135 L25.7912,10.6077135 Z M4.0508,13.1862259 L6.1604,8.07217631 C6.398,7.49917355 7.1,7.03002755 7.7228,7.03002755 L19.4012,7.03002755 C20.024,7.03002755 20.726,7.49917355 20.9636,8.07217631 L23.0732,13.1862259 C23.3108,13.7592287 22.994,14.2283747 22.3712,14.2283747 L4.7528,14.2283747 C4.13,14.2283747 3.8132,13.7592287 4.0508,13.1862259 L4.0508,13.1862259 Z M8.7632,19.6539945 C8.7632,19.9619835 8.5076,20.2162534 8.198,20.2162534 L4.1876,20.2162534 C3.878,20.2162534 3.6224,19.9619835 3.6224,19.6539945 L3.6224,17.7415978 C3.6224,17.4336088 3.878,17.1793388 4.1876,17.1793388 L8.198,17.1793388 C8.5076,17.1793388 8.7632,17.4336088 8.7632,17.7415978 L8.7632,19.6539945 L8.7632,19.6539945 Z M23.4692,19.6539945 C23.4692,19.9619835 23.2136,20.2162534 22.904,20.2162534 L18.8936,20.2162534 C18.584,20.2162534 18.3284,19.9619835 18.3284,19.6539945 L18.3284,17.7415978 C18.3284,17.4336088 18.584,17.1793388 18.8936,17.1793388 L22.904,17.1793388 C23.2136,17.1793388 23.4692,17.4336088 23.4692,17.7415978 L23.4692,19.6539945 L23.4692,19.6539945 Z" id="Shape"></path>
                        </g>
                    </g>
                </g>
            </g>
        </g>
    </g>
</svg>