<?xml version="1.0" encoding="UTF-8" standalone="no"?>
<svg width="15px" height="34px" viewBox="0 0 15 34" version="1.1" xmlns="http://www.w3.org/2000/svg" xmlns:xlink="http://www.w3.org/1999/xlink" xmlns:sketch="http://www.bohemiancoding.com/sketch/ns">
    <!-- Generator: Sketch 3.3.2 (12043) - http://www.bohemiancoding.com/sketch -->
    <title>User Copy</title>
    <desc>Created with Sketch.</desc>
    <defs></defs>
    <g id="Page-1" stroke="none" stroke-width="1" fill="none" fill-rule="evenodd" sketch:type="MSPage">
        <g id="Payment-Settings-Disbabled" sketch:type="MSArtboardGroup" transform="translate(-438.000000, -702.000000)" fill="#D0021B">
            <g id="Tap-bar" sketch:type="MSLayerGroup" transform="translate(-2.000000, 669.000000)">
                <g id="Tap-Bar-1-Copy" sketch:type="MSShapeGroup">
                    <g id="Icons-(Red)" transform="translate(50.843994, 28.346535)">
                        <path d="M401.757543,15.6310297 L391.764819,15.6310297 C390.673236,15.6310297 389.788006,16.5347723 389.788006,17.6502376 L390.527691,26.0338713 L390.549622,26.2867624 C390.66227,26.8915446 391.182641,27.3502772 391.808682,27.3502772 L391.808682,27.3522376 L392.196468,27.3522376 C392.214412,27.3502772 392.233353,27.3502772 392.2503,27.3502772 C392.270237,27.3502772 392.288181,27.3502772 392.305128,27.3522376 C392.711855,27.378703 393.040825,27.6933465 393.096651,28.0981683 C393.102632,28.1373762 393.105622,28.1746238 393.107616,28.2128515 L393.79347,36.9964059 L393.80942,37.1924455 C393.906117,37.8178119 394.436457,38.2961485 395.07446,38.2961485 L398.45488,38.2961485 C399.083911,38.2961485 399.60827,37.8315347 399.714936,37.2198911 L399.734874,36.9660198 L400.420727,28.1981485 C400.420727,28.1687426 400.423718,28.1403168 400.426708,28.1128713 C400.477549,27.6992277 400.810507,27.3767426 401.221222,27.3502772 C401.239165,27.3483168 401.257109,27.3483168 401.27605,27.3483168 C401.294991,27.3483168 401.312934,27.3483168 401.330878,27.3502772 L401.711686,27.3502772 L401.711686,27.3483168 C402.35268,27.3483168 402.884017,26.8670396 402.978721,26.2397129 C402.979718,26.2357921 402.979718,26.2299109 402.980715,26.2250099 L402.99168,26.0956238 L403.737346,17.6492574 C403.734356,16.5347723 402.849126,15.6310297 401.757543,15.6310297 Z M396.761181,13.9205842 C399.177618,13.9205842 401.13848,11.9190198 401.13848,9.45088119 C401.13848,6.98176238 399.178615,4.98019802 396.761181,4.98019802 C394.343747,4.98019802 392.384878,6.98176238 392.384878,9.45088119 C392.384878,11.9190198 394.344744,13.9205842 396.761181,13.9205842 Z" id="User-Copy"></path>
                    </g>
                </g>
            </g>
        </g>
    </g>
</svg>