<?xml version="1.0" encoding="UTF-8" standalone="no"?>
<svg width="14px" height="34px" viewBox="0 0 14 34" version="1.1" xmlns="http://www.w3.org/2000/svg" xmlns:xlink="http://www.w3.org/1999/xlink" xmlns:sketch="http://www.bohemiancoding.com/sketch/ns">
    <!-- Generator: Sketch 3.3.2 (12043) - http://www.bohemiancoding.com/sketch -->
    <title>User</title>
    <desc>Created with Sketch.</desc>
    <defs></defs>
    <g id="Page-1" stroke="none" stroke-width="1" fill="none" fill-rule="evenodd" sketch:type="MSPage">
        <g id="Payment-History" sketch:type="MSArtboardGroup" transform="translate(-440.000000, -702.000000)" fill="#FFFFFF">
            <g id="Tap-bar" sketch:type="MSLayerGroup" transform="translate(-1.000000, 668.000000)">
                <g id="Tap-Bar-1-Copy" sketch:type="MSShapeGroup">
                    <g id="Icons" transform="translate(50.000000, 33.000000)">
                        <path d="M403.015,11.866 L392.991,11.866 C391.896,11.866 391.008,12.788 391.008,13.926 L391.75,22.479 L391.772,22.737 C391.885,23.354 392.407,23.822 393.035,23.822 L393.035,23.824 L393.424,23.824 C393.442,23.822 393.461,23.822 393.478,23.822 C393.498,23.822 393.516,23.822 393.533,23.824 C393.941,23.851 394.271,24.172 394.327,24.585 C394.333,24.625 394.336,24.663 394.338,24.702 L395.026,33.663 L395.042,33.863 C395.139,34.501 395.671,34.989 396.311,34.989 L399.702,34.989 C400.333,34.989 400.859,34.515 400.966,33.891 L400.986,33.632 L401.674,24.687 C401.674,24.657 401.677,24.628 401.68,24.6 C401.731,24.178 402.065,23.849 402.477,23.822 C402.495,23.82 402.513,23.82 402.532,23.82 C402.551,23.82 402.569,23.82 402.587,23.822 L402.969,23.822 L402.969,23.82 C403.612,23.82 404.145,23.329 404.24,22.689 C404.241,22.685 404.241,22.679 404.242,22.674 L404.253,22.542 L405.001,13.925 C404.998,12.788 404.11,11.866 403.015,11.866 Z M398.003,10.121 C400.427,10.121 402.394,8.079 402.394,5.561 C402.394,3.042 400.428,1 398.003,1 C395.578,1 393.613,3.042 393.613,5.561 C393.613,8.079 395.579,10.121 398.003,10.121 Z" id="User"></path>
                    </g>
                </g>
            </g>
        </g>
    </g>
</svg>