<?xml version="1.0" encoding="UTF-8" standalone="no"?>
<svg width="30px" height="30px" viewBox="0 0 30 30" version="1.1" xmlns="http://www.w3.org/2000/svg" xmlns:xlink="http://www.w3.org/1999/xlink" xmlns:sketch="http://www.bohemiancoding.com/sketch/ns">
    <!-- Generator: Sketch 3.3.2 (12043) - http://www.bohemiancoding.com/sketch -->
    <title>Settings</title>
    <desc>Created with Sketch.</desc>
    <defs></defs>
    <g id="Page-1" stroke="none" stroke-width="1" fill="none" fill-rule="evenodd" sketch:type="MSPage">
        <g id="Payment-History" sketch:type="MSArtboardGroup" transform="translate(-561.000000, -704.000000)" fill="#FFFFFF">
            <g id="Tap-bar" sketch:type="MSLayerGroup" transform="translate(-1.000000, 668.000000)">
                <g id="Tap-Bar-1-Copy" sketch:type="MSShapeGroup">
                    <g id="Icons" transform="translate(50.000000, 33.000000)">
                        <path d="M541.948,16.606 L541.931,16.608 C541.871,16.02 541.404,15.552 540.816,15.494 L540.56,15.494 L540.129,15.494 L540.129,15.486 C539.394,15.486 538.755,15.063 538.449,14.444 C538.375,14.294 538.319,14.131 538.289,13.959 C538.15,13.574 537.994,13.2 537.819,12.834 C537.819,12.833 537.819,12.833 537.818,12.832 C537.73,12.702 537.659,12.561 537.605,12.411 L537.605,12.409 C537.536,12.213 537.498,12.003 537.498,11.784 C537.498,11.267 537.707,10.799 538.047,10.461 L538.045,10.461 L538.426,10.08 C538.431,10.077 538.436,10.073 538.441,10.068 C538.445,10.063 538.45,10.058 538.454,10.053 C538.899,9.595 538.922,8.882 538.525,8.397 L538.533,8.393 C538.241,8.042 537.934,7.707 537.613,7.387 C537.283,7.057 536.94,6.745 536.582,6.447 L536.578,6.451 C536.138,6.092 535.509,6.079 535.054,6.411 L534.78,6.685 L534.523,6.94 L534.512,6.929 C533.965,7.476 533.164,7.614 532.489,7.343 C532.397,7.307 532.308,7.262 532.223,7.21 C531.792,7.002 531.347,6.817 530.889,6.662 C530.808,6.642 530.729,6.615 530.65,6.583 C530.65,6.583 530.65,6.583 530.648,6.581 C530.424,6.492 530.213,6.353 530.03,6.172 C529.725,5.867 529.548,5.482 529.497,5.083 C529.476,4.927 529.476,4.771 529.497,4.615 L529.497,4.293 C529.497,3.679 529.052,3.168 528.467,3.064 C528.394,3.057 528.322,3.052 528.249,3.045 L528.248,3.045 C527.834,3.011 527.419,2.993 526.998,2.993 C526.577,2.993 526.162,3.011 525.748,3.045 L525.747,3.045 C525.673,3.052 525.601,3.057 525.527,3.064 C524.942,3.168 524.499,3.679 524.499,4.293 L524.499,4.85 C524.499,5.655 523.993,6.341 523.28,6.605 C523.236,6.623 523.188,6.638 523.141,6.65 C522.64,6.821 522.156,7.022 521.69,7.253 C521.687,7.254 521.687,7.255 521.685,7.255 C521.648,7.276 521.611,7.294 521.572,7.312 C521.334,7.42 521.072,7.481 520.793,7.481 C520.276,7.481 519.806,7.271 519.469,6.933 L519.465,6.936 L519.07,6.542 C518.635,6.107 517.963,6.06 517.476,6.397 C517.42,6.442 517.364,6.488 517.31,6.534 C517.308,6.537 517.305,6.539 517.303,6.542 C516.984,6.811 516.677,7.093 516.383,7.387 C516.088,7.68 515.805,7.987 515.538,8.304 C515.538,8.304 515.537,8.304 515.537,8.307 C515.489,8.363 515.44,8.42 515.395,8.477 C515.054,8.965 515.103,9.638 515.537,10.071 L515.931,10.465 C516.498,11.033 516.625,11.874 516.312,12.563 C516.292,12.606 516.271,12.649 516.248,12.69 C516.018,13.155 515.817,13.639 515.649,14.135 C515.634,14.189 515.616,14.239 515.596,14.29 C515.596,14.29 515.596,14.29 515.596,14.292 C515.505,14.528 515.363,14.751 515.171,14.942 C514.805,15.308 514.327,15.491 513.847,15.491 L513.847,15.496 L513.288,15.496 C512.673,15.496 512.162,15.939 512.058,16.523 C512.05,16.595 512.044,16.669 512.037,16.743 L512.037,16.743 C512.004,17.146 511.986,17.581 511.986,17.993 L511.986,17.993 L511.986,18.003 L511.986,18.013 L511.986,18.013 C511.986,18.427 512.004,18.836 512.037,19.241 L512.037,19.243 C512.043,19.315 512.05,19.388 512.058,19.461 C512.162,20.045 512.672,20.49 513.286,20.49 L513.289,20.49 L513.848,20.49 C514.646,20.49 515.326,20.989 515.597,21.691 L515.597,21.694 C515.615,21.741 515.631,21.788 515.642,21.834 C515.645,21.836 515.645,21.839 515.647,21.843 C515.815,22.341 516.017,22.826 516.247,23.293 C516.25,23.295 516.251,23.298 516.252,23.3 C516.272,23.336 516.29,23.374 516.308,23.412 C516.417,23.649 516.478,23.915 516.478,24.192 C516.478,24.709 516.269,25.177 515.929,25.516 L515.931,25.518 L515.549,25.899 C515.545,25.903 515.539,25.908 515.534,25.913 C515.529,25.918 515.523,25.923 515.52,25.928 C515.104,26.357 515.056,27.013 515.38,27.492 C515.435,27.558 515.489,27.624 515.545,27.687 C515.812,28.002 516.091,28.304 516.384,28.596 L516.384,28.596 C516.676,28.888 516.981,29.17 517.297,29.437 C517.36,29.491 517.424,29.543 517.487,29.597 C517.921,29.889 518.496,29.878 518.921,29.569 L519.195,29.295 L519.452,29.039 L519.463,29.049 C520.031,28.483 520.875,28.356 521.567,28.671 C521.603,28.686 521.638,28.704 521.671,28.722 C521.673,28.724 521.677,28.724 521.68,28.727 C522.151,28.96 522.64,29.164 523.143,29.334 C523.186,29.347 523.229,29.362 523.272,29.377 C523.517,29.469 523.748,29.611 523.946,29.809 C524.312,30.174 524.495,30.652 524.495,31.132 L524.5,31.132 L524.5,31.678 C524.5,32.323 524.991,32.856 525.621,32.92 L525.621,32.927 C526.075,32.97 526.534,32.99 526.999,32.99 C527.464,32.99 527.922,32.969 528.377,32.927 L528.376,32.92 C529.005,32.856 529.499,32.323 529.499,31.678 L529.499,31.121 C529.499,30.369 529.941,29.722 530.579,29.425 C530.709,29.364 530.846,29.319 530.989,29.287 C531.401,29.143 531.8,28.977 532.189,28.79 C532.301,28.716 532.422,28.655 532.55,28.61 C532.753,28.533 532.974,28.49 533.206,28.49 C533.681,28.49 534.116,28.668 534.448,28.962 C534.505,29.01 534.558,29.064 534.609,29.122 L534.928,29.442 L534.929,29.44 C535.368,29.878 536.058,29.922 536.546,29.569 C536.548,29.569 536.55,29.567 536.551,29.564 C536.592,29.531 536.631,29.498 536.67,29.465 C536.998,29.188 537.314,28.899 537.616,28.596 C537.918,28.294 538.208,27.979 538.485,27.651 C538.52,27.609 538.556,27.566 538.592,27.522 C538.935,27.052 538.904,26.397 538.507,25.957 L538.506,25.956 L538.417,25.868 L538.068,25.518 L538.068,25.517 C537.508,24.958 537.377,24.136 537.672,23.452 C537.699,23.389 537.731,23.326 537.766,23.264 C537.988,22.814 538.182,22.347 538.346,21.868 C538.364,21.805 538.385,21.741 538.41,21.68 C538.5,21.446 538.641,21.227 538.829,21.038 C539.194,20.673 539.673,20.491 540.154,20.491 L540.154,20.489 L540.693,20.489 L540.693,20.481 C541.36,20.481 541.907,19.957 541.94,19.298 L541.959,19.3 C541.996,18.868 542.015,18.431 542.015,17.992 C542.012,17.523 541.99,17.062 541.948,16.606 L541.948,16.606 Z M534.673,17.991 L534.673,17.991 C534.673,18.865 534.527,19.705 534.258,20.487 C534.156,20.785 534.036,21.075 533.9,21.355 C533.526,22.123 533.025,22.818 532.431,23.417 C531.833,24.015 531.139,24.515 530.373,24.893 C530.089,25.033 529.797,25.155 529.497,25.258 C528.714,25.529 527.872,25.677 526.998,25.68 L526.975,25.68 C526.109,25.68 525.278,25.538 524.499,25.274 C524.187,25.17 523.884,25.043 523.593,24.9 C522.829,24.526 522.137,24.031 521.543,23.439 C520.942,22.843 520.442,22.15 520.065,21.384 C519.923,21.094 519.796,20.795 519.692,20.487 C519.424,19.71 519.279,18.877 519.277,18.008 C519.28,17.142 519.424,16.271 519.692,15.493 C519.796,15.184 519.923,14.885 520.065,14.596 C520.442,13.83 520.942,13.137 521.543,12.541 C522.143,11.944 522.839,11.445 523.606,11.072 C523.894,10.933 524.191,10.811 524.499,10.706 C525.277,10.442 526.108,10.3 526.975,10.3 L526.998,10.3 C527.872,10.303 528.714,10.451 529.497,10.722 C529.797,10.826 530.089,10.948 530.371,11.088 C531.139,11.464 531.833,11.967 532.429,12.563 C533.023,13.16 533.519,13.851 533.893,14.611 C534.033,14.895 534.155,15.19 534.259,15.493 C534.527,16.273 534.674,17.11 534.674,17.982 L534.674,17.991 L534.673,17.991 Z" id="Settings"></path>
                    </g>
                </g>
            </g>
        </g>
    </g>
</svg>