<?xml version="1.0" encoding="UTF-8" standalone="no"?>
<svg width="31px" height="30px" viewBox="0 0 31 30" version="1.1" xmlns="http://www.w3.org/2000/svg" xmlns:xlink="http://www.w3.org/1999/xlink" xmlns:sketch="http://www.bohemiancoding.com/sketch/ns">
    <!-- Generator: Sketch 3.3.2 (12043) - http://www.bohemiancoding.com/sketch -->
    <title>Settings Copy</title>
    <desc>Created with Sketch.</desc>
    <defs></defs>
    <g id="Page-1" stroke="none" stroke-width="1" fill="none" fill-rule="evenodd" sketch:type="MSPage">
        <g id="Payment-Settings-Disbabled" sketch:type="MSArtboardGroup" transform="translate(-559.000000, -704.000000)" fill="#D0021B">
            <g id="Tap-bar" sketch:type="MSLayerGroup" transform="translate(-2.000000, 669.000000)">
                <g id="Tap-Bar-1-Copy" sketch:type="MSShapeGroup">
                    <g id="Icons-(Red)" transform="translate(50.843994, 28.346535)">
                        <path d="M540.257055,20.2771683 L540.240108,20.2791287 C540.180295,19.7027723 539.714752,19.2440396 539.128587,19.1871881 L538.873385,19.1871881 L538.44373,19.1871881 L538.44373,19.1793465 C537.711023,19.1793465 537.074017,18.7647228 536.768972,18.1579802 C536.695203,18.0109505 536.639378,17.8511782 536.609471,17.6825842 C536.470905,17.3052079 536.315392,16.9386139 536.140938,16.5798614 C536.140938,16.5788812 536.140938,16.5788812 536.139941,16.577901 C536.052215,16.4504752 535.981437,16.3122673 535.927605,16.1652376 L535.927605,16.1632772 C535.858821,15.9711584 535.820939,15.7653168 535.820939,15.5506535 C535.820939,15.0438911 536.029287,14.5851584 536.368226,14.2538515 L536.366232,14.2538515 L536.746044,13.880396 C536.751028,13.8774554 536.756012,13.8735347 536.760997,13.8686337 C536.764984,13.8637327 536.769969,13.8588317 536.773956,13.8539307 C537.217568,13.405 537.240496,12.7061188 536.844735,12.2307228 L536.85271,12.226802 C536.561621,11.8827525 536.255579,11.5543861 535.93558,11.2407228 C535.60661,10.9172574 535.26468,10.6114356 534.907797,10.3193366 L534.90381,10.3232574 C534.465183,9.97136634 533.838145,9.95862376 533.384565,10.2840495 L533.11142,10.5526238 L532.855222,10.8025743 L532.844256,10.7917921 C532.298963,11.3279604 531.500462,11.4632277 530.827568,11.1975941 C530.735855,11.1623069 530.647133,11.118198 530.562398,11.0672277 C530.132743,10.8633465 529.689131,10.6820099 529.23256,10.5300792 C529.151813,10.5104752 529.073059,10.4840099 528.994306,10.4526436 C528.994306,10.4526436 528.994306,10.4526436 528.992312,10.4506832 C528.769011,10.3634455 528.558669,10.227198 528.37624,10.0497822 C528.072192,9.75082178 527.895744,9.37344554 527.844903,8.98234653 C527.823969,8.82943564 527.823969,8.67652475 527.844903,8.52361386 L527.844903,8.2079901 C527.844903,7.60614851 527.401292,7.10526733 526.818117,7.00332673 C526.745345,6.99646535 526.673569,6.99156436 526.600797,6.98470297 L526.5998,6.98470297 C526.187092,6.95137624 525.773387,6.93373267 525.3537,6.93373267 C524.934014,6.93373267 524.520309,6.95137624 524.107601,6.98470297 L524.106604,6.98470297 C524.032835,6.99156436 523.961059,6.99646535 523.88729,7.00332673 C523.304115,7.10526733 522.862498,7.60614851 522.862498,8.2079901 L522.862498,8.7539604 C522.862498,9.5430198 522.358076,10.2154356 521.647301,10.4742079 C521.603438,10.4918515 521.555588,10.5065545 521.508735,10.5183168 C521.009298,10.6859307 520.526808,10.8829505 520.062262,11.1093762 C520.059271,11.1103564 520.059271,11.1113366 520.057278,11.1113366 C520.020393,11.1319208 519.983509,11.1495644 519.94463,11.1672079 C519.707373,11.2730693 519.44619,11.3328614 519.168061,11.3328614 C518.652674,11.3328614 518.18414,11.1270198 517.848192,10.7957129 L517.844204,10.7986535 L517.450437,10.4124554 C517.016794,9.98606931 516.346891,9.94 515.86141,10.2703267 C515.805585,10.3144356 515.74976,10.3595248 515.695928,10.4046139 C515.693934,10.4075545 515.690944,10.4095149 515.68895,10.4124554 C515.370945,10.6761287 515.064903,10.9525446 514.771821,11.2407228 C514.477741,11.5279208 514.195624,11.8288416 513.929457,12.1395644 C513.929457,12.1395644 513.92846,12.1395644 513.92846,12.142505 C513.88061,12.197396 513.831763,12.2532673 513.786903,12.3091386 C513.446967,12.7874752 513.495814,13.4471485 513.92846,13.8715743 L514.321231,14.2577723 C514.886462,14.8145248 515.013066,15.6388713 514.701042,16.3142277 C514.681105,16.3563762 514.66017,16.3985248 514.637242,16.4387129 C514.407959,16.894505 514.207587,17.3689208 514.040111,17.855099 C514.025158,17.9080297 514.007214,17.9570396 513.987276,18.0070297 C513.987276,18.0070297 513.987276,18.0070297 513.987276,18.0089901 C513.89656,18.2403168 513.755003,18.458901 513.563602,18.6461188 C513.198744,19.0048713 512.722236,19.1842475 512.243733,19.1842475 L512.243733,19.1891485 L511.686477,19.1891485 C511.073396,19.1891485 510.563991,19.6233762 510.460315,20.1958119 C510.45234,20.2663861 510.446359,20.3389208 510.439381,20.4114554 L510.439381,20.4114554 C510.406484,20.8064752 510.38854,21.2328614 510.38854,21.636703 L510.38854,21.636703 L510.38854,21.646505 L510.38854,21.6563069 L510.38854,21.6563069 C510.38854,22.0621089 510.406484,22.4630099 510.439381,22.8599901 L510.439381,22.8619505 C510.445362,22.9325248 510.45234,23.0040792 510.460315,23.0756337 C510.563991,23.6480693 511.072399,24.0842574 511.684484,24.0842574 L511.687474,24.0842574 L512.24473,24.0842574 C513.04024,24.0842574 513.718119,24.5733762 513.988273,25.2614752 L513.988273,25.2644158 C514.006217,25.3104851 514.022167,25.3565545 514.033133,25.4016436 C514.036123,25.403604 514.036123,25.4065446 514.038117,25.4104653 C514.205593,25.898604 514.406963,26.374 514.636245,26.8317525 C514.639236,26.8337129 514.640232,26.8366535 514.641229,26.8386139 C514.661167,26.873901 514.679111,26.9111485 514.697055,26.948396 C514.805715,27.180703 514.866524,27.4414356 514.866524,27.7129505 C514.866524,28.2197129 514.658176,28.6784455 514.319237,29.0107327 L514.321231,29.0126931 L513.940423,29.3861485 C513.936435,29.3900693 513.930454,29.3949703 513.92547,29.3998713 C513.920485,29.4047723 513.914504,29.4096733 513.911513,29.4145743 C513.496811,29.8350792 513.448961,30.4780891 513.77195,30.947604 C513.826778,31.012297 513.88061,31.0769901 513.936435,31.1387426 C514.202602,31.447505 514.480732,31.7435248 514.772817,32.0297426 L514.772817,32.0297426 C515.063906,32.3159604 515.367955,32.5923762 515.682969,32.8540891 C515.745772,32.9070198 515.809573,32.9579901 515.872376,33.0109208 C516.305022,33.2971386 516.878228,33.2863564 517.301902,32.9834752 L517.575047,32.714901 L517.831245,32.4639703 L517.842211,32.4737723 C518.408438,31.9189802 519.249805,31.794495 519.939646,32.1032574 C519.975534,32.1179604 520.010424,32.135604 520.043321,32.1532475 C520.045315,32.1552079 520.049303,32.1552079 520.052293,32.1581485 C520.521824,32.3865347 521.009298,32.586495 521.510729,32.7531287 C521.553594,32.7658713 521.59646,32.7805743 521.639326,32.7952772 C521.883562,32.8854554 522.113841,33.0246436 522.311223,33.2187228 C522.676081,33.576495 522.85851,34.0450297 522.85851,34.5155248 L522.863495,34.5155248 L522.863495,35.0507129 C522.863495,35.6829406 523.352963,36.2053861 523.980997,36.2681188 L523.980997,36.2749802 C524.43358,36.3171287 524.891148,36.3367327 525.354697,36.3367327 C525.818246,36.3367327 526.274817,36.3161485 526.728398,36.2749802 L526.727401,36.2681188 C527.354438,36.2053861 527.846897,35.6829406 527.846897,35.0507129 L527.846897,34.5047426 C527.846897,33.7676337 528.287518,33.1334455 528.923527,32.8423267 C529.053122,32.7825347 529.189694,32.7384257 529.332248,32.7070594 C529.742963,32.5659109 530.140718,32.403198 530.528504,32.219901 C530.640154,32.1473663 530.760777,32.0875743 530.888378,32.0434653 C531.090744,31.9679901 531.311055,31.9258416 531.542331,31.9258416 C532.015849,31.9258416 532.449491,32.1003168 532.780456,32.388495 C532.837278,32.4355446 532.890112,32.4884752 532.940953,32.5453267 L533.258958,32.8589901 L533.259955,32.8570297 C533.697585,33.2863564 534.385432,33.3294851 534.87191,32.9834752 C534.873903,32.9834752 534.875897,32.9815149 534.876894,32.9785743 C534.917766,32.9462277 534.956644,32.9138812 534.995523,32.8815347 C535.322499,32.6100198 535.637513,32.3267426 535.938571,32.0297426 C536.239629,31.7337228 536.528724,31.4249604 536.80486,31.1034554 C536.83975,31.0622871 536.875638,31.0201386 536.911526,30.9770099 C537.253456,30.5163168 537.222552,29.8742871 536.826791,29.443 L536.825794,29.4420198 L536.737072,29.3557624 L536.389161,29.0126931 L536.389161,29.0117129 C535.830908,28.4637822 535.700317,27.6580594 535.994396,26.987604 C536.021312,26.9258515 536.053212,26.864099 536.088103,26.8033267 C536.30941,26.3622376 536.502805,25.9044851 536.666293,25.4349703 C536.684237,25.3732178 536.705172,25.3104851 536.730094,25.2506931 C536.819813,25.0213267 536.960373,24.8066634 537.147786,24.6214059 C537.511647,24.2636337 537.989153,24.0852376 538.468652,24.0852376 L538.468652,24.0832772 L539.00597,24.0832772 L539.00597,24.0754356 C539.670889,24.0754356 540.216183,23.5618119 540.24908,22.9158614 L540.26802,22.9178218 C540.304905,22.4943762 540.323846,22.0660297 540.323846,21.6357228 C540.320855,21.1760099 540.298924,20.7241386 540.257055,20.2771683 L540.257055,20.2771683 Z M533.004754,21.6347426 L533.004754,21.6347426 C533.004754,22.4914356 532.859209,23.314802 532.591048,24.0813168 C532.489367,24.3734158 532.369741,24.6576733 532.234165,24.9321287 C531.861332,25.6849208 531.361895,26.3661584 530.769749,26.953297 C530.173615,27.5394554 529.48178,28.0295545 528.71817,28.4000693 C528.435056,28.537297 528.143967,28.6568812 527.844903,28.7578416 C527.064346,29.0234752 526.224973,29.1685446 525.3537,29.1714851 L525.330772,29.1714851 C524.467474,29.1714851 523.639067,29.032297 522.862498,28.7735248 C522.551471,28.6715842 522.249417,28.547099 521.959324,28.4069307 C521.197708,28.0403366 520.507867,27.5551386 519.915721,26.9748614 C519.316596,26.3906634 518.818156,25.7113861 518.442332,24.9605545 C518.300775,24.676297 518.174172,24.3832178 518.070496,24.0813168 C517.803332,23.319703 517.658785,22.503198 517.656791,21.6514059 C517.659782,20.8025545 517.803332,19.948802 518.070496,19.1862079 C518.174172,18.8833267 518.300775,18.5902475 518.442332,18.3069703 C518.818156,17.5561386 519.316596,16.8768614 519.915721,16.2926634 C520.513849,15.7074851 521.207677,15.2183663 521.972284,14.8527525 C522.259385,14.716505 522.555459,14.5969208 522.862498,14.494 C523.63807,14.2352277 524.466477,14.0960396 525.330772,14.0960396 L525.3537,14.0960396 C526.224973,14.0989802 527.064346,14.2440495 527.844903,14.5096832 C528.143967,14.6116238 528.435056,14.7312079 528.716176,14.8684356 C529.48178,15.2369901 530.173615,15.7300297 530.767755,16.3142277 C531.359902,16.8994059 531.854354,17.5767228 532.227187,18.3216733 C532.36675,18.6000495 532.48837,18.8892079 532.592045,19.1862079 C532.859209,19.9507624 533.00575,20.7711881 533.00575,21.6259208 L533.00575,21.6347426 L533.004754,21.6347426 Z" id="Settings-Copy"></path>
                    </g>
                </g>
            </g>
        </g>
    </g>
</svg>