<?xml version="1.0" encoding="UTF-8" standalone="no"?>
<svg width="31px" height="27px" viewBox="0 0 31 27" version="1.1" xmlns="http://www.w3.org/2000/svg" xmlns:xlink="http://www.w3.org/1999/xlink" xmlns:sketch="http://www.bohemiancoding.com/sketch/ns">
    <!-- Generator: Sketch 3.3.2 (12043) - http://www.bohemiancoding.com/sketch -->
    <title>Chart Copy</title>
    <desc>Created with Sketch.</desc>
    <defs></defs>
    <g id="Page-1" stroke="none" stroke-width="1" fill="none" fill-rule="evenodd" sketch:type="MSPage">
        <g id="Payment-Settings-Disbabled" sketch:type="MSArtboardGroup" transform="translate(-176.000000, -706.000000)" fill="#D0021B">
            <g id="Tap-bar" sketch:type="MSLayerGroup" transform="translate(-2.000000, 669.000000)">
                <g id="Tap-Bar-1-Copy" sketch:type="MSShapeGroup">
                    <g id="Icons-(Red)" transform="translate(50.843994, 28.346535)">
                        <path d="M155.80734,8.89314851 L153.34405,8.89314851 C152.432902,8.89314851 151.690226,9.59987129 151.64437,10.4889109 L151.64437,10.6624059 L151.64437,33.5980594 L151.64437,33.7715545 C151.689229,34.6605941 152.432902,35.368297 153.34405,35.368297 L155.802356,35.368297 C156.707523,35.368297 157.449201,34.665495 157.500042,33.7813564 L157.500042,33.5872772 L157.500042,10.7535644 L157.500042,10.3977525 C157.410323,9.55184158 156.687585,8.89314851 155.80734,8.89314851 Z M139.809412,26.3436139 L139.750596,26.3436139 L137.346122,26.3436139 L137.287306,26.3436139 C136.369179,26.359297 135.629495,27.0924851 135.614541,27.9981881 L135.614541,28.057 L135.614541,33.6578515 L135.614541,33.714703 C135.629495,34.6302079 136.385129,35.3702574 137.315218,35.3702574 L139.779505,35.3702574 C140.65676,35.3702574 141.378501,34.7125446 141.470214,33.8705545 L141.470214,33.5029802 L141.470214,28.2128515 L141.470214,27.8452772 C141.380495,27.0091683 140.673707,26.3583168 139.809412,26.3436139 Z M147.901086,17.6188713 L147.668813,17.6188713 L145.443777,17.6188713 L145.20951,17.6188713 C144.362162,17.6747426 143.687275,18.3442178 143.630452,19.1822871 L143.630452,19.4116535 L143.630452,33.5696337 L143.630452,33.7999802 C143.688271,34.665495 144.410012,35.3526139 145.297236,35.3673168 L145.356051,35.3673168 L147.754544,35.3673168 L147.81336,35.3673168 C148.738465,35.3526139 149.485128,34.6037426 149.485128,33.6843168 L149.485128,19.2969703 C149.486125,18.4069505 148.785318,17.6757228 147.901086,17.6188713 Z M131.794498,30.8329208 L131.734685,30.8329208 L129.331207,30.8329208 L129.272392,30.8329208 C128.355262,30.848604 127.61458,31.5808119 127.600624,32.4865149 L127.600624,32.5453267 L127.600624,33.6578515 L127.600624,33.714703 C127.615577,34.6302079 128.371212,35.3702574 129.301301,35.3702574 L131.765588,35.3702574 C132.642842,35.3702574 133.364583,34.7125446 133.456296,33.8705545 L133.456296,33.5029802 L133.456296,32.7011782 L133.456296,32.333604 C133.364583,31.4984752 132.658793,30.8466436 131.794498,30.8329208 Z" id="Chart-Copy"></path>
                    </g>
                </g>
            </g>
        </g>
    </g>
</svg>