<?xml version="1.0" encoding="UTF-8" standalone="no"?>
<svg width="37px" height="23px" viewBox="0 0 37 23" version="1.1" xmlns="http://www.w3.org/2000/svg" xmlns:xlink="http://www.w3.org/1999/xlink" xmlns:sketch="http://www.bohemiancoding.com/sketch/ns">
    <!-- Generator: Sketch 3.3.2 (12043) - http://www.bohemiancoding.com/sketch -->
    <title>Tac</title>
    <desc>Created with Sketch.</desc>
    <defs></defs>
    <g id="Page-1" stroke="none" stroke-width="1" fill="none" fill-rule="evenodd" sketch:type="MSPage">
        <g id="Payment-Settings-Disbabled" sketch:type="MSArtboardGroup" transform="translate(-933.000000, -709.000000)" fill="#D0021B">
            <g id="Tap-bar" sketch:type="MSLayerGroup" transform="translate(-2.000000, 669.000000)">
                <g id="Tap-Bar-1-Copy" sketch:type="MSShapeGroup">
                    <g id="Icons-(Red)" transform="translate(50.843994, 28.346535)">
                        <g id="Tac" transform="translate(884.391397, 11.653465)">
                            <path d="M35.9962105,21.2841853 C35.9924211,21.2070288 35.9924211,21.1335463 35.9886316,21.0563898 C35.9848421,20.9792332 35.9810526,20.9020767 35.9810526,20.8249201 L35.9772632,20.7661342 L35.9772632,20.7367412 L35.9772632,20.729393 L35.9772632,20.6632588 L35.9772632,20.6595847 L35.9772632,20.6485623 L35.9696842,20.5530351 C35.9583158,20.4244409 35.9507368,20.2958466 35.9393684,20.1672524 L35.9317895,20.0717252 L35.9204211,19.9468051 C35.9128421,19.8623003 35.9052632,19.7777955 35.8976842,19.6969649 C35.8901053,19.6124601 35.8825263,19.5316294 35.8711579,19.4471246 C35.8673684,19.4067093 35.8635789,19.3626198 35.8597895,19.3222045 C35.856,19.2854633 35.8484211,19.2450479 35.8446316,19.2083067 C35.8029474,18.9070288 35.7612632,18.6094249 35.7082105,18.3228435 C35.6816842,18.1795527 35.6589474,18.0399361 35.6324211,17.9003195 C35.6021053,17.764377 35.5755789,17.6284345 35.5452632,17.4998403 C35.4922105,17.2389776 35.424,16.9964856 35.3709474,16.7686901 C35.3557895,16.7135783 35.3406316,16.6584665 35.3292632,16.6033546 C35.3141053,16.5482428 35.2989474,16.4968051 35.2837895,16.4453674 C35.2534737,16.342492 35.2269474,16.2469649 35.2004211,16.1551118 C35.1738947,16.0632588 35.1511579,15.978754 35.1246316,15.9015974 C35.0981053,15.8244409 35.0753684,15.7509585 35.0526316,15.6884984 C35.0223158,15.5929712 34.9957895,15.5158147 34.9730526,15.4496805 C34.9427368,15.3578275 34.8404211,15.3027157 34.7456842,15.3321086 L28.6484211,17.0185304 C28.5574737,17.0442492 28.4968421,17.1324281 28.5157895,17.2242812 C28.5233684,17.2573482 28.5309474,17.2977636 28.5385263,17.341853 C28.5461053,17.3859425 28.5574737,17.4337061 28.5688421,17.4888179 C28.5802105,17.5439297 28.5877895,17.6027157 28.5953684,17.6615016 C28.6067368,17.7239617 28.6143158,17.7900958 28.6256842,17.8599042 C28.6294737,17.8929712 28.6370526,17.9297125 28.6408421,17.9664537 C28.6446316,18.0031949 28.6484211,18.0399361 28.6522105,18.0803514 C28.6673684,18.2346645 28.6938947,18.4 28.7052632,18.5763578 C28.7128421,18.6645367 28.7204211,18.7563898 28.728,18.8482428 C28.7355789,18.9400958 28.7355789,19.035623 28.7431579,19.1311502 C28.7545263,19.3222045 28.7545263,19.520607 28.7583158,19.7226837 L28.7583158,19.7961661 L28.7545263,19.8623003 C28.7545263,19.9063898 28.7507368,19.9504792 28.7507368,19.9945687 C28.7507368,20.0386581 28.7469474,20.0827476 28.7469474,20.1268371 L28.7469474,20.1929712 L28.7431579,20.2884984 C28.7393684,20.4170927 28.7317895,20.5456869 28.728,20.6742812 L28.7242105,20.7698083 L28.7242105,20.7808307 L28.7242105,20.7845048 C28.7242105,20.7992013 28.7242105,20.670607 28.7242105,20.7257188 L28.7242105,20.729393 L28.7242105,20.7477636 L28.7204211,20.7845048 C28.7166316,20.8359425 28.7128421,20.8837061 28.7052632,20.9351438 C28.7014737,20.9865815 28.6976842,21.034345 28.6901053,21.0857827 C28.6825263,21.1335463 28.6787368,21.184984 28.6711579,21.2327476 C28.6597895,21.3319489 28.6484211,21.427476 28.6332632,21.5193291 C28.6181053,21.6148562 28.6067368,21.7067093 28.5915789,21.7948882 C28.5764211,21.8830671 28.5612632,21.971246 28.5461053,22.0594249 C28.5309474,22.1439297 28.512,22.2284345 28.4968421,22.3055911 C28.4778947,22.3864217 28.4665263,22.4635783 28.4475789,22.5370607 C28.4286316,22.6105431 28.4134737,22.6803514 28.3983158,22.7464856 C28.3907368,22.7795527 28.3831579,22.8126198 28.3755789,22.8420128 C28.368,22.8677316 28.3604211,22.8934505 28.3528421,22.9191693 C28.3490526,22.9338658 28.3452632,22.9485623 28.3414737,22.9632588 L35.784,22.9632588 C35.8825263,22.9632588 35.9658947,22.8861022 35.9696842,22.7905751 L35.9696842,22.7905751 C35.9772632,22.6546326 35.9810526,22.5186901 35.9886316,22.3753994 C35.9924211,22.2357827 35.9924211,22.0888179 35.9962105,21.9455272 C36,21.7985623 35.9962105,21.6515974 35.9962105,21.5009585 C35.9962105,21.4348243 35.9962105,21.3613419 35.9962105,21.2841853 L35.9962105,21.2841853 Z" id="Shape"></path>
                            <path d="M34.0597895,13.708147 C34.1583158,13.6677316 34.2037895,13.557508 34.1583158,13.4619808 C34.1393684,13.4215655 34.1128421,13.3701278 34.0863158,13.315016 C34.0597895,13.2635783 34.0332632,13.2047923 34.0029474,13.1423323 C33.9650526,13.0651757 33.9195789,12.9806709 33.8741053,12.8888179 C33.8286316,12.7969649 33.7793684,12.7014377 33.7263158,12.6022364 C33.6997895,12.5507987 33.6732632,12.5067093 33.6467368,12.4552716 C33.6202105,12.407508 33.5936842,12.3560703 33.5633684,12.3083067 C33.5065263,12.2091054 33.4496842,12.1025559 33.3852632,11.9923323 C33.3208421,11.8857827 33.2526316,11.7755591 33.1844211,11.6616613 C33.1503158,11.6065495 33.1162105,11.5477636 33.0821053,11.4889776 C33.0442105,11.4301917 33.0063158,11.3750799 32.9722105,11.3162939 C32.8964211,11.198722 32.8206316,11.0811502 32.7410526,10.9599042 C32.5743158,10.7210863 32.4113684,10.4749201 32.2256842,10.2324281 C32.1802105,10.1699681 32.1347368,10.1111821 32.0892632,10.048722 L32.0210526,9.95686901 L31.9490526,9.86501597 C31.8543158,9.74376997 31.7595789,9.62619808 31.6610526,9.50495208 C31.5625263,9.38738019 31.464,9.26980831 31.3654737,9.15223642 C31.3162105,9.09345048 31.2669474,9.03466454 31.2176842,8.97955272 C31.1646316,8.92444089 31.1153684,8.86565495 31.0661053,8.81054313 C31.0168421,8.75543131 30.9637895,8.70031949 30.9145263,8.64153355 C30.8652632,8.58642173 30.8122105,8.5313099 30.7629474,8.47619808 C30.6606316,8.36964856 30.5583158,8.26309904 30.456,8.16022364 C30.3536842,8.05734824 30.2513684,7.95814696 30.1528421,7.86261981 C30.0543158,7.76709265 29.9557895,7.6715655 29.8572632,7.58338658 C29.7587368,7.49520767 29.664,7.40702875 29.5730526,7.32619808 C29.4821053,7.24169329 29.3873684,7.16821086 29.3002105,7.09105431 C29.2130526,7.01757188 29.1296842,6.94408946 29.0463158,6.87795527 C28.9629474,6.81182109 28.8871579,6.74936102 28.8113684,6.69057508 C28.7393684,6.63178914 28.6711579,6.57667732 28.6067368,6.52891374 C28.5423158,6.47747604 28.4816842,6.43338658 28.4286316,6.39297125 C28.3490526,6.3341853 28.2846316,6.28642173 28.2315789,6.24600639 C28.152,6.18722045 28.0383158,6.19824281 27.9738947,6.27539936 L24.7073684,10.1185304 C24.6467368,10.1920128 24.6505263,10.2948882 24.7187368,10.3610224 C24.7452632,10.3867412 24.7793684,10.4161342 24.8134737,10.4528754 C24.8475789,10.4859425 24.8854737,10.5226837 24.9271579,10.563099 C24.9688421,10.6035144 25.0105263,10.6476038 25.056,10.6953674 C25.1014737,10.743131 25.1507368,10.7908946 25.2037895,10.8460064 C25.2530526,10.9011182 25.3061053,10.95623 25.3591579,11.0186901 C25.4122105,11.077476 25.4728421,11.1399361 25.5296842,11.2060703 C25.5865263,11.2722045 25.6433684,11.3420128 25.704,11.4118211 C25.7646316,11.4816294 25.8252632,11.5551118 25.8858947,11.6322684 C25.9465263,11.7094249 26.0109474,11.7829073 26.0715789,11.863738 C26.1322105,11.9445687 26.1928421,12.0253994 26.2572632,12.1099042 C26.2875789,12.1503195 26.3178947,12.1944089 26.3482105,12.2348243 C26.3785263,12.2789137 26.4088421,12.3193291 26.4391579,12.3634185 C26.4694737,12.407508 26.4997895,12.4479233 26.5301053,12.4920128 C26.5604211,12.5361022 26.5869474,12.5801917 26.6172632,12.6242812 C26.6741053,12.7124601 26.7347368,12.800639 26.7915789,12.892492 C26.8484211,12.984345 26.9014737,13.072524 26.9583158,13.164377 L27,13.2305112 L27.0378947,13.3003195 C27.0644211,13.3444089 27.0909474,13.3921725 27.1136842,13.436262 C27.2197895,13.6162939 27.3107368,13.8 27.4016842,13.9763578 C27.4433684,14.0645367 27.4850526,14.1527157 27.5267368,14.2408946 C27.5456842,14.284984 27.5684211,14.3253994 27.5873684,14.3694888 C27.6063158,14.4135783 27.6252632,14.4539936 27.6442105,14.4944089 C27.6821053,14.5752396 27.7162105,14.6560703 27.7503158,14.7332268 C27.7806316,14.8103834 27.8109474,14.8875399 27.8412632,14.9610224 C27.8564211,14.9977636 27.8715789,15.0345048 27.8829474,15.0675719 C27.8981053,15.100639 27.9132632,15.1373802 27.9208421,15.1667732 C27.9435789,15.2255591 27.9625263,15.284345 27.9814737,15.3357827 C28.0004211,15.3872204 28.0193684,15.4386581 28.0345263,15.4827476 C28.0572632,15.5452077 28.0762105,15.6039936 28.0951579,15.6554313 C28.1141053,15.7142173 28.1330526,15.765655 28.1482105,15.8097444 C28.1823158,15.9089457 28.296,15.9603834 28.3945263,15.9199681 L34.0597895,13.708147 L34.0597895,13.708147 Z" id="Shape"></path>
                            <path d="M17.424,6.85958466 C17.4732632,6.86693291 17.5301053,6.87428115 17.5869474,6.88162939 C17.6475789,6.89265176 17.712,6.90367412 17.7802105,6.91469649 C17.8484211,6.92571885 17.9204211,6.93674121 17.9962105,6.9514377 C18.0644211,6.96246006 18.1326316,6.97715655 18.2046316,6.99185304 L20.2661053,2.90255591 C20.1637895,2.88785942 20.0614737,2.87316294 19.9629474,2.85846645 C19.8947368,2.84744409 19.8265263,2.83642173 19.7621053,2.82907348 C19.6938947,2.82172524 19.6294737,2.814377 19.5650526,2.80702875 C19.4362105,2.79233227 19.3073684,2.77763578 19.1861053,2.7629393 C19.0648421,2.75191693 18.9435789,2.74456869 18.8298947,2.73354633 C18.7162105,2.72619808 18.6063158,2.71517572 18.504,2.70782748 C18.4016842,2.70415335 18.3031579,2.69680511 18.2084211,2.69313099 C18.1174737,2.68945687 18.0303158,2.68578275 17.9507368,2.68210863 C17.8711579,2.68210863 17.7991579,2.6784345 17.7309474,2.6784345 C17.6362105,2.6784345 17.5604211,2.67476038 17.496,2.67476038 C17.3936842,2.67476038 17.3103158,2.74824281 17.3065263,2.84744409 L17.1170526,6.65383387 C17.1132632,6.74936102 17.1814737,6.83019169 17.2762105,6.84121406 C17.3216842,6.8485623 17.3709474,6.85591054 17.424,6.85958466 L17.424,6.85958466 Z" id="Shape"></path>
                            <path d="M22.9642105,8.95750799 C23.0210526,8.99792332 23.0703158,9.03466454 23.1233684,9.06773163 C23.1726316,9.10079872 23.2181053,9.13386581 23.2635789,9.16325879 C23.2825263,9.17428115 23.3128421,9.19632588 23.3393684,9.21469649 C23.3658947,9.23306709 23.3886316,9.2514377 23.4113684,9.26613419 C23.4606316,9.3028754 23.5061053,9.33594249 23.544,9.36166134 C23.6311579,9.42412141 23.7524211,9.40207668 23.8130526,9.31757188 L26.5035789,5.34217252 C26.5642105,5.25399361 26.5338947,5.13642173 26.4391579,5.08498403 C26.3974737,5.0629393 26.3482105,5.03354633 26.2951579,5.00415335 C26.2686316,4.98945687 26.2421053,4.97476038 26.2155789,4.9600639 C26.1852632,4.94169329 26.1549474,4.92699681 26.1208421,4.9086262 C26.0450526,4.86821086 25.9616842,4.82412141 25.8745263,4.77635783 C25.7873684,4.72859425 25.6926316,4.68083067 25.5941053,4.62571885 C25.4993684,4.57795527 25.4008421,4.53019169 25.2947368,4.48242812 C25.1886316,4.43466454 25.0825263,4.37955272 24.9688421,4.32811502 C24.8551579,4.27667732 24.7376842,4.22523962 24.6164211,4.17380192 C24.4951579,4.1186901 24.3701053,4.07092652 24.2412632,4.0158147 C24.1124211,3.964377 23.9835789,3.90926518 23.8471579,3.85782748 C23.8130526,3.84680511 23.7789474,3.83210863 23.7448421,3.82108626 L22.5852632,8.70766773 C22.6496842,8.74808307 22.7103158,8.7884984 22.7709474,8.82523962 C22.8353684,8.87300319 22.9035789,8.91709265 22.9642105,8.95750799 L22.9642105,8.95750799 Z" id="Shape"></path>
                            <path d="M13.8088421,6.84121406 C13.8618947,6.83386581 13.9111579,6.82651757 13.9642105,6.82284345 C14.0134737,6.81916933 14.0665263,6.81182109 14.1157895,6.80814696 C14.2143158,6.7971246 14.3128421,6.78977636 14.4037895,6.77875399 C14.4985263,6.77140575 14.5894737,6.76773163 14.6728421,6.76038339 C14.7145263,6.75670927 14.76,6.75303514 14.8016842,6.75303514 C14.8433684,6.74936102 14.8850526,6.7456869 14.9191579,6.7456869 C14.9911579,6.74201278 15.0631579,6.74201278 15.1275789,6.74201278 C15.192,6.73833866 15.2526316,6.73833866 15.3094737,6.73466454 L15.4989474,6.73466454 L15.6656842,6.73466454 C15.7717895,6.73466454 15.8589474,6.64648562 15.8513684,6.5399361 L15.6088421,2.95399361 C15.6012632,2.85111821 15.5065263,2.77396166 15.4004211,2.78498403 C15.3511579,2.79233227 15.2981053,2.79600639 15.2336842,2.80702875 C15.1768421,2.814377 15.1124211,2.82172524 15.0404211,2.82907348 C14.9570526,2.84009585 14.8661053,2.85479233 14.7713684,2.8658147 C14.6766316,2.88051118 14.5743158,2.89520767 14.4682105,2.90990415 C14.4151579,2.9172524 14.3621053,2.92827476 14.3090526,2.935623 C14.256,2.94664537 14.2029474,2.95399361 14.1461053,2.96501597 C14.0362105,2.9870607 13.9225263,3.00543131 13.8012632,3.03115016 C13.6837895,3.05686901 13.5625263,3.08258786 13.4374737,3.11198083 C13.3730526,3.12667732 13.3124211,3.1413738 13.248,3.15607029 C13.1835789,3.17076677 13.1191579,3.18913738 13.0547368,3.20383387 C12.9258947,3.23690096 12.7932632,3.27364217 12.6568421,3.30670927 C12.5242105,3.3471246 12.3877895,3.38386581 12.2475789,3.42428115 C12.1793684,3.44632588 12.1111579,3.46469649 12.0391579,3.48674121 C11.9709474,3.50878594 11.9027368,3.53083067 11.8307368,3.55654952 C11.7625263,3.57859425 11.6905263,3.6043131 11.6223158,3.62635783 C11.5541053,3.64840256 11.4821053,3.67412141 11.4138947,3.69984026 C11.2774737,3.75127796 11.1372632,3.80271565 10.9970526,3.85415335 C10.8606316,3.90559105 10.7242105,3.964377 10.5877895,4.01948882 C10.5195789,4.04888179 10.4513684,4.07460064 10.3831579,4.10399361 C10.3149474,4.13338658 10.2505263,4.16277955 10.1823158,4.19217252 C10.1178947,4.2215655 10.0496842,4.25095847 9.98526316,4.28035144 C9.92084211,4.30974441 9.85642105,4.33913738 9.792,4.37220447 C9.66315789,4.43466454 9.53810526,4.4971246 9.41684211,4.55591054 C9.29178947,4.61469649 9.17431579,4.68083067 9.06063158,4.74329073 C8.94315789,4.8057508 8.82947368,4.86453674 8.72336842,4.92699681 C8.61347368,4.98945687 8.51115789,5.05191693 8.40884211,5.10702875 C8.30652632,5.1658147 8.21178947,5.22827476 8.11705263,5.28338658 C8.02610526,5.34217252 7.93515789,5.39728435 7.85178947,5.44872204 C7.76842105,5.50383387 7.69263158,5.55527157 7.61684211,5.60303514 C7.54484211,5.65079872 7.47663158,5.6985623 7.41221053,5.73897764 C7.34778947,5.78306709 7.29094737,5.82348243 7.24168421,5.86022364 C7.17347368,5.91166134 7.11284211,5.95207668 7.06357895,5.98881789 C6.984,6.04760383 6.96505263,6.15415335 7.02189474,6.23498403 L8.55663158,8.42476038 C8.60968421,8.50191693 8.71957895,8.52763578 8.80294737,8.4798722 C8.84084211,8.45782748 8.88631579,8.43210863 8.93936842,8.40638978 C8.98484211,8.38067093 9.03410526,8.35127796 9.09094737,8.32555911 C9.14778947,8.29616613 9.20842105,8.26677316 9.27284211,8.23370607 C9.33726316,8.20063898 9.40547368,8.16757188 9.47747368,8.13083067 C9.54947368,8.09776358 9.62905263,8.06102236 9.70863158,8.02428115 C9.78821053,7.98753994 9.87157895,7.9471246 9.95873684,7.91038339 C10.0458947,7.87364217 10.1368421,7.83322684 10.2315789,7.7928115 C10.3225263,7.75239617 10.4210526,7.71565495 10.5195789,7.67523962 C10.6181053,7.6384984 10.7204211,7.59440895 10.8227368,7.56134185 C10.9250526,7.52460064 11.0311579,7.48785942 11.1410526,7.45111821 C11.1941053,7.4327476 11.2471579,7.414377 11.304,7.39968051 C11.3570526,7.3813099 11.4138947,7.36661342 11.4707368,7.34824281 C11.5275789,7.3298722 11.5806316,7.31517572 11.6374737,7.29680511 C11.6943158,7.28210863 11.7511579,7.26741214 11.8042105,7.24904153 C11.9178947,7.21964856 12.0277895,7.18658147 12.1414737,7.1571885 C12.2551579,7.13146965 12.3688421,7.10207668 12.4825263,7.07635783 C12.5393684,7.06166134 12.5962105,7.05063898 12.6530526,7.03961661 C12.7098947,7.02859425 12.7667368,7.01757188 12.8235789,7.00654952 C12.8804211,6.99552716 12.9372632,6.98450479 12.9903158,6.97348243 C13.0471579,6.96246006 13.104,6.95511182 13.1570526,6.94408946 C13.2669474,6.92571885 13.3768421,6.90734824 13.4829474,6.88897764 C13.6004211,6.87060703 13.7065263,6.85591054 13.8088421,6.84121406 L13.8088421,6.84121406 Z" id="Shape"></path>
                            <path d="M3.34231579,9.67028754 C3.30063158,9.72539936 3.26273684,9.78051118 3.22105263,9.835623 C3.17936842,9.89073482 3.14147368,9.94584665 3.09978947,10.0046326 C3.05810526,10.0597444 3.02021053,10.1185304 2.98231579,10.1773163 C2.90273684,10.2912141 2.82315789,10.4051118 2.74736842,10.5226837 C2.67157895,10.6402556 2.59957895,10.7578275 2.52378947,10.8753994 L2.46694737,10.9635783 L2.41389474,11.0517572 C2.37978947,11.1105431 2.34568421,11.1693291 2.30778947,11.228115 C2.16757895,11.4632588 2.04252632,11.6984026 1.91747368,11.9261981 C1.86063158,12.0400958 1.80378947,12.1539936 1.74694737,12.2678914 C1.72042105,12.3230032 1.69010526,12.378115 1.66357895,12.4332268 C1.63705263,12.4883387 1.61431579,12.5434505 1.58778947,12.5948882 C1.53852632,12.7014377 1.48926316,12.8079872 1.44378947,12.9071885 C1.39831579,13.0100639 1.35663158,13.1092652 1.31873684,13.2011182 C1.28084211,13.2966454 1.23915789,13.3848243 1.20505263,13.4730032 C1.17094737,13.5611821 1.14063158,13.6420128 1.11031579,13.7228435 C1.08,13.8 1.05347368,13.8734824 1.02694737,13.9396166 C1.00421053,14.0057508 0.981473684,14.0682109 0.962526316,14.1269968 C0.936,14.2004792 0.913263158,14.2666134 0.898105263,14.3180511 C0.867789474,14.4099042 0.913263158,14.5091054 1.008,14.5458466 L2.43663158,15.0785942 C2.52757895,15.1116613 2.62989474,15.071246 2.67157895,14.9867412 C2.69431579,14.9463259 2.71705263,14.8948882 2.74736842,14.8361022 C2.77010526,14.7883387 2.79663158,14.736901 2.82694737,14.678115 C2.85726316,14.6230032 2.89136842,14.5605431 2.92547368,14.4944089 C2.95957895,14.4282748 2.99747368,14.3584665 3.03536842,14.284984 C3.07326316,14.2115016 3.11873684,14.1380192 3.16421053,14.0571885 C3.20968421,13.9800319 3.25894737,13.8955272 3.30821053,13.8110224 C3.36126316,13.7265176 3.41431579,13.6420128 3.47115789,13.5538339 C3.49768421,13.5097444 3.528,13.465655 3.55452632,13.4178914 C3.58484211,13.3738019 3.61515789,13.3297125 3.64547368,13.2819489 C3.70610526,13.1900958 3.76673684,13.0982428 3.83115789,13.0027157 C3.96378947,12.8190096 4.09642105,12.6242812 4.24421053,12.436901 C4.28210526,12.3891374 4.31621053,12.3413738 4.35410526,12.2936102 L4.40715789,12.2238019 L4.464,12.1539936 C4.53978947,12.0621406 4.61557895,11.9666134 4.69515789,11.8747604 C4.77473684,11.7829073 4.85431579,11.6910543 4.93389474,11.6028754 C4.97557895,11.5587859 5.01347368,11.5110224 5.05136842,11.4669329 C5.09305263,11.4228435 5.13473684,11.378754 5.17263158,11.3346645 C5.21431579,11.2905751 5.25221053,11.2464856 5.29389474,11.2060703 C5.33557895,11.1619808 5.37347368,11.1215655 5.41515789,11.0811502 C5.49852632,11.0003195 5.57810526,10.9158147 5.65768421,10.8386581 C5.73726316,10.7578275 5.82063158,10.684345 5.90021053,10.6108626 C5.97978947,10.5373802 6.05557895,10.4638978 6.13515789,10.3940895 C6.21094737,10.3242812 6.28673684,10.258147 6.36252632,10.1956869 C6.43452632,10.1295527 6.51031579,10.0744409 6.57852632,10.015655 C6.64673684,9.95686901 6.71494737,9.90543131 6.77557895,9.85031949 C6.83621053,9.80255591 6.89684211,9.75846645 6.94989474,9.714377 C7.00294737,9.67028754 7.056,9.63354633 7.10526316,9.59680511 C7.128,9.5784345 7.15831579,9.5600639 7.18105263,9.54169329 C7.20757895,9.52332268 7.23031579,9.50495208 7.25305263,9.48658147 C7.30231579,9.44984026 7.34778947,9.41677316 7.38568421,9.38738019 C7.47284211,9.32492013 7.48421053,9.20367412 7.416,9.12651757 L5.79031579,7.2784345 C5.72210526,7.19760383 5.59705263,7.19392971 5.51747368,7.26373802 C5.48336842,7.29680511 5.44168421,7.33354633 5.39621053,7.37763578 C5.37347368,7.39600639 5.35452632,7.41805112 5.33178947,7.44009585 C5.30905263,7.46214058 5.28631579,7.4841853 5.256,7.50990415 C5.19915789,7.56501597 5.13852632,7.62380192 5.07410526,7.68626198 C5.00968421,7.74872204 4.94147368,7.81485623 4.86947368,7.88833866 C4.80126316,7.95814696 4.73305263,8.03162939 4.65726316,8.10878594 C4.58526316,8.18594249 4.50568421,8.26309904 4.42989474,8.35127796 C4.35410526,8.43578275 4.27452632,8.52396166 4.19494737,8.6158147 C4.11157895,8.70399361 4.03578947,8.80319489 3.95242105,8.89872204 C3.87284211,8.99792332 3.78568421,9.09345048 3.70610526,9.2 C3.62652632,9.3028754 3.54315789,9.40942492 3.45978947,9.51597444 C3.42189474,9.5600639 3.38021053,9.61517572 3.34231579,9.67028754 L3.34231579,9.67028754 Z" id="Shape"></path>
                            <path d="M0.386526316,16.1514377 C0.375157895,16.1955272 0.367578947,16.250639 0.352421053,16.3094249 C0.341052632,16.3645367 0.329684211,16.4269968 0.314526316,16.493131 C0.299368421,16.5629393 0.288,16.6400958 0.272842105,16.7246006 C0.257684211,16.8091054 0.242526316,16.8972843 0.227368421,16.9891374 C0.219789474,17.036901 0.208421053,17.0846645 0.204631579,17.1324281 C0.197052632,17.1801917 0.189473684,17.2279553 0.185684211,17.279393 C0.159157895,17.4814696 0.125052632,17.6945687 0.102315789,17.9260383 C0.0909473684,18.0399361 0.0795789474,18.157508 0.0644210526,18.278754 C0.0530526316,18.4 0.0492631579,18.521246 0.0378947368,18.6498403 C0.0189473684,18.8996805 0.0151578947,19.1605431 0.00378947368,19.4214058 L0,19.520607 L0,19.6198083 L0,19.8182109 L0,20.0166134 L0,20.1158147 L0.00378947368,20.215016 C0.00757894737,20.3472843 0.0151578947,20.4795527 0.0189473684,20.6118211 L0.0227368421,20.7110224 L0.0227368421,20.7440895 L0.0227368421,20.7698083 L0.0265263158,20.8175719 C0.0303157895,20.8800319 0.0378947368,20.9461661 0.0416842105,21.0086262 C0.0454736842,21.0710863 0.0530526316,21.1335463 0.0568421053,21.1960064 C0.0644210526,21.2621406 0.0682105263,21.3246006 0.0757894737,21.3907348 C0.0833684211,21.456869 0.0871578947,21.5193291 0.0947368421,21.5817891 C0.0985263158,21.6148562 0.102315789,21.6442492 0.106105263,21.6773163 C0.109894737,21.7067093 0.113684211,21.7397764 0.117473684,21.7691693 C0.132631579,21.8904153 0.147789474,22.0116613 0.166736842,22.1329073 C0.185684211,22.2504792 0.204631579,22.3680511 0.219789474,22.4782748 C0.234947368,22.5921725 0.257684211,22.698722 0.276631579,22.8052716 C0.276631579,22.8126198 0.280421053,22.8236422 0.280421053,22.8309904 C0.295578947,22.9154952 0.375157895,22.9779553 0.462315789,22.9779553 L0.977684211,22.9779553 C1.08378947,22.9779553 1.17094737,22.8897764 1.16336842,22.786901 C1.16336842,22.757508 1.15957895,22.7317891 1.15957895,22.7023962 C1.152,22.5995208 1.14442105,22.4966454 1.14442105,22.3900958 C1.14063158,22.2835463 1.13684211,22.1733227 1.13305263,22.0594249 C1.13305263,21.9455272 1.13305263,21.8316294 1.12926316,21.7140575 L1.12926316,21.6258786 C1.12926316,21.5964856 1.12926316,21.5670927 1.13305263,21.5376997 C1.13305263,21.4789137 1.13684211,21.4201278 1.13684211,21.3613419 C1.13684211,21.3025559 1.14063158,21.24377 1.14063158,21.1813099 C1.14442105,21.1188498 1.14821053,21.0563898 1.14821053,20.9939297 C1.152,20.9314696 1.15578947,20.8653355 1.15578947,20.8028754 L1.15957895,20.7551118 L1.15957895,20.729393 L1.15957895,20.7257188 C1.15957895,20.7183706 1.15957895,20.7330671 1.15957895,20.729393 L1.15957895,20.7220447 L1.15957895,20.7110224 L1.16715789,20.6191693 C1.17852632,20.4942492 1.18610526,20.3730032 1.19747368,20.2480831 L1.20505263,20.15623 L1.21642105,20.064377 C1.224,20.0019169 1.23157895,19.9394569 1.23915789,19.8806709 C1.24673684,19.8182109 1.25431579,19.7594249 1.26189474,19.6969649 L1.27326316,19.6051118 L1.28842105,19.5095847 C1.32631579,19.2670927 1.36042105,19.0319489 1.40589474,18.8041534 C1.42863158,18.6902556 1.44757895,18.5763578 1.47031579,18.4698083 C1.49684211,18.3595847 1.51957895,18.2567093 1.54231579,18.1501597 C1.58778947,17.9444089 1.64463158,17.7496805 1.69010526,17.5733227 C1.70147368,17.5292332 1.71284211,17.4851438 1.72421053,17.4410543 C1.73557895,17.400639 1.75073684,17.3602236 1.76210526,17.3198083 C1.78484211,17.2426518 1.80757895,17.1654952 1.83031579,17.0956869 C1.85305263,17.0258786 1.872,16.9634185 1.89094737,16.8972843 C1.91368421,16.8311502 1.93263158,16.7723642 1.95157895,16.7209265 C1.97052632,16.6621406 1.98947368,16.6107029 2.00463158,16.5666134 C2.03873684,16.4674121 1.97810526,16.3608626 1.87578947,16.3351438 L0.613894737,16.008147 C0.511578947,15.9861022 0.405473684,16.0485623 0.386526316,16.1514377 L0.386526316,16.1514377 Z" id="Shape"></path>
                            <path d="M14.6766316,22.4966454 C15.0858947,22.6913738 15.5216842,22.7832268 15.9498947,22.7832268 C17.0261053,22.7832268 18.0568421,22.2027157 18.5646316,21.2033546 C18.6631579,21.0123003 18.7351579,20.7992013 18.7844211,20.5971246 L21.7250526,8.22635783 L22.8429474,3.51613419 L23.5364211,0.598881789 C23.616,0.26086262 23.3393684,0.0293929712 23.0589474,0.0293929712 C22.896,0.0293929712 22.7330526,0.110223642 22.6383158,0.290255591 L21.2286316,3.08626198 L19.1482105,7.21597444 L13.3427368,18.7269968 C12.6378947,20.1231629 13.2366316,21.8132588 14.6766316,22.4966454 L14.6766316,22.4966454 Z M16.0597895,18.5102236 C16.848,18.5102236 17.4846316,19.127476 17.4846316,19.8916933 C17.4846316,20.6559105 16.848,21.2731629 16.0597895,21.2731629 C15.2715789,21.2731629 14.6349474,20.6559105 14.6349474,19.8916933 C14.6349474,19.1311502 15.2715789,18.5102236 16.0597895,18.5102236 L16.0597895,18.5102236 Z" id="Shape"></path>
                        </g>
                    </g>
                </g>
            </g>
        </g>
    </g>
</svg>