<?xml version="1.0" encoding="UTF-8" standalone="no"?>
<svg width="31px" height="31px" viewBox="0 0 31 31" version="1.1" xmlns="http://www.w3.org/2000/svg" xmlns:xlink="http://www.w3.org/1999/xlink" xmlns:sketch="http://www.bohemiancoding.com/sketch/ns">
    <!-- Generator: Sketch 3.3.2 (12043) - http://www.bohemiancoding.com/sketch -->
    <title>Cog</title>
    <desc>Created with Sketch.</desc>
    <defs></defs>
    <g id="Page-1" stroke="none" stroke-width="1" fill="none" fill-rule="evenodd" sketch:type="MSPage">
        <g id="Map---Events" sketch:type="MSArtboardGroup" transform="translate(-947.000000, -628.000000)" fill="#FFFFFF">
            <g id="Nav" sketch:type="MSLayerGroup" transform="translate(0.000000, 611.000000)">
                <g id="Nav-Icons" transform="translate(45.000000, 13.000000)" sketch:type="MSShapeGroup">
                    <path d="M920.115269,29.6322854 L919.300454,34.267402 L915.378644,34.267402 L914.563829,29.6322854 L911.966207,28.5627838 L908.09515,31.3131267 L905.344807,28.5115721 L908.044396,24.6405158 L906.974894,22.0428935 L902.33932,21.2792904 L902.33932,17.306268 L906.974437,16.4914532 L908.043939,13.8938309 L905.34435,10.0739863 L908.094693,7.27243169 L911.965749,9.97202017 L914.563372,8.90251857 L915.378186,4.26740197 L919.299997,4.26740197 L920.114812,8.90251857 L922.712434,9.97202017 L926.532279,7.27243169 L929.333833,10.0739863 L926.634245,13.8938309 L927.703747,16.4914532 L932.338863,17.306268 L932.338863,21.2280787 L927.703747,22.0428935 L926.634245,24.6405158 L929.333833,28.5115721 L926.532279,31.261915 L922.712891,28.5627838 L920.115269,29.6322854 Z M923.324231,19.4457284 C923.324231,17.8668533 922.764103,16.5426649 921.592635,15.4219516 C920.471922,14.2504838 919.147734,13.6903558 917.568859,13.6903558 C915.989983,13.6903558 914.665795,14.2504838 913.494327,15.4219516 C912.373614,16.5426649 911.813486,17.8668533 911.813486,19.4457284 C911.813486,21.0246036 912.373614,22.348792 913.494327,23.5202598 C914.665795,24.6409731 915.989983,25.2011011 917.568859,25.2011011 C919.147734,25.2011011 920.471922,24.6409731 921.592635,23.5202598 C922.763646,22.348792 923.324231,21.0246036 923.324231,19.4457284 L923.324231,19.4457284 L923.324231,19.4457284 Z" id="Cog"></path>
                </g>
            </g>
        </g>
    </g>
</svg>