<?xml version="1.0" encoding="UTF-8" standalone="no"?>
<svg width="34px" height="31px" viewBox="0 0 34 31" version="1.1" xmlns="http://www.w3.org/2000/svg" xmlns:xlink="http://www.w3.org/1999/xlink" xmlns:sketch="http://www.bohemiancoding.com/sketch/ns">
    <!-- Generator: Sketch 3.3.2 (12043) - http://www.bohemiancoding.com/sketch -->
    <title>Map Icon</title>
    <desc>Created with Sketch.</desc>
    <defs></defs>
    <g id="Page-1" stroke="none" stroke-width="1" fill="none" fill-rule="evenodd" sketch:type="MSPage">
        <g id="Map---Events" sketch:type="MSArtboardGroup" transform="translate(-685.000000, -624.000000)" fill="#2EC16A">
            <g id="Nav" sketch:type="MSLayerGroup" transform="translate(0.000000, 611.000000)">
                <g id="Nav-Icons" transform="translate(45.000000, 13.000000)" sketch:type="MSShapeGroup">
                    <g id="Map-Icon" transform="translate(639.941242, 0.267402)">
                        <path d="M15.28,13.1337209 L5.42222222,13.1337209 C5.02222222,13.1337209 4.67555556,13.3866279 4.56888889,13.7616279 L2.67555556,20.1889535 L15.9466667,21.6104651 L16.9866667,16.7180233 C16.3377778,15.5930233 15.7422222,14.380814 15.28,13.1337209 L15.28,13.1337209 Z" id="Shape"></path>
                        <path d="M27.68,22.875 L31.6622222,23.3023256 L30.4711111,19.2645349 C30.3111111,19.4912791 30.1511111,19.7180233 30,19.9360465 C29.1911111,21.0523256 28.3822222,22.0465116 27.68,22.875 L27.68,22.875 Z" id="Shape"></path>
                        <path d="M19.0311111,19.9011628 L18.6044444,21.9069767 L20.7555556,22.1337209 C20.2133333,21.4709302 19.6355556,20.7383721 19.0666667,19.9447674 C19.0577778,19.9273256 19.0488889,19.9098837 19.0311111,19.9011628 L19.0311111,19.9011628 Z" id="Shape"></path>
                        <path d="M0.124444444,28.8662791 C0.0444444444,29.127907 0.0977777778,29.4156977 0.266666667,29.6337209 C0.435555556,29.8517442 0.693333333,29.9825581 0.977777778,29.9825581 L14.16,29.9825581 L15.3955556,24.1918605 L1.92888889,22.744186 L0.124444444,28.8662791 L0.124444444,28.8662791 Z" id="Shape"></path>
                        <path d="M32.4622222,26.0232558 L18.0622222,24.4796512 L16.8888889,29.9825581 L32.4444444,29.9825581 L32.4444444,29.9825581 C32.9333333,29.9825581 33.3333333,29.5901163 33.3333333,29.1104651 C33.3333333,29.005814 33.3155556,28.9098837 33.28,28.8139535 L32.4622222,26.0232558 L32.4622222,26.0232558 Z" id="Shape"></path>
                        <path d="M24.16,23.9912791 C24.2577778,24.0872093 24.3911111,24.1482558 24.5244444,24.1482558 C24.6666667,24.1482558 24.8,24.0959302 24.8888889,23.9912791 C25.6977778,23.1453488 27.2977778,21.3924419 28.8977778,19.1860465 C30.9155556,16.3953488 33.3244444,12.3052326 33.3244444,8.66860465 C33.3244444,3.90697674 29.3777778,0.0348837209 24.5155556,0.0348837209 C19.6622222,0.0348837209 15.7155556,3.90697674 15.7155556,8.66860465 C15.7155556,12.3139535 18.1244444,16.4040698 20.1422222,19.1947674 C21.76,21.4011628 23.3511111,23.1453488 24.16,23.9912791 L24.16,23.9912791 Z M24.5333333,3.27034884 C27.5022222,3.27034884 29.9111111,5.63372093 29.9111111,8.54651163 C29.9111111,11.4505814 27.5022222,13.8226744 24.5333333,13.8226744 C21.5733333,13.8226744 19.1555556,11.4593023 19.1555556,8.54651163 C19.1555556,5.63372093 21.5644444,3.27034884 24.5333333,3.27034884 L24.5333333,3.27034884 Z" id="Shape"></path>
                    </g>
                </g>
            </g>
        </g>
    </g>
</svg>