<?xml version="1.0" encoding="UTF-8" standalone="no"?>
<svg width="23px" height="31px" viewBox="0 0 23 31" version="1.1" xmlns="http://www.w3.org/2000/svg" xmlns:xlink="http://www.w3.org/1999/xlink" xmlns:sketch="http://www.bohemiancoding.com/sketch/ns">
    <!-- Generator: Sketch 3.3.2 (12043) - http://www.bohemiancoding.com/sketch -->
    <title>Shape</title>
    <desc>Created with Sketch.</desc>
    <defs></defs>
    <g id="Page-1" stroke="none" stroke-width="1" fill="none" fill-rule="evenodd" sketch:type="MSPage">
        <g id="Map---Events" sketch:type="MSArtboardGroup" transform="translate(-820.000000, -627.000000)" fill="#FFFFFF">
            <g id="Nav" sketch:type="MSLayerGroup" transform="translate(0.000000, 611.000000)">
                <g id="Nav-Icons" transform="translate(45.000000, 13.000000)" sketch:type="MSShapeGroup">
                    <path d="M775.340132,3.26740197 L797.273763,3.26740197 L797.273763,33.267402 L775.340132,33.267402 L775.340132,3.26740197 L775.340132,3.26740197 Z M792.934633,10.4373198 L792.934633,8.55041019 L779.679686,8.55041019 L779.679686,10.4373198 L792.934633,10.4373198 L792.934633,10.4373198 Z M792.934633,14.0692821 L792.934633,12.1823725 L779.679686,12.1823725 L779.679686,14.0692821 L792.934633,14.0692821 L792.934633,14.0692821 Z M792.934633,17.7486712 L792.934633,15.8617616 L779.679686,15.8617616 L779.679686,17.7486712 L792.934633,17.7486712 L792.934633,17.7486712 Z M792.934633,21.4276368 L792.934633,19.5407272 L779.679686,19.5407272 L779.679686,21.4276368 L792.934633,21.4276368 L792.934633,21.4276368 Z M786.095009,25.0600226 L786.095009,23.1731129 L779.679686,23.1731129 L779.679686,25.0600226 L786.095009,25.0600226 L786.095009,25.0600226 Z" id="Shape"></path>
                </g>
            </g>
        </g>
    </g>
</svg>