<?xml version="1.0" encoding="utf-8"?>
<!-- Generator: Adobe Illustrator 18.1.1, SVG Export Plug-In . SVG Version: 6.00 Build 0)  -->
<svg version="1.1" id="Layer_1" xmlns="http://www.w3.org/2000/svg" xmlns:xlink="http://www.w3.org/1999/xlink" x="0px" y="0px"
	 viewBox="0 0 1000 1008" enable-background="new 0 0 1000 1008" xml:space="preserve">
<path fill="#010101" d="M824.5,657.6H113.5c-6.6,0-12-5.4-12-12V358.2c0-6.6,5.4-12,12-12h711.1c6.6,0,12,5.4,12,12v287.4
	C836.5,652.2,831.1,657.6,824.5,657.6z"/>
<polygon fill="none" points="1096.2,660.2 243.5,660.2 134.3,444.7 986.9,444.7 "/>
<text transform="matrix(1 0 0 1 181.4927 537.8013)" fill="#FFFFFF" font-family="'CorporateABQ-Regular'" font-size="129.72">BenzPay</text>
<g>
	<g>
		<path fill="#FFFFFF" d="M706.9,446.7l-8.2,2.9c-1.1,0.6-2.5,0.5-3.7-0.1l0,0c-4.8-2.4-10.3,1.9-8.8,6.8l1.7,5.2
			c0.6,1.8,2.4,2.8,4.3,2.5c1.5-0.3,3-0.4,4.5-0.4c1.5,0,3,0.1,4.5,0.4c1.9,0.3,3.7-0.7,3.1-2.6l3.5-13.4
			C707.3,447.2,708.5,448.9,706.9,446.7z"/>
	</g>
	<g>
		<path fill="#FFFFFF" d="M734.7,513.8c0-19.7-16.9-47.7-37.8-47.7S659,494.1,659,513.8c0,19.7,16.9,24.1,37.8,24.1
			C717.7,537.9,734.7,533.6,734.7,513.8z"/>
	</g>
</g>
<g>
	<g>
		<g>
			<path d="M696.3,520.6c9.8,0,17.8-7.5,17.8-16.8c0-9.3-8-16.8-17.8-16.8s-17.8,7.5-17.8,16.8S686.5,520.6,696.3,520.6z
				 M696.3,489.7c8.3,0,15,6.4,15,14.1c0,7.8-6.7,14.1-15,14.1s-15-6.3-15-14.1C681.3,496,688,489.7,696.3,489.7z"/>
			<g>
				<path d="M696.3,520.6c0,0,0.4,0,1.2-0.1c0.4,0,0.9-0.1,1.4-0.2c0.3,0,0.6-0.1,0.9-0.1c0.3-0.1,0.7-0.2,1-0.3
					c1.4-0.4,3.1-1,4.8-2.1c1.7-1.1,3.5-2.7,4.9-4.7c1.4-2,2.5-4.6,2.9-7.4c0.1-0.7,0.1-1.4,0.1-2.1c0-0.7,0-1.5-0.2-2.2
					c-0.2-1.5-0.6-3-1.3-4.4c-1.3-2.9-3.5-5.4-6.4-7.1c-1.4-0.9-3-1.5-4.6-2c-1.6-0.4-3.3-0.6-5-0.6c-3.4,0.1-6.6,1-9.4,2.8
					c-2.8,1.7-5,4.2-6.3,7c-1.3,2.8-1.8,5.8-1.4,8.6c0.4,2.7,1.4,5.3,2.8,7.3c1.4,2,3.2,3.6,4.9,4.7c1.7,1.1,3.4,1.8,4.8,2.1
					c0.4,0.1,0.7,0.2,1,0.3c0.3,0.1,0.6,0.1,0.9,0.1c0.6,0.1,1.1,0.2,1.4,0.2C695.9,520.5,696.3,520.6,696.3,520.6z M696.3,520.7
					c0,0-0.4,0-1.2,0c-0.4,0-0.9,0-1.5-0.1c-0.3,0-0.6-0.1-0.9-0.1c-0.3-0.1-0.7-0.2-1-0.2c-0.7-0.1-1.5-0.4-2.4-0.7
					c-0.8-0.3-1.7-0.7-2.6-1.2c-1.8-1-3.7-2.5-5.3-4.6c-1.6-2.1-2.8-4.7-3.2-7.8c-0.2-1.4-0.2-3,0.1-4.6c0.2-1.6,0.7-3.1,1.4-4.6
					c1.4-2.9,3.8-5.5,6.8-7.3c1.5-0.9,3.1-1.5,4.7-2c1.7-0.4,3.4-0.6,5.1-0.6c3.4,0.1,6.8,1.1,9.7,2.8c2.9,1.7,5.2,4.3,6.7,7.1
					c0.7,1.4,1.3,3,1.5,4.5c0.2,0.8,0.2,1.5,0.3,2.3c0,0.8,0,1.5-0.1,2.3c-0.4,3-1.5,5.7-3.1,7.7c-1.6,2.1-3.5,3.6-5.3,4.6
					c-0.9,0.5-1.8,0.9-2.6,1.2c-0.9,0.3-1.6,0.6-2.4,0.7c-0.4,0.1-0.7,0.2-1,0.2c-0.3,0-0.6,0.1-0.9,0.1c-0.6,0.1-1.1,0.1-1.5,0.1
					C696.7,520.6,696.3,520.7,696.3,520.7z"/>
				<path d="M696.3,489.6c0,0,0.4,0,1,0c0.3,0,0.7,0,1.2,0.1c0.2,0,0.5,0.1,0.8,0.1c0.3,0.1,0.6,0.1,0.9,0.2c0.6,0.1,1.3,0.4,2,0.6
					c0.7,0.3,1.5,0.6,2.2,1c1.5,0.9,3.2,2.1,4.5,3.9c1.3,1.7,2.4,4,2.6,6.5c0.1,0.6,0.1,1.3,0.1,1.9c0,0.6-0.1,1.3-0.2,1.9
					c-0.2,1.3-0.7,2.6-1.3,3.8c-1.3,2.4-3.2,4.5-5.7,6c-2.4,1.5-5.3,2.3-8.2,2.4c-1.4,0-2.9-0.1-4.3-0.5c-1.4-0.4-2.8-0.9-4-1.7
					c-2.5-1.5-4.5-3.7-5.7-6.2c-0.6-1.2-1-2.6-1.2-3.9c-0.2-1.3-0.2-2.7-0.1-3.9c0.3-2.6,1.4-4.8,2.7-6.6c1.4-1.8,3-3,4.5-3.9
					c0.8-0.4,1.5-0.8,2.2-1c0.7-0.2,1.4-0.5,2-0.6c0.3-0.1,0.6-0.1,0.9-0.2c0.3,0,0.5-0.1,0.8-0.1c0.5-0.1,0.9-0.1,1.2-0.1
					C696,489.7,696.3,489.6,696.3,489.6z M696.3,489.7c0,0-0.4,0-1,0.1c-0.3,0-0.7,0.1-1.2,0.1c-0.2,0-0.5,0.1-0.8,0.1
					c-0.3,0.1-0.6,0.1-0.9,0.2c-1.2,0.3-2.6,0.9-4.1,1.8c-1.4,0.9-2.9,2.3-4.1,4c-1.2,1.7-2,3.9-2.4,6.2c-0.3,2.4,0.1,4.9,1.2,7.2
					c1.1,2.3,3,4.4,5.3,5.9c2.3,1.5,5,2.3,7.9,2.4c1.4,0,2.8-0.1,4.2-0.5c1.3-0.4,2.7-0.9,3.9-1.6c2.4-1.5,4.3-3.6,5.3-6
					c0.5-1.2,0.9-2.4,1.1-3.7c0.1-0.6,0.1-1.2,0.1-1.9c0-0.6,0-1.2-0.1-1.8c-0.4-2.3-1.2-4.5-2.4-6.2c-1.2-1.7-2.7-3-4.1-4
					c-1.4-0.9-2.9-1.5-4.1-1.8c-0.3-0.1-0.6-0.2-0.9-0.2c-0.3,0-0.5-0.1-0.8-0.1c-0.5-0.1-0.9-0.1-1.2-0.1
					C696.7,489.8,696.3,489.7,696.3,489.7z"/>
			</g>
		</g>
		<g>
			<path d="M694,506.6l6,4.4c0.3,0.2,0.6,0.3,0.9,0.3c0.4,0,0.8-0.2,1.1-0.5c0.5-0.6,0.4-1.4-0.3-1.8l-5.4-4v-9
				c0-0.7-0.6-1.3-1.4-1.3s-1.4,0.6-1.4,1.3v9.7C693.5,506,693.7,506.4,694,506.6z"/>
			<path d="M694.1,506.6c0.6,0.5,1.2,0.9,1.9,1.3l2,1.2c0.6,0.4,1.3,0.8,1.9,1.2l0.5,0.3c0.1,0.1,0.3,0.1,0.4,0.1
				c0.2,0,0.6,0,0.8-0.2c0.1-0.1,0.2-0.2,0.3-0.3c0.1-0.1,0.1-0.2,0.1-0.3c0-0.3,0-0.5-0.2-0.7c-0.2-0.2-0.6-0.5-0.9-0.7l-0.9-0.7
				c-1.2-1-2.4-1.9-3.7-2.8l-0.1,0l0-0.1c0-2-0.2-4-0.2-6l0-1.5l0-1.5c0-0.3-0.2-0.6-0.5-0.7c-0.2-0.1-0.3-0.1-0.5-0.1
				c-0.1,0-0.3,0.1-0.4,0.2c-0.1,0.1-0.2,0.2-0.3,0.4c0,0.1,0,0.1,0,0.2l0,0.3l0,1.5c0,1-0.1,2-0.1,3l-0.2,3c0,0.5-0.1,1-0.1,1.5
				C693.5,505.8,693.7,506.3,694.1,506.6z M694,506.7c-0.2-0.2-0.4-0.4-0.5-0.6c-0.1-0.2-0.1-0.5-0.1-0.8c0-0.5,0-1-0.1-1.5l-0.2-3
				c-0.1-1-0.1-2-0.1-3l0-1.5c0-0.1,0-0.2,0-0.4c0-0.2,0-0.4,0.1-0.5c0.1-0.3,0.4-0.6,0.6-0.8c0.3-0.2,0.6-0.3,1-0.4
				c0.3,0,0.7,0,1,0.2c0.6,0.3,1.1,0.9,1.1,1.6l0,1.5l0,1.5c-0.1,2-0.2,4-0.2,6l-0.1-0.1c1.2,0.9,2.5,1.8,3.8,2.7l1,0.6
				c0.3,0.2,0.6,0.4,1,0.7c0.4,0.3,0.6,0.8,0.6,1.3c0,0.3-0.1,0.5-0.2,0.7c-0.1,0.2-0.3,0.4-0.5,0.6c-0.4,0.3-0.9,0.4-1.4,0.3
				c-0.2-0.1-0.5-0.2-0.7-0.3c-0.2-0.1-0.3-0.2-0.5-0.4c-0.6-0.5-1.2-1-1.8-1.5l-1.8-1.5C695.2,507.6,694.6,507.1,694,506.7z"/>
		</g>
	</g>
</g>
</svg>
