<?xml version="1.0" encoding="utf-8"?>
<!-- Generator: Adobe Illustrator 18.1.1, SVG Export Plug-In . SVG Version: 6.00 Build 0)  -->
<svg version="1.1" id="Capa_1" xmlns="http://www.w3.org/2000/svg" xmlns:xlink="http://www.w3.org/1999/xlink" x="0px" y="0px"
	 viewBox="-243 249 512 512" enable-background="new -243 249 512 512" xml:space="preserve">
<g>
	<path fill="#FCFCFC" d="M199.7,399.2L199.7,399.2c3.4-7.1,5.3-14.5,5.3-22.2v-32c0-53-86-96-192-96s-192,43-192,96
		c0-2.6,0.4-5.2,0.8-7.8c-39.7,17.6-64.8,43.2-64.8,71.8v32c0,29.7,27,56.2,69.3,73.8l0,0c-3.4,7.1-5.3,14.6-5.3,22.2v32
		c0,11.2,4.1,22,11.2,32c-7.1,10-11.2,20.8-11.2,32v32c0,53,86,96,192,96s192-43,192-96v-32c0-11.4-4.2-22.3-11.5-32.5
		c-0.1,0.1-0.1,0.2-0.2,0.2c5.4-7.6,9.6-15.6,10.9-24c39.7-17.6,64.8-43.2,64.8-71.8v-32C269,443.3,242,416.8,199.7,399.2z M13,265
		c103.7,0,176,42.2,176,80c0,37.8-72.3,80-176,80s-176-42.2-176-80C-163,307.2-90.7,265,13,265z M-227,409c0-18.7,17.7-38.3,48-53.5
		V377c0,53,86,96,192,96c15.8,0,31.2-1.1,45.9-2.9C29.5,481.4-7.8,489-51,489C-154.7,489-227,446.8-227,409z M189,633
		c0,37.8-72.3,80-176,80s-176-42.2-176-80c0-6.3,2.7-12.7,6.5-19c0,0-0.1-0.1-0.1-0.2C-124.4,644.3-60.6,665,13,665
		c73.7,0,137.2-20.9,169.4-51.3c0,0,0,0-0.1,0.1C186.2,620.1,189,626.6,189,633z M122.9,598.1C93.6,609.4,56.3,617,13,617
		c-103.7,0-176-42.2-176-80c0-5.4,1.9-10.9,4.7-16.4c15.7,5.3,33,9.4,51.6,12.2C-82.8,572.3-9.7,601,77,601
		c15.9,0,31.3-1.1,46.1-2.9C123,598.1,123,598.1,122.9,598.1z M77,553c-41.1,0-76.9-6.8-105.6-17.1c90.2-5.3,161.5-41.5,168.8-87.2
		c21.8-9.7,39.2-21.7,50.4-35.4c0,0,0,0,0,0c38.8,15.8,62.4,38.2,62.4,59.6C253,510.8,180.7,553,77,553z M47.2,368.3
		c0-3.4-2.7-6-8.1-7.7c-5.4-1.8-17.3-4-35.9-6.7c-16.7-2.3-29.7-4.7-39.1-7c-9.4-2.3-17-5.6-22.8-9.7c-5.8-4.2-8.8-9.1-8.8-14.6
		c0-7.2,5.2-13.8,15.7-19.6c10.4-5.8,26.9-9.3,49.3-10.6V281h30.3v11.4c33.9,1.7,55.8,9.5,65.8,23.6l-41.8,7
		c-8.2-9.6-20.7-14.4-37.8-14.4c-8.6,0-15.4,1.1-20.6,3.2c-5.2,2.1-7.8,4.8-7.8,7.8c0,3.1,2.5,5.5,7.5,7.2c5,1.7,15.7,3.7,32.1,6.2
		c18,2.7,32.1,5.2,42.3,7.6c10.2,2.4,18.4,5.7,24.5,9.9c6.1,4.2,9.2,9.2,9.2,14.8c0,8.7-6.3,15.9-18.9,21.7
		c-12.6,5.8-30.8,9.2-54.6,10.2V412H-2.4v-14.8c-39.7-1.7-64.2-11.1-73.7-28.3l46.9-5c4.3,10.8,18.7,16.2,43.1,16.2
		c11.4,0,19.8-1.2,25.2-3.5C44.5,374.4,47.2,371.6,47.2,368.3z"/>
</g>
</svg>
