<?xml version="1.0" encoding="UTF-8" standalone="no"?>
<svg width="38px" height="38px" viewBox="0 0 38 38" version="1.1" xmlns="http://www.w3.org/2000/svg" xmlns:xlink="http://www.w3.org/1999/xlink" xmlns:sketch="http://www.bohemiancoding.com/sketch/ns">
    <!-- Generator: Sketch 3.3.2 (12043) - http://www.bohemiancoding.com/sketch -->
    <title>Coins:subhome</title>
    <desc>Created with Sketch.</desc>
    <defs></defs>
    <g id="Page-1" stroke="none" stroke-width="1" fill="none" fill-rule="evenodd" sketch:type="MSPage">
        <g id="Map-menu" sketch:type="MSArtboardGroup" transform="translate(-16.000000, -31.000000)" fill="#D0021B">
            <g id="Top-bar" sketch:type="MSLayerGroup" transform="translate(-10.000000, 2.000000)">
                <g id="Top-bar-sub-buttons-(red)" transform="translate(26.000000, 29.000000)" sketch:type="MSShapeGroup">
                    <g id="Coins:subhome">
                        <path d="M32.8566406,11.1476562 L32.8566406,11.1476562 C33.1089844,10.6207031 33.25,10.0714844 33.25,9.5 L33.25,7.125 C33.25,3.19140625 26.8671875,0 19,0 C11.1328125,0 4.75,3.19140625 4.75,7.125 C4.75,6.93203125 4.7796875,6.7390625 4.809375,6.54609375 C1.86289063,7.85234375 0,9.75234375 0,11.875 L0,14.25 C0,16.4542969 2.00390625,18.4210938 5.14335938,19.7273437 L5.14335938,19.7273437 C4.89101563,20.2542969 4.75,20.8109375 4.75,21.375 L4.75,23.75 C4.75,24.58125 5.05429687,25.3828125 5.58125,26.125 C5.05429687,26.8671875 4.75,27.66875 4.75,28.5 L4.75,30.875 C4.75,34.8085938 11.1328125,38 19,38 C26.8671875,38 33.25,34.8085938 33.25,30.875 L33.25,28.5 C33.25,27.6539063 32.9382813,26.8449219 32.3964844,26.0878906 C32.3890625,26.0953125 32.3890625,26.1027344 32.3816406,26.1027344 C32.7824219,25.5386719 33.0941406,24.9449219 33.190625,24.3214844 C36.1371094,23.0152344 38,21.1152344 38,18.9925781 L38,16.6175781 C38,14.4207031 35.9960938,12.4539063 32.8566406,11.1476562 L32.8566406,11.1476562 Z M19,1.1875 C26.6964844,1.1875 32.0625,4.31953125 32.0625,7.125 C32.0625,9.93046875 26.6964844,13.0625 19,13.0625 C11.3035156,13.0625 5.9375,9.93046875 5.9375,7.125 C5.9375,4.31953125 11.3035156,1.1875 19,1.1875 L19,1.1875 Z M1.1875,11.875 C1.1875,10.4871094 2.50117187,9.03242187 4.75,7.90429688 L4.75,9.5 C4.75,13.4335938 11.1328125,16.625 19,16.625 C20.1726562,16.625 21.315625,16.5433594 22.4066406,16.4097656 C20.2246094,17.2484375 17.45625,17.8125 14.25,17.8125 C6.55351563,17.8125 1.1875,14.6804688 1.1875,11.875 L1.1875,11.875 Z M32.0625,28.5 C32.0625,31.3054687 26.6964844,34.4375 19,34.4375 C11.3035156,34.4375 5.9375,31.3054687 5.9375,28.5 C5.9375,28.0324219 6.13789062,27.5574219 6.41992188,27.0898438 C6.41992188,27.0898438 6.4125,27.0824219 6.4125,27.075 C8.80234375,29.3386719 13.5375,30.875 19,30.875 C24.4699219,30.875 29.1828125,29.3238281 31.5726562,27.0675781 C31.5726562,27.0675781 31.5726562,27.0675781 31.5652344,27.075 C31.8546875,27.5425781 32.0625,28.025 32.0625,28.5 L32.0625,28.5 Z M27.1566406,25.9097656 C24.9820313,26.7484375 22.2136719,27.3125 19,27.3125 C11.3035156,27.3125 5.9375,24.1804687 5.9375,21.375 C5.9375,20.9742188 6.07851563,20.5660156 6.28632813,20.1578125 C7.4515625,20.5511719 8.73554688,20.8554688 10.1160156,21.0632813 C11.8898438,23.9949219 17.3152344,26.125 23.75,26.125 C24.9300781,26.125 26.0730469,26.0433594 27.1714844,25.9097656 L27.1566406,25.9097656 L27.1566406,25.9097656 Z M23.75,22.5625 C20.6996094,22.5625 18.0425781,22.0578125 15.9125,21.2933594 C22.6070312,20.9 27.8988281,18.2132813 28.440625,14.8214844 C30.0585937,14.1015625 31.35,13.2109375 32.18125,12.1941406 L32.18125,12.1941406 C35.0609375,13.3667969 36.8125,15.0292969 36.8125,16.6175781 C36.8125,19.4304688 31.4464844,22.5625 23.75,22.5625 L23.75,22.5625 Z M21.5382812,8.85429688 C21.5382812,8.60195313 21.3378906,8.40898438 20.9371094,8.2828125 C20.5363281,8.14921875 19.653125,7.9859375 18.2726562,7.78554688 C17.0332031,7.61484375 16.0683594,7.43671875 15.3707031,7.26601563 C14.6730469,7.0953125 14.1089844,6.85039063 13.6785156,6.54609375 C13.2480469,6.234375 13.0253906,5.87070313 13.0253906,5.4625 C13.0253906,4.928125 13.4113281,4.43828125 14.190625,4.0078125 C14.9625,3.57734375 16.1871094,3.31757812 17.8496094,3.22109375 L17.8496094,2.375 L20.0984375,2.375 L20.0984375,3.22109375 C22.6144531,3.34726562 24.2398437,3.92617187 24.9820312,4.97265625 L21.8796875,5.4921875 C21.2710937,4.7796875 20.3433594,4.4234375 19.0742187,4.4234375 C18.4359375,4.4234375 17.93125,4.50507813 17.5453125,4.6609375 C17.159375,4.81679688 16.9664062,5.0171875 16.9664062,5.23984375 C16.9664062,5.46992188 17.1519531,5.64804688 17.5230469,5.77421875 C17.8941406,5.90039062 18.6882812,6.04882812 19.9054687,6.234375 C21.2414062,6.43476562 22.2878906,6.6203125 23.0449219,6.7984375 C23.8019531,6.9765625 24.4105469,7.22148438 24.8632812,7.53320313 C25.3160156,7.84492187 25.5460937,8.21601562 25.5460937,8.63164062 C25.5460937,9.27734375 25.0785156,9.81171875 24.1433594,10.2421875 C23.2082031,10.6726563 21.8574219,10.925 20.0910156,10.9992187 L20.0910156,12.0976562 L17.8570312,12.0976562 L17.8570312,10.9992187 C14.9105469,10.8730469 13.0921875,10.1753906 12.3871094,8.89882812 L15.8679687,8.52773437 C16.1871094,9.32929687 17.2558594,9.73007812 19.0667969,9.73007812 C19.9128906,9.73007812 20.5363281,9.64101562 20.9371094,9.4703125 C21.3378906,9.30703125 21.5382812,9.09921875 21.5382812,8.85429688 L21.5382812,8.85429688 Z" id="Shape"></path>
                    </g>
                </g>
            </g>
        </g>
    </g>
</svg>