<?xml version="1.0" encoding="UTF-8" standalone="no"?>
<svg width="40px" height="36px" viewBox="0 0 40 36" version="1.1" xmlns="http://www.w3.org/2000/svg" xmlns:xlink="http://www.w3.org/1999/xlink" xmlns:sketch="http://www.bohemiancoding.com/sketch/ns">
    <!-- Generator: Sketch 3.3.2 (12043) - http://www.bohemiancoding.com/sketch -->
    <title>Map View</title>
    <desc>Created with Sketch.</desc>
    <defs></defs>
    <g id="Page-1" stroke="none" stroke-width="1" fill="none" fill-rule="evenodd" sketch:type="MSPage">
        <g id="Map-menu" sketch:type="MSArtboardGroup" transform="translate(-86.000000, -31.000000)" fill="#D0021B">
            <g id="Top-bar" sketch:type="MSLayerGroup" transform="translate(-10.000000, 2.000000)">
                <g id="Top-bar-sub-buttons-(red)" transform="translate(26.000000, 29.000000)" sketch:type="MSShapeGroup">
                    <g id="Map-View" transform="translate(70.000000, 0.000000)">
                        <path d="M18.336,15.7604651 L6.50666667,15.7604651 C6.02666667,15.7604651 5.61066667,16.0639535 5.48266667,16.5139535 L3.21066667,24.2267442 L19.136,25.9325581 L20.384,20.0616279 C19.6053333,18.7116279 18.8906667,17.2569767 18.336,15.7604651 L18.336,15.7604651 Z" id="Shape"></path>
                        <path d="M33.216,27.45 L37.9946667,27.9627907 L36.5653333,23.1174419 C36.3733333,23.3895349 36.1813333,23.6616279 36,23.9232558 C35.0293333,25.2627907 34.0586667,26.455814 33.216,27.45 L33.216,27.45 Z" id="Shape"></path>
                        <path d="M22.8373333,23.8813953 L22.3253333,26.2883721 L24.9066667,26.5604651 C24.256,25.7651163 23.5626667,24.8860465 22.88,23.9337209 C22.8693333,23.9127907 22.8586667,23.8918605 22.8373333,23.8813953 L22.8373333,23.8813953 Z" id="Shape"></path>
                        <path d="M0.149333333,34.6395349 C0.0533333333,34.9534884 0.117333333,35.2988372 0.32,35.5604651 C0.522666667,35.822093 0.832,35.9790698 1.17333333,35.9790698 L16.992,35.9790698 L18.4746667,29.0302326 L2.31466667,27.2930233 L0.149333333,34.6395349 L0.149333333,34.6395349 Z" id="Shape"></path>
                        <path d="M38.9546667,31.227907 L21.6746667,29.3755814 L20.2666667,35.9790698 L38.9333333,35.9790698 L38.9333333,35.9790698 C39.52,35.9790698 40,35.5081395 40,34.9325581 C40,34.8069767 39.9786667,34.6918605 39.936,34.5767442 L38.9546667,31.227907 L38.9546667,31.227907 Z" id="Shape"></path>
                        <path d="M28.992,28.7895349 C29.1093333,28.9046512 29.2693333,28.977907 29.4293333,28.977907 C29.6,28.977907 29.76,28.9151163 29.8666667,28.7895349 C30.8373333,27.7744186 32.7573333,25.6709302 34.6773333,23.0232558 C37.0986667,19.6744186 39.9893333,14.7662791 39.9893333,10.4023256 C39.9893333,4.68837209 35.2533333,0.0418604651 29.4186667,0.0418604651 C23.5946667,0.0418604651 18.8586667,4.68837209 18.8586667,10.4023256 C18.8586667,14.7767442 21.7493333,19.6848837 24.1706667,23.0337209 C26.112,25.6813953 28.0213333,27.7744186 28.992,28.7895349 L28.992,28.7895349 Z M29.44,3.9244186 C33.0026667,3.9244186 35.8933333,6.76046512 35.8933333,10.255814 C35.8933333,13.7406977 33.0026667,16.5872093 29.44,16.5872093 C25.888,16.5872093 22.9866667,13.7511628 22.9866667,10.255814 C22.9866667,6.76046512 25.8773333,3.9244186 29.44,3.9244186 L29.44,3.9244186 Z" id="Shape"></path>
                    </g>
                </g>
            </g>
        </g>
    </g>
</svg>