<?xml version="1.0" encoding="utf-8"?>
<!-- Generator: Adobe Illustrator 18.1.1, SVG Export Plug-In . SVG Version: 6.00 Build 0)  -->
<svg version="1.1" id="Capa_1" xmlns="http://www.w3.org/2000/svg" xmlns:xlink="http://www.w3.org/1999/xlink" x="0px" y="0px"
	 viewBox="-312 318 374 374" enable-background="new -312 318 374 374" xml:space="preserve">
<g>
	<g>
		<g>
			<path fill="#FFFFFF" d="M-141.1,483.6H-252c-4.5,0-8.4,2.9-9.6,7.2l-21.3,73.7l149.3,16.3l11.7-56.1
				C-129.2,511.8-135.9,497.9-141.1,483.6z"/>
			<path fill="#FFFFFF" d="M-1.6,595.3l44.8,4.9l-13.4-46.3c-1.8,2.6-3.6,5.2-5.3,7.7C15.4,574.4,6.3,585.8-1.6,595.3z"/>
			<path fill="#FFFFFF" d="M-98.9,561.2l-4.8,23l24.2,2.6c-6.1-7.6-12.6-16-19-25.1C-98.6,561.5-98.7,561.3-98.9,561.2z"/>
			<path fill="#FFFFFF" d="M-311.6,664c-0.9,3-0.3,6.3,1.6,8.8c1.9,2.5,4.8,4,8,4h148.3l13.9-66.4l-151.5-16.6L-311.6,664z"/>
			<path fill="#FFFFFF" d="M52.2,631.4l-162-17.7l-13.2,63.1H52c0,0,0,0,0,0c5.5,0,10-4.5,10-10c0-1.2-0.2-2.3-0.6-3.4L52.2,631.4z"
				/>
			<path fill="#FFFFFF" d="M-41.2,608.1c1.1,1.1,2.6,1.8,4.1,1.8c1.6,0,3.1-0.6,4.1-1.8c9.1-9.7,27.1-29.8,45.1-55.1
				c22.7-32,49.8-78.9,49.8-120.6c0-54.6-44.4-99-99.1-99c-54.6,0-99,44.4-99,99c0,41.8,27.1,88.7,49.8,120.7
				C-68.2,578.4-50.3,598.4-41.2,608.1z M-37,370.5c33.4,0,60.5,27.1,60.5,60.5c0,33.3-27.1,60.5-60.5,60.5
				c-33.3,0-60.5-27.1-60.5-60.5C-97.5,397.6-70.4,370.5-37,370.5z"/>
		</g>
	</g>
</g>
</svg>
