<?xml version="1.0" encoding="UTF-8" standalone="no"?>
<svg width="32px" height="37px" viewBox="0 0 32 37" version="1.1" xmlns="http://www.w3.org/2000/svg" xmlns:xlink="http://www.w3.org/1999/xlink" xmlns:sketch="http://www.bohemiancoding.com/sketch/ns">
    <!-- Generator: Sketch 3.3.2 (12043) - http://www.bohemiancoding.com/sketch -->
    <title>Shape</title>
    <desc>Created with Sketch.</desc>
    <defs></defs>
    <g id="Page-1" stroke="none" stroke-width="1" fill="none" fill-rule="evenodd" sketch:type="MSPage">
        <g id="Map-menu" sketch:type="MSArtboardGroup" transform="translate(-158.000000, -31.000000)" fill="#D0021B">
            <g id="Top-bar" sketch:type="MSLayerGroup" transform="translate(-10.000000, 2.000000)">
                <g id="Top-bar-sub-buttons-(red)" transform="translate(26.000000, 29.000000)" sketch:type="MSShapeGroup">
                    <path d="M142,0 L142,37 L164.857143,37 L174,27.75 L174,0 L142,0 L142,0 Z M164.857143,33.7335937 L164.857143,27.75 L170.771429,27.75 L164.857143,33.7335937 L164.857143,33.7335937 Z M171.714286,25.4375 L169.428571,25.4375 L169.428571,23.125 L167.142857,23.125 L167.142857,25.4375 L162.571429,25.4375 L162.571429,34.6875 L144.285714,34.6875 L144.285714,2.3125 L171.714286,2.3125 L171.714286,25.4375 L171.714286,25.4375 Z M169.428571,9.25 L146.571429,9.25 L146.571429,4.625 L169.428571,4.625 L169.428571,9.25 L169.428571,9.25 Z M160.285714,16.1875 L146.571429,16.1875 L146.571429,13.875 L160.285714,13.875 L160.285714,16.1875 L160.285714,16.1875 Z M167.142857,13.875 L169.428571,13.875 L169.428571,16.1875 L167.142857,16.1875 L167.142857,13.875 L167.142857,13.875 Z M167.142857,18.5 L169.428571,18.5 L169.428571,20.8125 L167.142857,20.8125 L167.142857,18.5 L167.142857,18.5 Z M162.571429,20.8125 L146.571429,20.8125 L146.571429,18.5 L162.571429,18.5 L162.571429,20.8125 L162.571429,20.8125 Z M155.714286,25.4375 L146.571429,25.4375 L146.571429,23.125 L155.714286,23.125 L155.714286,25.4375 L155.714286,25.4375 Z M158,30.0625 L146.571429,30.0625 L146.571429,27.75 L158,27.75 L158,30.0625 L158,30.0625 Z" id="Shape"></path>
                </g>
            </g>
        </g>
    </g>
</svg>