<?xml version="1.0" encoding="utf-8"?>
<!-- Generator: Adobe Illustrator 18.1.1, SVG Export Plug-In . SVG Version: 6.00 Build 0)  -->
<svg version="1.1" id="Capa_1" xmlns="http://www.w3.org/2000/svg" xmlns:xlink="http://www.w3.org/1999/xlink" x="0px" y="0px"
	 viewBox="-243 249 512 512" enable-background="new -243 249 512 512" xml:space="preserve">
<g>
	<path fill="#FFFFFF" d="M-211,249v512h320l128-128V249H-211z M109,715.8V633h82.8L109,715.8z M205,601h-32v-32h-32v32H77v128h-256
		V281h384V601z M173,377h-320v-64h320V377z M45,473h-192v-32H45V473z M141,441h32v32h-32V441z M141,505h32v32h-32V505z M77,537h-224
		v-32H77V537z M-19,601h-128v-32h128V601z M13,665h-160v-32H13V665z"/>
</g>
</svg>
