<?xml version="1.0" encoding="UTF-8" standalone="no"?>
<svg width="29px" height="30px" viewBox="0 0 29 30" version="1.1" xmlns="http://www.w3.org/2000/svg" xmlns:xlink="http://www.w3.org/1999/xlink" xmlns:sketch="http://www.bohemiancoding.com/sketch/ns">
    <!-- Generator: Sketch 3.3.2 (12043) - http://www.bohemiancoding.com/sketch -->
    <title>Gas</title>
    <desc>Created with Sketch.</desc>
    <defs></defs>
    <g id="Page-1" stroke="none" stroke-width="1" fill="none" fill-rule="evenodd" sketch:type="MSPage">
        <g id="Map---Events" sketch:type="MSArtboardGroup" transform="translate(-880.000000, -257.000000)" fill="#FFFFFF">
            <g id="Pending-Payments" sketch:type="MSLayerGroup" transform="translate(715.000000, 243.000000)">
                <g id="Suggestion-Menu" transform="translate(53.000000, 2.000000)" sketch:type="MSShapeGroup">
                    <g id="Suggestion-Menu-Icons" transform="translate(44.376518, 12.000000)">
                        <g id="Gas" transform="translate(68.318627, 0.000000)">
                            <path d="M25.8624325,5.15217391 C25.8292968,5.11956522 25.7961611,5.08695652 25.7630254,5.05434783 L25.7630254,5.05434783 C25.5973467,4.92391304 25.3653967,4.94021739 25.2328538,5.08695652 L24.4707321,5.83695652 C24.3216214,6 24.3216214,6.24456522 24.4707321,6.4076087 C24.5204357,6.44021739 24.5535714,6.48913043 24.603275,6.52173913 C24.6529786,6.57065217 24.71925,6.61956522 24.7689536,6.68478261 C25.083743,7.01086957 25.3156931,7.51630435 25.3156931,9.44021739 L25.3156931,9.7173913 C25.3156931,10.2554348 25.3156931,10.7771739 25.2991252,11.1195652 L25.2991252,11.1358696 L25.2825574,11.1358696 C24.9512001,11.1358696 24.5204357,11.1521739 24.122807,11.1684783 L24.0731034,11.1684783 C23.8742891,11.1684783 23.6920426,11.1684783 23.5429318,11.1847826 C23.3275496,11.1847826 23.1453032,11.3641304 23.161871,11.5923913 L23.1950067,12.701087 C23.1950067,12.9130435 23.3772532,13.0923913 23.6092033,13.0923913 C23.7583141,13.0923913 23.9239927,13.0923913 24.122807,13.076087 C24.7026822,13.0597826 25.3819645,13.0434783 25.6967539,13.0434783 C26.409172,13.0434783 26.9062078,12.6032609 27.0553186,11.8369565 C27.1381579,11.3804348 27.1381579,10.7934783 27.1381579,9.73369565 L27.1381579,9.45652174 C27.1050222,6.63586957 26.5748506,5.82065217 25.8624325,5.15217391 L25.8624325,5.15217391 Z M26.7902328,3.22826087 L26.6908256,3.30978261 C26.5417149,3.13043478 26.2766291,2.64130435 26.1109505,2.78804348 L25.8624325,2.54347826 C25.1665823,3.21195652 24.5701393,3.76630435 24.1062392,4.35326087 C23.4766604,5.11956522 23.0293281,5.90217391 22.7476745,7.01086957 C22.5819959,7.67934783 22.4660208,8.34782609 22.3997494,9.01630435 C22.2672065,10.2880435 22.2672065,11.5434783 22.3003422,12.7336957 C22.3500458,14.6086957 22.4163172,15.8641304 22.9133531,17.25 L23.0955996,17.7554348 C23.5760676,19.0271739 24.3050535,20.951087 24.3050535,23.4293478 C24.3050535,26.4293478 23.161871,27.9456522 20.8920739,27.9456522 C18.8376591,27.9456522 17.7276123,26.4945652 17.5950694,23.625 C17.528798,22.3532609 17.8767231,20.7880435 18.2246482,19.125 C18.5228697,17.7228261 18.8376591,16.2717391 18.9867698,14.7391304 C19.1524484,13.0434783 18.9370662,11.9184783 18.3240553,11.1847826 C17.528798,10.2554348 16.319344,10.2554348 15.242433,10.2554348 L15.0436187,10.2554348 L15.0436187,12.1467391 L15.242433,12.1467391 C15.9879868,12.1467391 16.7335406,12.1467391 16.9986264,12.4565217 C17.1477371,12.6195652 17.3631193,13.1086957 17.2140086,14.5434783 C17.0648978,15.9619565 16.7666763,17.3641304 16.4850227,18.701087 C16.087394,20.4782609 15.7394689,22.173913 15.8057403,23.7065217 C15.9879868,27.6032609 17.8435873,29.8369565 20.8920739,29.8369565 C24.1393749,29.8369565 26.0778147,27.4402174 26.0943826,23.4456522 C26.0943826,20.6086957 25.2659895,18.3913043 24.7689536,17.0706522 L24.5867072,16.5815217 C24.2884856,15.75 24.1890785,14.9673913 24.122807,13.7771739 C24.1062392,13.5326087 24.1062392,13.2880435 24.0896713,13.0108696 C24.0896713,12.8967391 24.0896713,12.7826087 24.0731034,12.6684783 C24.0565356,12.1630435 24.0565356,11.6413043 24.0731034,11.1195652 C24.0731034,10.7282609 24.0896713,10.3532609 24.122807,9.96195652 C24.1725106,9.13043478 24.2884856,8.29891304 24.4873,7.48369565 C24.5701393,7.17391304 24.6695465,6.89673913 24.7855215,6.63586957 C25.0340394,6.09782609 25.3819645,5.64130435 25.8790004,5.11956522 C26.2103576,4.77717391 26.5914184,4.40217391 27.0718864,3.94565217 L27.1050222,3.91304348 L27.3038365,3.65217391 L27.005615,3.4076087 L26.7902328,3.22826087 L26.7902328,3.22826087 Z M13.6684861,0.0163043478 L1.35856468,0.0163043478 C0.646146617,0.0163043478 0.0662714479,0.635869565 0.0662714479,1.38586957 L0.0662714479,28.923913 C0.0662714479,29.1358696 0.248517929,29.3152174 0.463900135,29.3152174 L14.5631507,29.3152174 C14.7785329,29.3152174 14.9607794,29.1358696 14.9607794,28.923913 L14.9607794,1.38586957 C14.9607794,0.619565217 14.3809042,0.0163043478 13.6684861,0.0163043478 L13.6684861,0.0163043478 Z M13.1051788,10.0597826 C13.1051788,10.2717391 12.9229323,10.451087 12.7075501,10.451087 L2.31950067,10.451087 C2.10411847,10.451087 1.92187199,10.2717391 1.92187199,10.0597826 L1.92187199,3.06521739 C1.92187199,2.85326087 2.10411847,2.67391304 2.31950067,2.67391304 L12.7075501,2.67391304 C12.9229323,2.67391304 13.1051788,2.85326087 13.1051788,3.06521739 L13.1051788,10.0597826 L13.1051788,10.0597826 Z" id="Shape"></path>
                            <path d="M26.4366336,2.55295733 L27.6049001,3.233964 L26.9009124,3.59648343 L25.7326458,2.91547676 L26.4366336,2.55295733 L26.4366336,2.55295733 Z" id="Rectangle-path"></path>
                        </g>
                    </g>
                </g>
            </g>
        </g>
    </g>
</svg>