<?xml version="1.0" encoding="UTF-8" standalone="no"?>
<svg width="31px" height="30px" viewBox="0 0 31 30" version="1.1" xmlns="http://www.w3.org/2000/svg" xmlns:xlink="http://www.w3.org/1999/xlink" xmlns:sketch="http://www.bohemiancoding.com/sketch/ns">
    <!-- Generator: Sketch 3.3.2 (12043) - http://www.bohemiancoding.com/sketch -->
    <title>Park</title>
    <desc>Created with Sketch.</desc>
    <defs></defs>
    <g id="Page-1" stroke="none" stroke-width="1" fill="none" fill-rule="evenodd" sketch:type="MSPage">
        <g id="Map---Events" sketch:type="MSArtboardGroup" transform="translate(-812.000000, -257.000000)" fill="#FFFFFF">
            <g id="Pending-Payments" sketch:type="MSLayerGroup" transform="translate(715.000000, 243.000000)">
                <g id="Suggestion-Menu" transform="translate(53.000000, 2.000000)" sketch:type="MSShapeGroup">
                    <g id="Suggestion-Menu-Icons" transform="translate(44.376518, 12.000000)">
                        <g id="Park" transform="translate(0.009723, 0.000000)">
                            <path d="M12.6731698,17.7171216 C13.049899,17.7543424 13.5471816,17.7915633 14.1122753,17.7915633 C16.6137571,17.7915633 18.7309752,17.1960298 20.1700807,15.8486352 C21.2701299,14.7990074 21.8728966,13.2655087 21.8728966,11.471464 C21.8728966,9.67741935 21.0742307,8.1439206 19.8686973,7.20595533 C18.6179564,6.23076923 16.7644488,5.74689826 14.1876212,5.74689826 C11.6107935,5.74689826 9.79495886,5.89578164 8.50654504,6.1191067 L8.50654504,24.2679901 L12.6731698,24.2679901 L12.6731698,17.7171216 L12.6731698,17.7171216 Z M12.6731698,9.03722084 C12.9745532,8.96277916 13.5471816,8.88833747 14.4136587,8.88833747 C16.4932038,8.88833747 17.7062718,9.90074442 17.7062718,11.5831266 C17.7062718,13.4516129 16.3425121,14.5756824 14.0670678,14.5756824 C13.4643011,14.5756824 13.0046915,14.5384615 12.6656353,14.4640199 L12.6656353,9.03722084 L12.6731698,9.03722084 L12.6731698,9.03722084 Z" id="Shape"></path>
                            <path d="M4.79199526,29.9925558 L25.5874464,29.9925558 C28.2019469,29.9925558 30.3568379,27.9007444 30.3568379,25.280397 L30.3568379,4.73449132 C30.3568379,2.15136476 28.2396199,0.0223325062 25.5874464,0.0223325062 L4.79199526,0.0223325062 C2.1774947,0.0223325062 0.0226037512,2.11414392 0.0226037512,4.73449132 L0.0226037512,25.280397 C0.0226037512,27.8933002 2.1774947,29.9925558 4.79199526,29.9925558 L4.79199526,29.9925558 Z M3.80496479,5.03225806 C3.80496479,4.31761787 4.37005857,3.75930521 5.09337861,3.75930521 L25.3162014,3.75930521 C26.0395214,3.75930521 26.6046152,4.31761787 26.6046152,5.03225806 L26.6046152,25.0124069 C26.6046152,25.7270471 26.0395214,26.2853598 25.3162014,26.2853598 L5.09337861,26.2853598 C4.37005857,26.2853598 3.80496479,25.7270471 3.80496479,25.0124069 L3.80496479,5.03225806 L3.80496479,5.03225806 Z" id="Shape"></path>
                        </g>
                    </g>
                </g>
            </g>
        </g>
    </g>
</svg>