<?xml version="1.0" encoding="UTF-8" standalone="no"?>
<svg width="31px" height="30px" viewBox="0 0 31 30" version="1.1" xmlns="http://www.w3.org/2000/svg" xmlns:xlink="http://www.w3.org/1999/xlink" xmlns:sketch="http://www.bohemiancoding.com/sketch/ns">
    <!-- Generator: Sketch 3.3.2 (12043) - http://www.bohemiancoding.com/sketch -->
    <title>Ticket</title>
    <desc>Created with Sketch.</desc>
    <defs></defs>
    <g id="Page-1" stroke="none" stroke-width="1" fill="none" fill-rule="evenodd" sketch:type="MSPage">
        <g id="Map---Events" sketch:type="MSArtboardGroup" transform="translate(-944.000000, -257.000000)" fill="#2EC16A">
            <g id="Pending-Payments" sketch:type="MSLayerGroup" transform="translate(715.000000, 243.000000)">
                <g id="Suggestion-Menu" transform="translate(53.000000, 2.000000)" sketch:type="MSShapeGroup">
                    <g id="Suggestion-Menu-Icons" transform="translate(44.376518, 12.000000)">
                        <path d="M139.051373,17.4610051 L144.78781,23.1286053 L155.312634,12.7300797 L149.576519,7.06247956 L139.051373,17.4610051 L139.051373,17.4610051 Z M161.983233,9.67719029 L159.542526,7.26545234 C159.077706,7.51565779 158.545053,7.65831319 157.978806,7.65831319 C156.172825,7.65831319 154.708917,6.21197252 154.708917,4.42798216 C154.708917,3.86853044 154.853628,3.34226924 155.106873,2.88302736 L152.665842,0.471289404 C152.029824,-0.157096468 150.990036,-0.157096468 150.354018,0.471289404 L132.573937,18.0389669 C131.938242,18.6670337 131.938242,19.6946632 132.573937,20.3227299 L135.015291,22.7344679 C135.479787,22.4842624 136.012763,22.3419262 136.57901,22.3419262 C138.384991,22.3419262 139.848576,23.7876286 139.848576,25.5719381 C139.848576,26.1313898 139.704188,26.657651 139.45062,27.117212 L141.891651,29.52895 C142.527669,30.1570167 143.56778,30.1570167 144.203798,29.52895 L161.983879,11.9615915 C162.619251,11.3332057 162.619251,10.3055762 161.983233,9.67719029 L161.983233,9.67719029 Z M144.78781,25.7209762 L136.428162,17.4610051 L149.577165,4.47042773 L157.936491,12.7300797 L144.78781,25.7209762 L144.78781,25.7209762 Z" id="Ticket"></path>
                    </g>
                </g>
            </g>
        </g>
    </g>
</svg>