<?xml version="1.0" encoding="UTF-8" standalone="no"?>
<svg width="104px" height="63px" viewBox="0 0 104 63" version="1.1" xmlns="http://www.w3.org/2000/svg" xmlns:xlink="http://www.w3.org/1999/xlink" xmlns:sketch="http://www.bohemiancoding.com/sketch/ns">
    <!-- Generator: Sketch 3.3.2 (12043) - http://www.bohemiancoding.com/sketch -->
    <title>Off</title>
    <desc>Created with Sketch.</desc>
    <defs>
        <filter x="-50%" y="-50%" width="200%" height="200%" filterUnits="objectBoundingBox" id="filter-1">
            <feOffset dx="0" dy="1" in="SourceAlpha" result="shadowOffsetOuter1"></feOffset>
            <feGaussianBlur stdDeviation="1.5" in="shadowOffsetOuter1" result="shadowBlurOuter1"></feGaussianBlur>
            <feColorMatrix values="0 0 0 0 0   0 0 0 0 0   0 0 0 0 0  0 0 0 0.35 0" in="shadowBlurOuter1" type="matrix" result="shadowMatrixOuter1"></feColorMatrix>
            <feMerge>
                <feMergeNode in="shadowMatrixOuter1"></feMergeNode>
                <feMergeNode in="SourceGraphic"></feMergeNode>
            </feMerge>
        </filter>
    </defs>
    <g id="Page-1" stroke="none" stroke-width="1" fill="none" fill-rule="evenodd" sketch:type="MSPage">
        <g id="Payment-Settings-Disbabled" sketch:type="MSArtboardGroup" transform="translate(-616.000000, -244.000000)">
            <g id="Option-text-+-Buttons-+-Off" sketch:type="MSLayerGroup" transform="translate(-167.000000, 235.000000)">
                <g id="Off" transform="translate(783.000000, 9.000000)" sketch:type="MSShapeGroup">
                    <path d="M10,0 L94,0 C99.523,0 104,4.477 104,10 L104,52 C104,57.523 99.523,62 94,62 L10,62 C4.477,62 0,57.523 0,52 L0,10 C0,4.477 4.477,0 10,0 L10,0 Z" id="Bg" fill="#2B2C2E"></path>
                    <path d="M52,3 C56.418,3 60,6.582 60,11 L60,51 C60,55.418 56.418,59 52,59 L11,59 C6.582,59 3,55.418 3,51 L3,11 C3,6.582 6.582,3 11,3 L52,3 Z" id="Switch" fill="#FFFFFF" filter="url(#filter-1)"></path>
                    <path d="M41.296,43.023 L31.554,33.881 L22.139,43.022 L20,40.916 L29.687,31.511 L20,22.106 L22.139,20 L31.555,29.142 L41.296,20.001 L43.51,22.107 L33.487,31.512 L43.51,40.917 L41.296,43.023 Z" id="X" fill="#000000"></path>
                </g>
            </g>
        </g>
    </g>
</svg>