<?xml version="1.0" encoding="UTF-8" standalone="no"?>
<svg width="19px" height="25px" viewBox="0 0 19 25" version="1.1" xmlns="http://www.w3.org/2000/svg" xmlns:xlink="http://www.w3.org/1999/xlink" xmlns:sketch="http://www.bohemiancoding.com/sketch/ns">
    <!-- Generator: Sketch 3.3.2 (12043) - http://www.bohemiancoding.com/sketch -->
    <title>Shape</title>
    <desc>Created with Sketch.</desc>
    <defs></defs>
    <g id="Page-1" stroke="none" stroke-width="1" fill="none" fill-rule="evenodd" sketch:type="MSPage">
        <g id="Map---Gas" sketch:type="MSArtboardGroup" transform="translate(-700.000000, -624.000000)" fill="#2EC16A">
            <g id="Nav" sketch:type="MSLayerGroup" transform="translate(0.000000, 611.000000)">
                <g id="Nav-Icons" transform="translate(45.000000, 13.000000)" sketch:type="MSShapeGroup">
                    <g id="Map-Icon" transform="translate(639.941242, 0.267402)">
                        <path d="M24.16,23.9912791 C24.2577778,24.0872093 24.3911111,24.1482558 24.5244444,24.1482558 C24.6666667,24.1482558 24.8,24.0959302 24.8888889,23.9912791 C25.6977778,23.1453488 27.2977778,21.3924419 28.8977778,19.1860465 C30.9155556,16.3953488 33.3244444,12.3052326 33.3244444,8.66860465 C33.3244444,3.90697674 29.3777778,0.0348837209 24.5155556,0.0348837209 C19.6622222,0.0348837209 15.7155556,3.90697674 15.7155556,8.66860465 C15.7155556,12.3139535 18.1244444,16.4040698 20.1422222,19.1947674 C21.76,21.4011628 23.3511111,23.1453488 24.16,23.9912791 L24.16,23.9912791 Z M24.5333333,3.27034884 C27.5022222,3.27034884 29.9111111,5.63372093 29.9111111,8.54651163 C29.9111111,11.4505814 27.5022222,13.8226744 24.5333333,13.8226744 C21.5733333,13.8226744 19.1555556,11.4593023 19.1555556,8.54651163 C19.1555556,5.63372093 21.5644444,3.27034884 24.5333333,3.27034884 L24.5333333,3.27034884 Z" id="Shape"></path>
                    </g>
                </g>
            </g>
        </g>
    </g>
</svg>