<?xml version="1.0" encoding="UTF-8" standalone="no"?>
<svg width="39px" height="50px" viewBox="0 0 39 50" version="1.1" xmlns="http://www.w3.org/2000/svg" xmlns:xlink="http://www.w3.org/1999/xlink" xmlns:sketch="http://www.bohemiancoding.com/sketch/ns">
    <!-- Generator: Sketch 3.3.2 (12043) - http://www.bohemiancoding.com/sketch -->
    <title>Imported Layers</title>
    <desc>Created with Sketch.</desc>
    <defs></defs>
    <g id="Page-1" stroke="none" stroke-width="1" fill="none" fill-rule="evenodd" sketch:type="MSPage">
        <g id="Map---Gas" sketch:type="MSArtboardGroup" transform="translate(-283.000000, -514.000000)">
            <g id="Imported-Layers" sketch:type="MSLayerGroup" transform="translate(288.000000, 517.000000)">
                <path d="M14.1341796,40.1340726 C14.2976471,40.2946327 14.5205573,40.3968073 14.7434675,40.3968073 C14.9812384,40.3968073 15.2041486,40.309229 15.3527554,40.1340726 C16.7050774,38.7185034 19.38,35.7850045 22.0549226,32.0926803 C25.4282972,27.422585 29.4555418,20.5779093 29.4555418,14.492059 C29.4555418,6.52364853 22.8573994,0.0437891156 14.7286068,0.0437891156 C6.61467492,0.0437891156 0.0165325077,6.52364853 0.0165325077,14.492059 C0.0165325077,20.5925057 4.04377709,27.4371814 7.4171517,32.1072766 C10.1217957,35.7996009 12.7818576,38.7185034 14.1341796,40.1340726 L14.1341796,40.1340726 Z M14.7583282,5.45829932 C19.7217957,5.45829932 23.7490402,9.41326531 23.7490402,14.2878027 C23.7490402,19.1476508 19.7217957,23.1173061 14.7583282,23.1173061 C9.80972136,23.1173061 5.7676161,19.1622472 5.7676161,14.2878027 C5.7676161,9.41326531 9.79486068,5.45829932 14.7583282,5.45829932 L14.7583282,5.45829932 Z" id="Fill-1" fill="#DA3435" sketch:type="MSShapeGroup"></path>
                <path d="M14.1341796,40.1340726 C14.2976471,40.2946327 14.5205573,40.3968073 14.7434675,40.3968073 C14.9812384,40.3968073 15.2041486,40.309229 15.3527554,40.1340726 C16.7050774,38.7185034 19.38,35.7850045 22.0549226,32.0926803 C25.4282972,27.422585 29.4555418,20.5779093 29.4555418,14.492059 C29.4555418,6.52364853 22.8573994,0.0437891156 14.7286068,0.0437891156 C6.61467492,0.0437891156 0.0165325077,6.52364853 0.0165325077,14.492059 C0.0165325077,20.5925057 4.04377709,27.4371814 7.4171517,32.1072766 C10.1217957,35.7996009 12.7818576,38.7185034 14.1341796,40.1340726 L14.1341796,40.1340726 Z M14.7583282,5.45829932 C19.7217957,5.45829932 23.7490402,9.41326531 23.7490402,14.2878027 C23.7490402,19.1476508 19.7217957,23.1173061 14.7583282,23.1173061 C9.80972136,23.1173061 5.7676161,19.1622472 5.7676161,14.2878027 C5.7676161,9.41326531 9.79486068,5.45829932 14.7583282,5.45829932 L14.7583282,5.45829932 Z" id="Stroke-2" stroke="#1A1918" sketch:type="MSShapeGroup"></path>
                <path d="M23.8005882,14.1862789 C23.8005882,19.19739 19.742322,23.259737 14.7360372,23.259737 C9.7298452,23.259737 5.67148607,19.19739 5.67148607,14.1862789 C5.67148607,9.1751678 9.7298452,5.11282086 14.7360372,5.11282086 C19.742322,5.11282086 23.8005882,9.1751678 23.8005882,14.1862789" id="Fill-3" fill="#0A0B09" sketch:type="MSShapeGroup"></path>
            </g>
        </g>
    </g>
</svg>