<?xml version="1.0" encoding="UTF-8" standalone="no"?>
<svg width="33px" height="44px" viewBox="0 0 33 44" version="1.1" xmlns="http://www.w3.org/2000/svg" xmlns:xlink="http://www.w3.org/1999/xlink" xmlns:sketch="http://www.bohemiancoding.com/sketch/ns">
    <!-- Generator: Sketch 3.3.2 (12043) - http://www.bohemiancoding.com/sketch -->
    <title>RedMarker</title>
    <desc>Created with Sketch.</desc>
    <defs></defs>
    <g id="Page-1" stroke="none" stroke-width="1" fill="none" fill-rule="evenodd" sketch:type="MSPage">
        <g id="Map---Gas" sketch:type="MSArtboardGroup" transform="translate(-226.000000, -294.000000)">
            <g id="RedMarker" sketch:type="MSLayerGroup" transform="translate(227.000000, 295.000000)">
                <path d="M15.0764582,42.0918322 C15.2508235,42.2602245 15.4885944,42.3673832 15.7263653,42.3673832 C15.9799876,42.3673832 16.2177585,42.2755329 16.3762724,42.0918322 C17.8187492,40.6072109 20.672,37.5306145 23.5252508,33.6581769 C27.123517,28.7602721 31.4192446,21.5817098 31.4192446,15.1989887 C31.4192446,6.84187528 24.381226,0.0459251701 15.7105139,0.0459251701 C7.05565325,0.0459251701 0.0176346749,6.84187528 0.0176346749,15.1989887 C0.0176346749,21.5970181 4.31336223,28.7755805 7.91162848,33.6734853 C10.796582,37.5459229 13.6339814,40.6072109 15.0764582,42.0918322 L15.0764582,42.0918322 Z M15.7422167,5.72455782 C21.036582,5.72455782 25.3323096,9.87244898 25.3323096,14.9847687 C25.3323096,20.0816825 21.036582,24.2449796 15.7422167,24.2449796 C10.4637028,24.2449796 6.15212384,20.0969909 6.15212384,14.9847687 C6.15212384,9.87244898 10.4478514,5.72455782 15.7422167,5.72455782 L15.7422167,5.72455782 Z" id="Fill-1" fill="#BD242A" sketch:type="MSShapeGroup"></path>
                <path d="M15.0764582,42.0918322 C15.2508235,42.2602245 15.4885944,42.3673832 15.7263653,42.3673832 C15.9799876,42.3673832 16.2177585,42.2755329 16.3762724,42.0918322 C17.8187492,40.6072109 20.672,37.5306145 23.5252508,33.6581769 C27.123517,28.7602721 31.4192446,21.5817098 31.4192446,15.1989887 C31.4192446,6.84187528 24.381226,0.0459251701 15.7105139,0.0459251701 C7.05565325,0.0459251701 0.0176346749,6.84187528 0.0176346749,15.1989887 C0.0176346749,21.5970181 4.31336223,28.7755805 7.91162848,33.6734853 C10.796582,37.5459229 13.6339814,40.6072109 15.0764582,42.0918322 L15.0764582,42.0918322 Z M15.7422167,5.72455782 C21.036582,5.72455782 25.3323096,9.87244898 25.3323096,14.9847687 C25.3323096,20.0816825 21.036582,24.2449796 15.7422167,24.2449796 C10.4637028,24.2449796 6.15212384,20.0969909 6.15212384,14.9847687 C6.15212384,9.87244898 10.4478514,5.72455782 15.7422167,5.72455782 L15.7422167,5.72455782 Z" id="Stroke-2" stroke="#1A1918" sketch:type="MSShapeGroup"></path>
                <path d="M25.3872941,14.8782925 C25.3872941,20.1338481 21.0584768,24.3943583 15.7184396,24.3943583 C10.3785015,24.3943583 6.04958514,20.1338481 6.04958514,14.8782925 C6.04958514,9.62273696 10.3785015,5.36222676 15.7184396,5.36222676 C21.0584768,5.36222676 25.3872941,9.62273696 25.3872941,14.8782925" id="Fill-3" fill="#0A0B09" sketch:type="MSShapeGroup"></path>
            </g>
        </g>
    </g>
</svg>