<?xml version="1.0" encoding="UTF-8" standalone="no"?>
<svg width="29px" height="31px" viewBox="0 0 29 31" version="1.1" xmlns="http://www.w3.org/2000/svg" xmlns:xlink="http://www.w3.org/1999/xlink" xmlns:sketch="http://www.bohemiancoding.com/sketch/ns">
    <!-- Generator: Sketch 3.3.2 (12043) - http://www.bohemiancoding.com/sketch -->
    <title>Benzpay icon</title>
    <desc>Created with Sketch.</desc>
    <defs></defs>
    <g id="Page-1" stroke="none" stroke-width="1" fill="none" fill-rule="evenodd" sketch:type="MSPage">
        <g id="Map---Gas" sketch:type="MSArtboardGroup" transform="translate(-563.000000, -626.000000)" fill="#FFFFFF">
            <g id="Nav" sketch:type="MSLayerGroup" transform="translate(0.000000, 611.000000)">
                <g id="Nav-Icons" transform="translate(45.000000, 13.000000)" sketch:type="MSShapeGroup">
                    <g id="Benzpay-icon" transform="translate(517.937500, 2.748777)">
                        <path d="M16.2314815,0.305555556 C16.0462963,0.0555555556 15.712963,-0.0462962963 15.4166667,0.0555555556 L12.9814815,0.916666667 C12.5833333,1.11111111 12.0648148,1.09259259 11.6666667,0.898148148 L11.6666667,0.898148148 C9.93518519,0.037037037 7.9537037,1.56481481 8.51851852,3.34259259 L9.11111111,5.22222222 C9.31481481,5.85185185 9.98148148,6.23148148 10.6666667,6.11111111 C11.2037037,6.01851852 11.75,5.97222222 12.2962963,5.97222222 C12.8333333,5.97222222 13.3703704,6.01851852 13.8981481,6.10185185 C14.537037,6.2037037 15.1666667,5.87962963 15.037037,5.28703704 C15.0185185,5.18518519 15.0277778,5.08333333 15.0555556,4.99074074 L16.2685185,0.37962963 C16.1481481,0.185185185 16.2592593,0.324074074 16.2314815,0.305555556 L16.2314815,0.305555556 Z" id="Shape"></path>
                        <path d="M12.6203704,9.94444444 C8.0462963,9.94444444 4.34259259,13.4444444 4.34259259,17.7592593 C4.34259259,22.0740741 8.06481481,25.5740741 12.6203704,25.5740741 C17.1759259,25.5740741 20.8981481,22.0648148 20.8981481,17.7592593 C20.9074074,13.4537037 17.1944444,9.94444444 12.6203704,9.94444444 L12.6203704,9.94444444 Z M16.2962963,21.6111111 C16.1574074,21.7962963 15.9259259,21.8888889 15.6944444,21.8888889 C15.5277778,21.8888889 15.3611111,21.8333333 15.212963,21.7314815 L11.9074074,19.3055556 C11.7314815,19.1666667 11.6111111,18.962963 11.6111111,18.7314815 L11.6111111,13.3796296 C11.6111111,12.9814815 11.962963,12.6481481 12.3888889,12.6481481 C12.8148148,12.6481481 13.1574074,12.9722222 13.1574074,13.3796296 L13.1574074,18.3703704 L16.1574074,20.5833333 C16.5092593,20.8333333 16.5555556,21.2962963 16.2962963,21.6111111 L16.2962963,21.6111111 Z" id="Shape"></path>
                        <path d="M15.1481481,4.62962963 C14.3333333,4.34259259 13.5,4.19444444 12.6388889,4.19444444 C11.3981481,4.19444444 10.2037037,4.50925926 9.07407407,5.07407407 C3.86111111,7.66666667 0.0555555556,15.4814815 0.0555555556,21.2962963 C0.0555555556,28.3796296 5.68518519,29.9444444 12.6388889,29.9444444 C19.5833333,29.9444444 25.2222222,28.3796296 25.2222222,21.2962963 C25.212963,15.1018519 20.8981481,6.63888889 15.1481481,4.62962963 L15.1481481,4.62962963 Z M12.6203704,27.037037 C7.2037037,27.037037 2.7962963,22.8796296 2.7962963,17.7592593 C2.7962963,12.6388889 7.2037037,8.48148148 12.6203704,8.48148148 C18.0462963,8.48148148 22.4444444,12.6388889 22.4444444,17.7592593 C22.4537037,22.8796296 18.0462963,27.037037 12.6203704,27.037037 L12.6203704,27.037037 Z" id="Shape"></path>
                        <path d="M12.6203704,9.94444444 C8.0462963,9.94444444 4.34259259,13.4444444 4.34259259,17.7592593 C4.34259259,22.0740741 8.06481481,25.5740741 12.6203704,25.5740741 C17.1759259,25.5740741 20.8981481,22.0648148 20.8981481,17.7592593 C20.9074074,13.4537037 17.1944444,9.94444444 12.6203704,9.94444444 L12.6203704,9.94444444 Z M16.2962963,21.6111111 C16.1574074,21.7962963 15.9259259,21.8888889 15.6944444,21.8888889 C15.5277778,21.8888889 15.3611111,21.8333333 15.212963,21.7314815 L11.9074074,19.3055556 C11.7314815,19.1666667 11.6111111,18.962963 11.6111111,18.7314815 L11.6111111,13.3796296 C11.6111111,12.9814815 11.962963,12.6481481 12.3888889,12.6481481 C12.8148148,12.6481481 13.1574074,12.9722222 13.1574074,13.3796296 L13.1574074,18.3703704 L16.1574074,20.5833333 C16.5092593,20.8333333 16.5555556,21.2962963 16.2962963,21.6111111 L16.2962963,21.6111111 Z" id="Shape"></path>
                        <path d="M27.7592593,13.7222222 C28.037037,9.92592593 26.4351852,7.33333333 22.9074074,5.89814815 C22.9722222,5.74074074 23.037037,5.56481481 23.1111111,5.38888889 C23.1851852,5.22222222 23.25,5.05555556 23.3333333,4.87037037 C24.1759259,5.14814815 24.9259259,5.5462963 25.6111111,6.07407407 C27.2222222,7.30555556 28.2592593,8.92592593 28.7314815,10.8981481 C28.9444444,11.7962963 28.962963,12.7037037 28.8796296,13.6203704 C28.8703704,13.75 28.8148148,13.8055556 28.6759259,13.787037 C28.3703704,13.7592593 28.0648148,13.75 27.7592593,13.7222222 L27.7592593,13.7222222 Z" id="Shape"></path>
                        <path d="M21.8981481,7.41666667 C24.5740741,8.53703704 26.1388889,11.3055556 25.9166667,13.9351852 C25.5648148,13.9074074 25.212963,13.8796296 24.8333333,13.8518519 C24.8240741,13.6574074 24.8240741,13.462963 24.8148148,13.2685185 C24.6851852,11.1018519 23.6481481,9.52777778 21.712963,8.56481481 C21.5277778,8.47222222 21.462963,8.39814815 21.5648148,8.19444444 C21.6851852,7.96296296 21.7777778,7.69444444 21.8981481,7.41666667 L21.8981481,7.41666667 Z" id="Shape"></path>
                    </g>
                </g>
            </g>
        </g>
    </g>
</svg>